<svg version="1.1" viewBox="0.0 0.0 960.0 720.0" fill="none" stroke="none" stroke-linecap="square" stroke-miterlimit="10" xmlns:xlink="http://www.w3.org/1999/xlink" xmlns="http://www.w3.org/2000/svg"><clipPath id="p.0"><path d="m0 0l960.0 0l0 720.0l-960.0 0l0 -720.0z" clip-rule="nonzero"/></clipPath><g clip-path="url(#p.0)"><path fill="#000000" fill-opacity="0.0" d="m0 0l960.0 0l0 720.0l-960.0 0z" fill-rule="evenodd"/><path fill="#000000" fill-opacity="0.0" d="m27.041994 25.262466l900.8819 0l0 694.7402l-900.8819 0z" fill-rule="evenodd"/><path fill="#000000" d="m312.48294 353.89685l-11.59375 0l-1.359375 3.59375q-0.828125 2.21875 -1.40625 2.9375q-0.5625 0.71875 -1.828125 0.71875q-1.171875 0 -1.984375 -0.8125q-0.796875 -0.8125 -0.796875 -1.75q0 -0.984375 0.8125 -3.0l7.359375 -18.59375q0.96875 -2.515625 1.421875 -3.390625q0.46875 -0.890625 1.40625 -1.46875q0.953125 -0.59375 2.125 -0.59375q1.390625 0 2.4375 0.734375q1.046875 0.734375 1.65625 2.234375l8.46875 20.921875q0.84375 2.125 0.84375 3.0625q0 0.984375 -0.8125 1.828125q-0.8125 0.828125 -2.015625 0.828125q-1.296875 0 -1.859375 -0.734375q-0.5625 -0.734375 -1.46875 -3.0l-1.40625 -3.515625zm-10.109375 -4.46875l8.59375 0l-4.359375 -11.78125l-4.234375 11.78125zm40.36328 -1.4375l0 8.75q0 1.6875 -0.140625 2.46875q-0.125 0.765625 -0.828125 1.359375q-0.703125 0.578125 -1.671875 0.578125q-0.859375 0 -1.609375 -0.515625q-0.734375 -0.515625 -0.90625 -1.34375q-0.171875 -0.828125 -0.171875 -2.546875l0 -7.6875q0 -3.203125 -0.96875 -4.3125q-0.953125 -1.109375 -2.625 -1.109375q-1.53125 0 -2.6875 0.875q-1.140625 0.875 -1.609375 2.203125q-0.46875 1.3125 -0.46875 4.515625l0 5.515625q0 1.671875 -0.125 2.4375q-0.125 0.765625 -0.859375 1.375q-0.71875 0.59375 -1.65625 0.59375q-0.875 0 -1.625 -0.53125q-0.734375 -0.546875 -0.890625 -1.34375q-0.15625 -0.796875 -0.15625 -2.53125l0 -13.15625q0 -1.765625 0.15625 -2.46875q0.171875 -0.703125 0.84375 -1.171875q0.671875 -0.46875 1.515625 -0.46875q0.78125 0 1.625 0.609375q0.859375 0.609375 0.859375 2.984375q2.671875 -3.59375 6.875 -3.59375q1.59375 0 3.15625 0.609375q1.5625 0.59375 2.546875 1.953125q1.0 1.359375 1.203125 2.8125q0.21875 1.453125 0.21875 3.140625zm32.11328 3.625l-10.46875 0q0.078125 2.96875 1.625 4.484375q1.5625 1.515625 3.71875 1.515625q2.6875 0 5.046875 -2.34375q0.953125 -0.984375 1.40625 -1.21875q0.46875 -0.234375 1.03125 -0.234375q0.71875 0 1.234375 0.453125q0.53125 0.453125 0.53125 1.109375q0 1.796875 -2.46875 3.78125q-2.453125 1.984375 -6.65625 1.984375q-5.359375 0 -8.125 -3.015625q-2.75 -3.015625 -2.75 -7.828125q0 -4.84375 2.75 -7.828125q2.765625 -3.0 7.6875 -3.0q4.71875 0 7.265625 2.828125q2.5625 2.828125 2.5625 6.15625q0 1.453125 -0.859375 2.3125q-0.84375 0.84375 -3.53125 0.84375zm-10.46875 -3.03125l9.703125 0q-0.09375 -2.65625 -1.46875 -4.046875q-1.359375 -1.390625 -3.375 -1.390625q-4.234375 0 -4.859375 5.4375zm19.316406 8.15625l0 -13.671875q0 -3.59375 2.640625 -3.59375q2.515625 0 2.578125 3.3125q1.65625 -3.3125 4.578125 -3.3125q1.546875 0 3.1875 0.8125q1.65625 0.796875 1.65625 2.203125q0 0.984375 -0.671875 1.625q-0.65625 0.625 -1.40625 0.625q-0.4375 0 -1.5625 -0.34375q-1.125 -0.34375 -1.875 -0.34375q-1.921875 0 -2.859375 1.9375q-0.9375 1.9375 -0.9375 7.46875l0 3.078125q0 2.03125 -0.171875 2.75q-0.15625 0.703125 -0.859375 1.28125q-0.703125 0.578125 -1.625 0.578125q-0.875 0 -1.578125 -0.515625q-0.703125 -0.515625 -0.90625 -1.21875q-0.1875 -0.71875 -0.1875 -2.671875zm17.519531 0l0 -13.671875q0 -3.59375 2.640625 -3.59375q2.515625 0 2.578125 3.3125q1.65625 -3.3125 4.578125 -3.3125q1.546875 0 3.1875 0.8125q1.65625 0.796875 1.65625 2.203125q0 0.984375 -0.671875 1.625q-0.65625 0.625 -1.40625 0.625q-0.4375 0 -1.5625 -0.34375q-1.125 -0.34375 -1.875 -0.34375q-1.921875 0 -2.859375 1.9375q-0.9375 1.9375 -0.9375 7.46875l0 3.078125q0 2.03125 -0.171875 2.75q-0.15625 0.703125 -0.859375 1.28125q-0.703125 0.578125 -1.625 0.578125q-0.875 0 -1.578125 -0.515625q-0.703125 -0.515625 -0.90625 -1.21875q-0.1875 -0.71875 -0.1875 -2.671875zm26.878906 -17.265625q4.953125 0 7.796875 3.0625q2.84375 3.046875 2.84375 7.765625q0 4.75 -2.890625 7.796875q-2.875 3.046875 -7.625 3.046875q-5.15625 0 -7.953125 -3.078125q-2.796875 -3.09375 -2.796875 -7.765625q0 -4.734375 2.828125 -7.78125q2.84375 -3.046875 7.796875 -3.046875zm0 17.703125q2.421875 0 3.828125 -1.8125q1.421875 -1.828125 1.421875 -5.0625q0 -3.234375 -1.421875 -5.0625q-1.40625 -1.828125 -3.828125 -1.828125q-2.390625 0 -3.8125 1.84375q-1.421875 1.828125 -1.421875 5.046875q0 3.25 1.40625 5.0625q1.421875 1.8125 3.828125 1.8125zm14.800781 -0.4375l0 -13.671875q0 -3.59375 2.640625 -3.59375q2.515625 0 2.578125 3.3125q1.65625 -3.3125 4.578125 -3.3125q1.546875 0 3.1875 0.8125q1.65625 0.796875 1.65625 2.203125q0 0.984375 -0.671875 1.625q-0.65625 0.625 -1.40625 0.625q-0.4375 0 -1.5625 -0.34375q-1.125 -0.34375 -1.875 -0.34375q-1.921875 0 -2.859375 1.9375q-0.9375 1.9375 -0.9375 7.46875l0 3.078125q0 2.03125 -0.171875 2.75q-0.15625 0.703125 -0.859375 1.28125q-0.703125 0.578125 -1.625 0.578125q-0.875 0 -1.578125 -0.515625q-0.703125 -0.515625 -0.90625 -1.21875q-0.1875 -0.71875 -0.1875 -2.671875zm38.753906 -17.265625q4.953125 0 7.796875 3.0625q2.84375 3.046875 2.84375 7.765625q0 4.75 -2.890625 7.796875q-2.875 3.046875 -7.625 3.046875q-5.15625 0 -7.953125 -3.078125q-2.796875 -3.09375 -2.796875 -7.765625q0 -4.734375 2.828125 -7.78125q2.84375 -3.046875 7.796875 -3.046875zm0 17.703125q2.421875 0 3.828125 -1.8125q1.421875 -1.828125 1.421875 -5.0625q0 -3.234375 -1.421875 -5.0625q-1.40625 -1.828125 -3.828125 -1.828125q-2.390625 0 -3.8125 1.84375q-1.421875 1.828125 -1.421875 5.046875q0 3.25 1.40625 5.0625q1.421875 1.8125 3.828125 1.8125zm31.691437 -4.953125q0.984375 0 1.625 0.765625q0.640625 0.75 0.640625 1.5625q0 2.15625 -2.59375 4.375q-2.5937805 2.21875 -6.9531555 2.21875q-5.25 0 -7.9375 -2.96875q-2.671875 -2.984375 -2.671875 -7.75q0 -4.828125 2.765625 -7.890625q2.78125 -3.0625 7.921875 -3.0625q3.984375 0 6.5937805 2.078125q2.609375 2.078125 2.609375 4.109375q0 0.96875 -0.703125 1.625q-0.703125 0.65625 -1.671875 0.65625q-1.1719055 0 -1.8281555 -1.0q-1.46875 -2.21875 -2.609375 -2.8125q-1.125 -0.59375 -2.4375 -0.59375q-2.546875 0 -3.9375 1.96875q-1.390625 1.953125 -1.390625 4.875q0 3.015625 1.453125 4.90625q1.453125 1.890625 3.875 1.890625q1.390625 0 2.5625 -0.640625q1.171875 -0.65625 2.015625 -1.96875q0.859375 -1.328125 1.3594055 -1.828125q0.5 -0.515625 1.3125 -0.515625zm23.769531 0q0.984375 0 1.625 0.765625q0.64056396 0.75 0.64056396 1.5625q0 2.15625 -2.593689 4.375q-2.59375 2.21875 -6.953125 2.21875q-5.25 0 -7.9375 -2.96875q-2.671875 -2.984375 -2.671875 -7.75q0 -4.828125 2.765625 -7.890625q2.78125 -3.0625 7.921875 -3.0625q3.984375 0 6.59375 2.078125q2.609314 2.078125 2.609314 4.109375q0 0.96875 -0.70306396 1.625q-0.703125 0.65625 -1.671875 0.65625q-1.171875 0 -1.828125 -1.0q-1.46875 -2.21875 -2.609375 -2.8125q-1.125 -0.59375 -2.4375 -0.59375q-2.546875 0 -3.9375 1.96875q-1.390625 1.953125 -1.390625 4.875q0 3.015625 1.453125 4.90625q1.453125 1.890625 3.875 1.890625q1.390625 0 2.5625 -0.640625q1.171875 -0.65625 2.015625 -1.96875q0.859375 -1.328125 1.359375 -1.828125q0.5 -0.515625 1.3125 -0.515625zm6.753845 1.0l0 -9.359375q0 -1.734375 0.140625 -2.5q0.140625 -0.78125 0.828125 -1.328125q0.703125 -0.5625 1.671875 -0.5625q0.9375 0 1.640625 0.53125q0.71875 0.515625 0.890625 1.375q0.171875 0.859375 0.171875 2.59375l0 7.328125q0 3.609375 1.109375 4.625q1.125 1.015625 2.484375 1.015625q1.53125 0 2.6875 -0.859375q1.171875 -0.875 1.59375 -2.09375q0.421875 -1.21875 0.421875 -4.8125l0 -5.3125q0 -1.703125 0.15625 -2.515625q0.171875 -0.8125 0.875 -1.34375q0.703125 -0.53125 1.65625 -0.53125q0.921875 0 1.625 0.53125q0.71875 0.515625 0.859375 1.3125q0.15625 0.78125 0.15625 2.546875l0 13.15625q0 1.625 -0.15625 2.359375q-0.15625 0.71875 -0.78125 1.25q-0.609375 0.515625 -1.546875 0.515625q-2.578125 0 -2.46875 -3.6875q-2.6875 3.6875 -7.0625 3.6875q-2.890625 0 -4.921875 -1.71875q-2.03125 -1.734375 -2.03125 -6.203125zm24.285156 3.515625l0 -13.671875q0 -3.59375 2.640625 -3.59375q2.515625 0 2.578125 3.3125q1.65625 -3.3125 4.578125 -3.3125q1.546875 0 3.1875 0.8125q1.65625 0.796875 1.65625 2.203125q0 0.984375 -0.671875 1.625q-0.65625 0.625 -1.40625 0.625q-0.4375 0 -1.5625 -0.34375q-1.125 -0.34375 -1.875 -0.34375q-1.921875 0 -2.859375 1.9375q-0.9375 1.9375 -0.9375 7.46875l0 3.078125q0 2.03125 -0.171875 2.75q-0.15625 0.703125 -0.859375 1.28125q-0.703125 0.578125 -1.625 0.578125q-0.875 0 -1.578125 -0.515625q-0.703125 -0.515625 -0.90625 -1.21875q-0.1875 -0.71875 -0.1875 -2.671875zm17.519531 0l0 -13.671875q0 -3.59375 2.640625 -3.59375q2.515625 0 2.578125 3.3125q1.65625 -3.3125 4.578125 -3.3125q1.546875 0 3.1875 0.8125q1.65625 0.796875 1.65625 2.203125q0 0.984375 -0.671875 1.625q-0.65625 0.625 -1.40625 0.625q-0.4375 0 -1.5625 -0.34375q-1.125 -0.34375 -1.875 -0.34375q-1.921875 0 -2.859375 1.9375q-0.9375 1.9375 -0.9375 7.46875l0 3.078125q0 2.03125 -0.171875 2.75q-0.15625 0.703125 -0.859375 1.28125q-0.703125 0.578125 -1.625 0.578125q-0.875 0 -1.578125 -0.515625q-0.703125 -0.515625 -0.90625 -1.21875q-0.1875 -0.71875 -0.1875 -2.671875zm32.441406 -5.125l-10.46875 0q0.078125 2.96875 1.625 4.484375q1.5625 1.515625 3.71875 1.515625q2.6875 0 5.046875 -2.34375q0.953125 -0.984375 1.40625 -1.21875q0.46875 -0.234375 1.03125 -0.234375q0.71875 0 1.234375 0.453125q0.53125 0.453125 0.53125 1.109375q0 1.796875 -2.46875 3.78125q-2.453125 1.984375 -6.65625 1.984375q-5.359375 0 -8.125 -3.015625q-2.75 -3.015625 -2.75 -7.828125q0 -4.84375 2.75 -7.828125q2.765625 -3.0 7.6875 -3.0q4.71875 0 7.265625 2.828125q2.5625 2.828125 2.5625 6.15625q0 1.453125 -0.859375 2.3125q-0.84375 0.84375 -3.53125 0.84375zm-10.46875 -3.03125l9.703125 0q-0.09375 -2.65625 -1.46875 -4.046875q-1.359375 -1.390625 -3.375 -1.390625q-4.234375 0 -4.859375 5.4375zm33.92578 9.515625l0 -0.53125q-2.75 3.578125 -6.96875 3.578125q-4.09375 0 -6.5 -3.09375q-2.40625 -3.109375 -2.40625 -8.03125q0 -4.65625 2.34375 -7.59375q2.359375 -2.953125 6.515625 -2.953125q4.046875 0 7.015625 3.25l0 -6.90625q0 -2.875 0.71875 -3.578125q0.71875 -0.703125 1.953125 -0.703125q0.859375 0 1.578125 0.5q0.734375 0.5 0.890625 1.296875q0.171875 0.796875 0.171875 2.640625l0 21.015625q0 1.78125 -0.1875 2.546875q-0.1875 0.75 -0.90625 1.171875q-0.71875 0.4375 -1.578125 0.4375q-2.640625 0 -2.640625 -3.046875zm-10.484375 -7.921875q0 3.59375 1.5 5.25q1.515625 1.640625 3.453125 1.640625q2.265625 0 3.75 -1.71875q1.484375 -1.71875 1.484375 -4.8125q0 -3.21875 -1.453125 -5.125q-1.4375 -1.921875 -3.8125 -1.921875q-2.171875 0 -3.546875 1.78125q-1.375 1.78125 -1.375 4.90625zm27.625 -11.515625l-0.828125 9.640625q-0.203125 2.109375 -0.734375 2.828125q-0.515625 0.71875 -1.34375 0.71875q-0.8125 0 -1.34375 -0.734375q-0.515625 -0.734375 -0.671875 -2.8125l-0.65625 -9.40625q-0.125 -1.203125 -0.125 -3.4375q0 -3.921875 3.0 -3.921875q1.328125 0 2.046875 0.90625q0.734375 0.890625 0.734375 3.328125q0 1.984375 -0.078125 2.890625zm-2.78125 16.609375q1.1875 0 2.046875 0.859375q0.875 0.859375 0.875 2.046875q0 1.21875 -0.875 2.09375q-0.859375 0.875 -2.046875 0.875q-1.234375 0 -2.109375 -0.859375q-0.859375 -0.875 -0.859375 -2.109375q0 -1.1875 0.875 -2.046875q0.875 -0.859375 2.09375 -0.859375z" fill-rule="nonzero"/><path fill="#000000" d="m230.13528 397.50623l0 6.84375q0 3.171875 -0.828125 3.984375q-0.8125 0.8125 -2.09375 0.8125q-0.953125 0 -1.71875 -0.546875q-0.75 -0.546875 -0.9375 -1.34375q-0.171875 -0.796875 -0.171875 -2.90625l0 -19.453125q0 -2.453125 0.328125 -3.34375q0.328125 -0.90625 1.1875 -1.21875q0.875 -0.3125 2.59375 -0.3125l7.0 0q6.25 0 8.46875 2.421875q2.21875 2.421875 2.21875 6.015625q0 9.046875 -10.6875 9.046875l-5.359375 0zm3.953125 -13.0l-3.953125 0l0 8.515625l3.953125 0q3.59375 0 4.890625 -1.15625q1.3125 -1.15625 1.3125 -3.125q0 -1.40625 -0.734375 -2.5q-0.71875 -1.09375 -1.953125 -1.40625q-1.234375 -0.328125 -3.515625 -0.328125zm21.898438 -0.578125l0 20.8125q0 1.921875 -0.1875 2.625q-0.171875 0.6875 -0.890625 1.234375q-0.71875 0.546875 -1.5625 0.546875q-0.859375 0 -1.609375 -0.53125q-0.734375 -0.546875 -0.921875 -1.265625q-0.171875 -0.71875 -0.171875 -2.609375l0 -20.8125q0 -1.96875 0.1875 -2.65625q0.1875 -0.703125 0.890625 -1.21875q0.71875 -0.515625 1.5625 -0.515625q0.984375 0 1.6875 0.5625q0.71875 0.546875 0.859375 1.3125q0.15625 0.75 0.15625 2.515625zm20.386719 15.6875l-10.46875 0q0.078125 2.96875 1.625 4.484375q1.5625 1.515625 3.71875 1.515625q2.6875 0 5.046875 -2.34375q0.953125 -0.984375 1.40625 -1.21875q0.46875 -0.234375 1.03125 -0.234375q0.71875 0 1.234375 0.453125q0.53125 0.453125 0.53125 1.109375q0 1.796875 -2.46875 3.78125q-2.453125 1.984375 -6.65625 1.984375q-5.359375 0 -8.125 -3.015625q-2.75 -3.015625 -2.75 -7.828125q0 -4.84375 2.75 -7.828125q2.765625 -3.0 7.6875 -3.0q4.71875 0 7.265625 2.828125q2.5625 2.828125 2.5625 6.15625q0 1.453125 -0.859375 2.3125q-0.84375 0.84375 -3.53125 0.84375zm-10.46875 -3.03125l9.703125 0q-0.09375 -2.65625 -1.46875 -4.046875q-1.359375 -1.390625 -3.375 -1.390625q-4.234375 0 -4.859375 5.4375zm32.83203 9.5625q-3.8125 3.0 -7.46875 3.0q-3.453125 0 -5.3125 -1.75q-1.84375 -1.765625 -1.84375 -4.296875q0 -2.171875 1.25 -3.5q1.265625 -1.34375 2.75 -1.875q1.484375 -0.53125 4.828125 -1.21875q3.359375 -0.703125 5.40625 -1.28125q-0.015625 -2.421875 -0.953125 -3.265625q-0.9375 -0.859375 -2.859375 -0.859375q-3.625 0 -4.75 2.03125q-0.625 1.15625 -1.109375 1.640625q-0.484375 0.484375 -1.40625 0.484375q-0.84375 0 -1.53125 -0.546875q-0.671875 -0.5625 -0.671875 -1.4375q0 -2.078125 2.234375 -3.9375q2.25 -1.859375 7.078125 -1.859375q4.890625 0 7.15625 1.6875q2.265625 1.6875 2.125 6.828125l-0.125 5.0q-0.078125 2.3125 0.484375 3.78125q0.5625 1.46875 0.5625 2.25q0 0.84375 -0.75 1.484375q-0.734375 0.640625 -1.671875 0.640625q-1.625 0 -3.421875 -3.0zm-0.359375 -7.71875q-1.1875 0.46875 -3.9375 1.015625q-2.734375 0.546875 -3.875 1.25q-1.140625 0.703125 -1.140625 2.046875q0 1.15625 0.90625 2.03125q0.90625 0.875 2.5625 0.875q1.765625 0 3.265625 -0.953125q1.515625 -0.96875 1.859375 -2.296875q0.359375 -1.328125 0.359375 -3.96875zm14.691406 -5.40625q0 1.03125 1.078125 1.625q1.078125 0.578125 4.796875 1.5q7.25 1.75 7.25 6.03125q0 3.375 -2.4375 5.171875q-2.4375 1.796875 -6.84375 1.796875q-4.453125 0 -6.703125 -1.828125q-2.25 -1.84375 -2.25 -3.890625q0 -0.875 0.625 -1.5q0.625 -0.625 1.53125 -0.625q1.25 0 2.1875 1.5625q1.0625 1.71875 2.328125 2.28125q1.265625 0.546875 2.71875 0.546875q1.59375 0 2.59375 -0.703125q1.015625 -0.71875 1.015625 -1.8125q0 -1.0 -0.859375 -1.734375q-0.84375 -0.734375 -4.640625 -1.59375q-3.796875 -0.875 -5.53125 -2.4375q-1.734375 -1.578125 -1.734375 -3.75q0 -2.4375 2.109375 -4.3125q2.125 -1.875 6.359375 -1.875q3.890625 0 6.1875 1.578125q2.3125 1.578125 2.3125 3.28125q0 0.890625 -0.59375 1.515625q-0.578125 0.609375 -1.609375 0.609375q-1.546875 0 -2.796875 -1.765625q-1.234375 -1.78125 -3.734375 -1.78125q-1.34375 0 -2.359375 0.546875q-1.0 0.546875 -1.0 1.5625zm32.523438 6.59375l-10.46875 0q0.078125 2.96875 1.625 4.484375q1.5625 1.515625 3.71875 1.515625q2.6875 0 5.046875 -2.34375q0.953125 -0.984375 1.40625 -1.21875q0.46875 -0.234375 1.03125 -0.234375q0.71875 0 1.234375 0.453125q0.53125 0.453125 0.53125 1.109375q0 1.796875 -2.46875 3.78125q-2.453125 1.984375 -6.65625 1.984375q-5.359375 0 -8.125 -3.015625q-2.75 -3.015625 -2.75 -7.828125q0 -4.84375 2.75 -7.828125q2.765625 -3.0 7.6875 -3.0q4.71875 0 7.265625 2.828125q2.5625 2.828125 2.5625 6.15625q0 1.453125 -0.859375 2.3125q-0.84375 0.84375 -3.53125 0.84375zm-10.46875 -3.03125l9.703125 0q-0.09375 -2.65625 -1.46875 -4.046875q-1.359375 -1.390625 -3.375 -1.390625q-4.234375 0 -4.859375 5.4375zm31.191406 8.15625l0 -13.671875q0 -3.59375 2.640625 -3.59375q2.515625 0 2.578125 3.3125q1.65625 -3.3125 4.578125 -3.3125q1.546875 0 3.1875 0.8125q1.65625 0.796875 1.65625 2.203125q0 0.984375 -0.671875 1.625q-0.65625 0.625 -1.40625 0.625q-0.4375 0 -1.5625 -0.34375q-1.125 -0.34375 -1.875 -0.34375q-1.921875 0 -2.859375 1.9375q-0.9375 1.9375 -0.9375 7.46875l0 3.078125q0 2.03125 -0.171875 2.75q-0.15625 0.703125 -0.859375 1.28125q-0.703125 0.578125 -1.625 0.578125q-0.875 0 -1.578125 -0.515625q-0.703125 -0.515625 -0.90625 -1.21875q-0.1875 -0.71875 -0.1875 -2.671875zm32.441406 -5.125l-10.46875 0q0.078125 2.96875 1.625 4.484375q1.5625 1.515625 3.71875 1.515625q2.6875 0 5.046875 -2.34375q0.953125 -0.984375 1.40625 -1.21875q0.46875 -0.234375 1.03125 -0.234375q0.71875 0 1.234375 0.453125q0.53125 0.453125 0.53125 1.109375q0 1.796875 -2.46875 3.78125q-2.453125 1.984375 -6.65625 1.984375q-5.359375 0 -8.125 -3.015625q-2.75 -3.015625 -2.75 -7.828125q0 -4.84375 2.75 -7.828125q2.765625 -3.0 7.6875 -3.0q4.71875 0 7.265625 2.828125q2.5625 2.828125 2.5625 6.15625q0 1.453125 -0.859375 2.3125q-0.84375 0.84375 -3.53125 0.84375zm-10.46875 -3.03125l9.703125 0q-0.09375 -2.65625 -1.46875 -4.046875q-1.359375 -1.390625 -3.375 -1.390625q-4.234375 0 -4.859375 5.4375zm23.394531 -3.5625q0 1.03125 1.078125 1.625q1.078125 0.578125 4.796875 1.5q7.25 1.75 7.25 6.03125q0 3.375 -2.4375 5.171875q-2.4375 1.796875 -6.84375 1.796875q-4.453125 0 -6.703125 -1.828125q-2.25 -1.84375 -2.25 -3.890625q0 -0.875 0.625 -1.5q0.625 -0.625 1.53125 -0.625q1.25 0 2.1875 1.5625q1.0625 1.71875 2.328125 2.28125q1.265625 0.546875 2.71875 0.546875q1.59375 0 2.59375 -0.703125q1.015625 -0.71875 1.015625 -1.8125q0 -1.0 -0.859375 -1.734375q-0.84375 -0.734375 -4.640625 -1.59375q-3.796875 -0.875 -5.53125 -2.4375q-1.734375 -1.578125 -1.734375 -3.75q0 -2.4375 2.109375 -4.3125q2.125 -1.875 6.359375 -1.875q3.890625 0 6.1875 1.578125q2.3125 1.578125 2.3125 3.28125q0 0.890625 -0.59375 1.515625q-0.578125 0.609375 -1.609375 0.609375q-1.546875 0 -2.796875 -1.765625q-1.234375 -1.78125 -3.734375 -1.78125q-1.34375 0 -2.359375 0.546875q-1.0 0.546875 -1.0 1.5625zm18.523438 -5.078125l0 -3.203125q0 -1.984375 0.15625 -2.6875q0.171875 -0.71875 0.859375 -1.265625q0.703125 -0.5625 1.640625 -0.5625q0.859375 0 1.546875 0.515625q0.6875 0.5 0.90625 1.21875q0.21875 0.71875 0.21875 2.34375l0 3.640625l1.03125 0q1.953125 0 2.59375 0.484375q0.65625 0.46875 0.65625 1.390625q0 1.96875 -3.28125 1.96875l-1.0 0l0 9.84375q0 1.984375 0.28125 2.71875q0.28125 0.71875 1.515625 0.71875q0.578125 0 1.3125 -0.15625q0.734375 -0.171875 1.09375 -0.171875q0.796875 0 1.296875 0.53125q0.5 0.515625 0.5 1.265625q0 2.609375 -5.53125 2.609375q-2.671875 0 -3.9375 -0.984375q-1.265625 -1.0 -1.5625 -2.421875q-0.296875 -1.4375 -0.296875 -3.71875l0 -10.234375l-0.703125 0q-2.375 0 -2.375 -1.9375q0 -1.90625 2.484375 -1.90625l0.59375 0zm26.753906 18.203125q-3.8125 3.0 -7.46875 3.0q-3.453125 0 -5.3125 -1.75q-1.84375 -1.765625 -1.84375 -4.296875q0 -2.171875 1.25 -3.5q1.265625 -1.34375 2.75 -1.875q1.484375 -0.53125 4.828125 -1.21875q3.359375 -0.703125 5.40625 -1.28125q-0.015625 -2.421875 -0.953125 -3.265625q-0.9375 -0.859375 -2.859375 -0.859375q-3.625 0 -4.75 2.03125q-0.625 1.15625 -1.109375 1.640625q-0.484375 0.484375 -1.40625 0.484375q-0.84375 0 -1.53125 -0.546875q-0.671875 -0.5625 -0.671875 -1.4375q0 -2.078125 2.234375 -3.9375q2.25 -1.859375 7.078125 -1.859375q4.890625 0 7.15625 1.6875q2.265625 1.6875 2.125 6.828125l-0.125 5.0q-0.078125 2.3125 0.484375 3.78125q0.5625 1.46875 0.5625 2.25q0 0.84375 -0.75 1.484375q-0.734375 0.640625 -1.671875 0.640625q-1.625 0 -3.421875 -3.0zm-0.359375 -7.71875q-1.1875 0.46875 -3.9375 1.015625q-2.734375 0.546875 -3.875 1.25q-1.140625 0.703125 -1.140625 2.046875q0 1.15625 0.90625 2.03125q0.90625 0.875 2.5625 0.875q1.765625 0 3.265625 -0.953125q1.515625 -0.96875 1.859375 -2.296875q0.359375 -1.328125 0.359375 -3.96875zm10.613281 6.3125l0 -13.671875q0 -3.59375 2.640625 -3.59375q2.515625 0 2.578125 3.3125q1.65625 -3.3125 4.578125 -3.3125q1.546875 0 3.1875 0.8125q1.65625 0.796875 1.65625 2.203125q0 0.984375 -0.671875 1.625q-0.65625 0.625 -1.40625 0.625q-0.4375 0 -1.5625 -0.34375q-1.125 -0.34375 -1.875 -0.34375q-1.921875 0 -2.859375 1.9375q-0.9375 1.9375 -0.9375 7.46875l0 3.078125q0 2.03125 -0.171875 2.75q-0.15625 0.703125 -0.859375 1.28125q-0.703125 0.578125 -1.625 0.578125q-0.875 0 -1.578125 -0.515625q-0.703125 -0.515625 -0.90625 -1.21875q-0.1875 -0.71875 -0.1875 -2.671875zm18.441406 -16.796875l0 -3.203125q0 -1.984375 0.15625 -2.6875q0.171875 -0.71875 0.859375 -1.265625q0.703125 -0.5625 1.640625 -0.5625q0.859375 0 1.546875 0.515625q0.6875 0.5 0.90625 1.21875q0.21875 0.71875 0.21875 2.34375l0 3.640625l1.03125 0q1.953125 0 2.59375 0.484375q0.65625 0.46875 0.65625 1.390625q0 1.96875 -3.28125 1.96875l-1.0 0l0 9.84375q0 1.984375 0.28125 2.71875q0.28125 0.71875 1.515625 0.71875q0.578125 0 1.3125 -0.15625q0.734375 -0.171875 1.09375 -0.171875q0.796875 0 1.296875 0.53125q0.5 0.515625 0.5 1.265625q0 2.609375 -5.53125 2.609375q-2.671875 0 -3.9375 -0.984375q-1.265625 -1.0 -1.5625 -2.421875q-0.296875 -1.4375 -0.296875 -3.71875l0 -10.234375l-0.703125 0q-2.375 0 -2.375 -1.9375q0 -1.90625 2.484375 -1.90625l0.59375 0zm26.035156 0l0 -3.203125q0 -1.984375 0.15625 -2.6875q0.17190552 -0.71875 0.8594055 -1.265625q0.703125 -0.5625 1.640625 -0.5625q0.859375 0 1.546875 0.515625q0.6875 0.5 0.90625 1.21875q0.21875 0.71875 0.21875 2.34375l0 3.640625l1.03125 0q1.953125 0 2.59375 0.484375q0.65625 0.46875 0.65625 1.390625q0 1.96875 -3.28125 1.96875l-1.0 0l0 9.84375q0 1.984375 0.28125 2.71875q0.28125 0.71875 1.515625 0.71875q0.578125 0 1.3125 -0.15625q0.734375 -0.171875 1.09375 -0.171875q0.796875 0 1.296875 0.53125q0.5 0.515625 0.5 1.265625q0 2.609375 -5.53125 2.609375q-2.671875 0 -3.9375 -0.984375q-1.265625 -1.0 -1.5625305 -2.421875q-0.296875 -1.4375 -0.296875 -3.71875l0 -10.234375l-0.703125 0q-2.375 0 -2.375 -1.9375q0 -1.90625 2.484375 -1.90625l0.59375 0zm32.160126 7.75l0 9.71875q0 3.734375 -2.71875 3.734375q-1.21875 0 -1.90625 -0.78125q-0.68743896 -0.796875 -0.68743896 -2.953125l0 -8.515625q0 -3.015625 -0.96875 -4.140625q-0.96875 -1.125 -2.6875 -1.125q-1.515625 0 -2.640625 0.84375q-1.125 0.828125 -1.59375 2.0625q-0.46875 1.234375 -0.46875 4.3125l0 6.171875q0 2.5 -0.71875 3.3125q-0.703125 0.8125 -1.96875 0.8125q-1.234375 0 -1.9375 -0.78125q-0.703125 -0.796875 -0.703125 -3.265625l0 -21.171875q0 -1.921875 0.1875 -2.671875q0.1875 -0.765625 0.84375 -1.234375q0.671875 -0.484375 1.5625 -0.484375q1.015625 0 1.6875 0.546875q0.671875 0.546875 0.859375 1.421875q0.1875 0.859375 0.1875 2.875l0 6.3125q2.671875 -3.21875 6.5 -3.21875q3.234314 0 5.203064 1.984375q1.96875 1.96875 1.96875 6.234375zm20.160156 3.921875l-10.46875 0q0.078125 2.96875 1.625 4.484375q1.5625 1.515625 3.71875 1.515625q2.6875 0 5.046875 -2.34375q0.953125 -0.984375 1.40625 -1.21875q0.46875 -0.234375 1.03125 -0.234375q0.71875 0 1.234375 0.453125q0.53125 0.453125 0.53125 1.109375q0 1.796875 -2.46875 3.78125q-2.453125 1.984375 -6.65625 1.984375q-5.359375 0 -8.125 -3.015625q-2.75 -3.015625 -2.75 -7.828125q0 -4.84375 2.75 -7.828125q2.765625 -3.0 7.6875 -3.0q4.71875 0 7.265625 2.828125q2.5625 2.828125 2.5625 6.15625q0 1.453125 -0.859375 2.3125q-0.84375 0.84375 -3.53125 0.84375zm-10.46875 -3.03125l9.703125 0q-0.09375 -2.65625 -1.46875 -4.046875q-1.359375 -1.390625 -3.375 -1.390625q-4.234375 0 -4.859375 5.4375zm35.98828 -5.5625q2.84375 -3.546875 6.953125 -3.546875q4.109375 0 6.515625 3.09375q2.421875 3.078125 2.421875 7.96875q0 4.65625 -2.375 7.640625q-2.359375 2.96875 -6.515625 2.96875q-3.984375 0 -7.0 -3.3125l0 6.953125q0 2.875 -0.71875 3.578125q-0.703125 0.703125 -1.90625 0.703125q-1.46875 0 -2.078125 -0.96875q-0.609375 -0.96875 -0.609375 -3.46875l0 -21.046875q0 -1.640625 0.140625 -2.40625q0.15625 -0.765625 0.859375 -1.234375q0.703125 -0.46875 1.6875 -0.46875q2.625 0 2.625 2.984375l0 0.5625zm10.5 7.40625q0 -3.515625 -1.484375 -5.203125q-1.46875 -1.6875 -3.4375 -1.6875q-2.296875 0 -3.78125 1.71875q-1.484375 1.71875 -1.484375 4.796875q0 3.21875 1.4375 5.125q1.4375 1.890625 3.859375 1.890625q2.15625 0 3.515625 -1.765625q1.375 -1.765625 1.375 -4.875zm9.703125 6.3125l0 -13.671875q0 -3.59375 2.640625 -3.59375q2.515625 0 2.578125 3.3125q1.65625 -3.3125 4.578125 -3.3125q1.546875 0 3.1875 0.8125q1.65625 0.796875 1.65625 2.203125q0 0.984375 -0.671875 1.625q-0.65625 0.625 -1.40625 0.625q-0.4375 0 -1.5625 -0.34375q-1.125 -0.34375 -1.875 -0.34375q-1.921875 0 -2.859375 1.9375q-0.9375 1.9375 -0.9375 7.46875l0 3.078125q0 2.03125 -0.171875 2.75q-0.15625 0.703125 -0.859375 1.28125q-0.703125 0.578125 -1.625 0.578125q-0.875 0 -1.578125 -0.515625q-0.703125 -0.515625 -0.90625 -1.21875q-0.1875 -0.71875 -0.1875 -2.671875zm26.878906 -17.265625q4.953125 0 7.796875 3.0625q2.84375 3.046875 2.84375 7.765625q0 4.75 -2.890625 7.796875q-2.875 3.046875 -7.625 3.046875q-5.15625 0 -7.953125 -3.078125q-2.796875 -3.09375 -2.796875 -7.765625q0 -4.734375 2.828125 -7.78125q2.84375 -3.046875 7.796875 -3.046875zm0 17.703125q2.421875 0 3.828125 -1.8125q1.421875 -1.828125 1.421875 -5.0625q0 -3.234375 -1.421875 -5.0625q-1.40625 -1.828125 -3.828125 -1.828125q-2.390625 0 -3.8125 1.84375q-1.421875 1.828125 -1.421875 5.046875q0 3.25 1.40625 5.0625q1.421875 1.8125 3.828125 1.8125zm17.535156 -25.40625q1.03125 0 1.796875 0.78125q0.765625 0.78125 0.765625 1.8125q0 1.078125 -0.765625 1.859375q-0.765625 0.765625 -1.796875 0.765625q-1.078125 0 -1.859375 -0.765625q-0.765625 -0.78125 -0.765625 -1.859375q0 -1.046875 0.765625 -1.8125q0.78125 -0.78125 1.859375 -0.78125zm-2.625 28.8125l0 -16.71875q0 -1.96875 0.171875 -2.65625q0.171875 -0.6875 0.84375 -1.203125q0.6875 -0.53125 1.609375 -0.53125q0.859375 0 1.5625 0.484375q0.71875 0.484375 0.890625 1.21875q0.1875 0.734375 0.1875 2.6875l0 16.71875q0 2.96875 -0.3125 4.515625q-0.296875 1.546875 -1.640625 2.75q-1.328125 1.21875 -4.140625 1.21875q-4.9375 0 -4.9375 -2.609375q0 -0.90625 0.578125 -1.53125q0.5625 -0.625 1.4375 -0.625l1.953125 0.125q0.96875 0 1.375 -0.734375q0.421875 -0.71875 0.421875 -3.109375zm25.652344 -8.96875l-10.46875 0q0.078125 2.96875 1.625 4.484375q1.5625 1.515625 3.71875 1.515625q2.6875 0 5.046875 -2.34375q0.953125 -0.984375 1.40625 -1.21875q0.46875 -0.234375 1.03125 -0.234375q0.71875 0 1.234375 0.453125q0.53125 0.453125 0.53125 1.109375q0 1.796875 -2.46875 3.78125q-2.453125 1.984375 -6.65625 1.984375q-5.359375 0 -8.125 -3.015625q-2.75 -3.015625 -2.75 -7.828125q0 -4.84375 2.75 -7.828125q2.765625 -3.0 7.6875 -3.0q4.71875 0 7.265625 2.828125q2.5625 2.828125 2.5625 6.15625q0 1.453125 -0.859375 2.3125q-0.84375 0.84375 -3.53125 0.84375zm-10.46875 -3.03125l9.703125 0q-0.09375 -2.65625 -1.46875 -4.046875q-1.359375 -1.390625 -3.375 -1.390625q-4.234375 0 -4.859375 5.4375zm36.20703 3.640625q0.984375 0 1.625 0.765625q0.640625 0.75 0.640625 1.5625q0 2.15625 -2.59375 4.375q-2.59375 2.21875 -6.953125 2.21875q-5.25 0 -7.9375 -2.96875q-2.671875 -2.984375 -2.671875 -7.75q0 -4.828125 2.765625 -7.890625q2.78125 -3.0625 7.921875 -3.0625q3.984375 0 6.59375 2.078125q2.609375 2.078125 2.609375 4.109375q0 0.96875 -0.703125 1.625q-0.703125 0.65625 -1.671875 0.65625q-1.171875 0 -1.828125 -1.0q-1.46875 -2.21875 -2.609375 -2.8125q-1.125 -0.59375 -2.4375 -0.59375q-2.546875 0 -3.9375 1.96875q-1.390625 1.953125 -1.390625 4.875q0 3.015625 1.453125 4.90625q1.453125 1.890625 3.875 1.890625q1.390625 0 2.5625 -0.640625q1.171875 -0.65625 2.015625 -1.96875q0.859375 -1.328125 1.359375 -1.828125q0.5 -0.515625 1.3125 -0.515625zm7.8007812 -12.28125l0 -3.203125q0 -1.984375 0.15625 -2.6875q0.171875 -0.71875 0.859375 -1.265625q0.703125 -0.5625 1.640625 -0.5625q0.859375 0 1.546875 0.515625q0.6875 0.5 0.90625 1.21875q0.21875 0.71875 0.21875 2.34375l0 3.640625l1.03125 0q1.953125 0 2.59375 0.484375q0.65625 0.46875 0.65625 1.390625q0 1.96875 -3.28125 1.96875l-1.0 0l0 9.84375q0 1.984375 0.28125 2.71875q0.28125 0.71875 1.515625 0.71875q0.578125 0 1.3125 -0.15625q0.734375 -0.171875 1.09375 -0.171875q0.796875 0 1.296875 0.53125q0.5 0.515625 0.5 1.265625q0 2.609375 -5.53125 2.609375q-2.671875 0 -3.9375 -0.984375q-1.265625 -1.0 -1.5625 -2.421875q-0.296875 -1.4375 -0.296875 -3.71875l0 -10.234375l-0.703125 0q-2.375 0 -2.375 -1.9375q0 -1.90625 2.484375 -1.90625l0.59375 0zm16.816406 15.328125q1.1875 0 2.046875 0.859375q0.859375 0.859375 0.859375 2.046875q0 1.21875 -0.859375 2.09375q-0.859375 0.875 -2.046875 0.875q-1.234375 0 -2.109375 -0.859375q-0.859375 -0.875 -0.859375 -2.109375q0 -1.1875 0.859375 -2.046875q0.875 -0.859375 2.109375 -0.859375z" fill-rule="nonzero"/></g></svg>