<svg version="1.1" viewBox="0.0 0.0 960.0 720.0" fill="none" stroke="none" stroke-linecap="square" stroke-miterlimit="10" xmlns:xlink="http://www.w3.org/1999/xlink" xmlns="http://www.w3.org/2000/svg"><clipPath id="p.0"><path d="m0 0l960.0 0l0 720.0l-960.0 0l0 -720.0z" clip-rule="nonzero"/></clipPath><g clip-path="url(#p.0)"><path fill="#000000" fill-opacity="0.0" d="m0 0l960.0 0l0 720.0l-960.0 0z" fill-rule="evenodd"/><path fill="#000000" fill-opacity="0.0" d="m86.54068 51.354332l385.88977 0l0 84.0315l-385.88977 0z" fill-rule="evenodd"/><path fill="#000000" d="m100.66568 65.10745l0 6.609375q0 0.625 -0.046875 0.90625q-0.046875 0.265625 -0.3125 0.484375q-0.25 0.203125 -0.59375 0.203125q-0.34375 0 -0.609375 -0.1875q-0.25 -0.203125 -0.296875 -0.484375q-0.046875 -0.28125 -0.046875 -0.921875l0 -6.609375l-1.765625 0q-0.578125 0 -0.796875 -0.046875q-0.21875 -0.046875 -0.390625 -0.234375q-0.15625 -0.203125 -0.15625 -0.46875q0 -0.203125 0.109375 -0.3906212q0.109375 -0.1875 0.296875 -0.265625q0.1875 -0.09375 0.9375 -0.09375l5.421875 0q0.671875 0 0.859375 0.0625q0.1875 0.046875 0.328125 0.25q0.15625 0.18749619 0.15625 0.4374962q0 0.1875 -0.125 0.390625q-0.109375 0.1875 -0.296875 0.28125q-0.1875 0.078125 -0.921875 0.078125l-1.75 0zm6.3808594 0.984375q1.65625 0 2.59375 1.015625q0.953125 1.015625 0.953125 2.59375q0 1.578125 -0.953125 2.59375q-0.953125 1.015625 -2.546875 1.015625q-1.71875 0 -2.65625 -1.015625q-0.921875 -1.03125 -0.921875 -2.59375q0 -1.578125 0.9375 -2.59375q0.953125 -1.015625 2.59375 -1.015625zm0 5.90625q0.8125 0 1.28125 -0.609375q0.46875 -0.609375 0.46875 -1.6875q0 -1.078125 -0.46875 -1.6875q-0.46875 -0.609375 -1.28125 -0.609375q-0.78125 0 -1.265625 0.625q-0.46875 0.609375 -0.46875 1.671875q0 1.078125 0.46875 1.6875q0.46875 0.609375 1.265625 0.609375zm8.050247 -5.90625q1.65625 0 2.59375 1.015625q0.953125 1.015625 0.953125 2.59375q0 1.578125 -0.953125 2.59375q-0.953125 1.015625 -2.546875 1.015625q-1.71875 0 -2.65625 -1.015625q-0.921875 -1.03125 -0.921875 -2.59375q0 -1.578125 0.9375 -2.59375q0.953125 -1.015625 2.59375 -1.015625zm0 5.90625q0.8125 0 1.28125 -0.609375q0.46875 -0.609375 0.46875 -1.6875q0 -1.078125 -0.46875 -1.6875q-0.46875 -0.609375 -1.28125 -0.609375q-0.78125 0 -1.265625 0.625q-0.46875 0.609375 -0.46875 1.671875q0 1.078125 0.46875 1.6875q0.46875 0.609375 1.265625 0.609375zm18.975784 -3.265625l0 3.0625q0 0.625 -0.0625 0.890625q-0.046875 0.25 -0.28125 0.4375q-0.21875 0.1875 -0.546875 0.1875q-0.3125 0 -0.546875 -0.171875q-0.21875 -0.1875 -0.28125 -0.46875q-0.0625 -0.28125 -0.0625 -0.875l0 -2.59375q0 -1.140625 -0.265625 -1.421875q-0.265625 -0.296875 -0.734375 -0.296875q-0.484375 0 -0.828125 0.265625q-0.328125 0.265625 -0.453125 0.703125q-0.125 0.4375 -0.125 1.375l0 1.96875q0 0.625 -0.046875 0.890625q-0.046875 0.265625 -0.296875 0.453125q-0.234375 0.171875 -0.546875 0.171875q-0.40625 0 -0.640625 -0.265625q-0.234375 -0.28125 -0.234375 -1.25l0 -2.4375q0 -1.046875 -0.15625 -1.453125q-0.15625 -0.421875 -0.828125 -0.421875q-0.671875 0 -1.078125 0.4375q-0.390625 0.4375 -0.390625 1.859375l0 2.015625q0 0.625 -0.046875 0.875q-0.03125 0.234375 -0.265625 0.4375q-0.234375 0.203125 -0.546875 0.203125q-0.296875 0 -0.546875 -0.171875q-0.234375 -0.1875 -0.296875 -0.4375q-0.0625 -0.265625 -0.0625 -0.90625l0 -4.296875q0 -0.625 0.046875 -0.84375q0.0625 -0.21875 0.296875 -0.390625q0.234375 -0.171875 0.5 -0.171875q0.84375 0 0.84375 1.09375q0.890625 -1.09375 2.15625 -1.09375q1.34375 0 1.953125 1.09375q0.90625 -1.09375 2.125 -1.09375q0.921875 0 1.578125 0.515625q0.671875 0.515625 0.671875 2.125zm1.4914856 1.9375l0 -3.109375q0 -0.578125 0.046875 -0.828125q0.046875 -0.265625 0.28125 -0.453125q0.234375 -0.1875 0.5625 -0.1875q0.3125 0 0.546875 0.1875q0.234375 0.171875 0.28125 0.453125q0.0625 0.28125 0.0625 0.859375l0 2.4375q0 1.21875 0.375 1.5625q0.375 0.328125 0.828125 0.328125q0.515625 0 0.890625 -0.28125q0.390625 -0.296875 0.53125 -0.703125q0.140625 -0.40625 0.140625 -1.609375l0 -1.765625q0 -0.5625 0.046875 -0.828125q0.0625 -0.28125 0.296875 -0.453125q0.234375 -0.1875 0.5625 -0.1875q0.296875 0 0.53125 0.1875q0.25 0.171875 0.296875 0.4375q0.046875 0.25 0.046875 0.84375l0 4.390625q0 0.53125 -0.0625 0.78125q-0.046875 0.234375 -0.25 0.40625q-0.203125 0.171875 -0.515625 0.171875q-0.859375 0 -0.828125 -1.21875q-0.890625 1.21875 -2.34375 1.21875q-0.96875 0 -1.65625 -0.5625q-0.671875 -0.578125 -0.671875 -2.078125zm13.722122 -0.328125q0.328125 0 0.53125 0.265625q0.21875 0.25 0.21875 0.515625q0 0.71875 -0.859375 1.453125q-0.859375 0.734375 -2.3125 0.734375q-1.75 0 -2.640625 -0.984375q-0.890625 -1.0 -0.890625 -2.578125q0 -1.609375 0.921875 -2.625q0.921875 -1.03125 2.625 -1.03125q1.328125 0 2.203125 0.703125q0.875 0.6875 0.875 1.359375q0 0.328125 -0.234375 0.546875q-0.234375 0.21875 -0.5625 0.21875q-0.390625 0 -0.609375 -0.328125q-0.484375 -0.75 -0.859375 -0.9375q-0.375 -0.203125 -0.8125 -0.203125q-0.859375 0 -1.328125 0.65625q-0.453125 0.640625 -0.453125 1.625q0 1.0 0.484375 1.640625q0.484375 0.625 1.296875 0.625q0.453125 0 0.84375 -0.21875q0.390625 -0.21875 0.671875 -0.65625q0.28125 -0.4375 0.453125 -0.609375q0.171875 -0.171875 0.4375 -0.171875zm8.259933 -1.515625l0 3.25q0 1.234375 -0.890625 1.234375q-0.421875 0 -0.65625 -0.25q-0.21875 -0.265625 -0.21875 -0.984375l0 -2.84375q0 -1.0 -0.328125 -1.375q-0.3125 -0.375 -0.890625 -0.375q-0.5 0 -0.875 0.28125q-0.375 0.28125 -0.53125 0.6875q-0.15625 0.40625 -0.15625 1.4375l0 2.0625q0 0.828125 -0.234375 1.09375q-0.234375 0.265625 -0.671875 0.265625q-0.40625 0 -0.640625 -0.25q-0.234375 -0.265625 -0.234375 -1.09375l0 -7.046875q0 -0.65625 0.0625 -0.90625q0.0625 -0.24999619 0.28125 -0.4062462q0.21875 -0.15625 0.53125 -0.15625q0.328125 0 0.546875 0.1875q0.234375 0.171875 0.296875 0.4687462q0.0625 0.28125 0.0625 0.953125l0 2.109375q0.890625 -1.078125 2.171875 -1.078125q1.0625 0 1.71875 0.671875q0.65625 0.65625 0.65625 2.0625zm7.4914093 -3.90625l0 6.921875q0 0.65625 -0.0625 0.890625q-0.046875 0.21875 -0.296875 0.40625q-0.234375 0.171875 -0.515625 0.171875q-0.28125 0 -0.53125 -0.171875q-0.25 -0.171875 -0.3125 -0.40625q-0.046875 -0.25 -0.046875 -0.890625l0 -6.921875q0 -0.65625 0.0625 -0.890625q0.0625 -0.23437119 0.296875 -0.4062462q0.234375 -0.171875 0.515625 -0.171875q0.328125 0 0.5625 0.1875q0.234375 0.1875 0.28125 0.4374962q0.046875 0.25 0.046875 0.84375zm6.3306274 7.390625q-1.265625 1.0 -2.484375 1.0q-1.15625 0 -1.78125 -0.578125q-0.609375 -0.59375 -0.609375 -1.4375q0 -0.71875 0.421875 -1.15625q0.421875 -0.453125 0.90625 -0.625q0.5 -0.171875 1.609375 -0.40625q1.125 -0.234375 1.8125 -0.4375q-0.015625 -0.796875 -0.328125 -1.078125q-0.3125 -0.28125 -0.9375 -0.28125q-1.21875 0 -1.59375 0.671875q-0.203125 0.375 -0.375 0.546875q-0.15625 0.15625 -0.453125 0.15625q-0.28125 0 -0.515625 -0.171875q-0.21875 -0.1875 -0.21875 -0.484375q0 -0.6875 0.734375 -1.3125q0.75 -0.625 2.359375 -0.625q1.625 0 2.375 0.5625q0.765625 0.5625 0.71875 2.28125l-0.03125 1.65625q-0.03125 0.78125 0.15625 1.265625q0.1875 0.484375 0.1875 0.75q0 0.28125 -0.25 0.5q-0.25 0.203125 -0.5625 0.203125q-0.546875 0 -1.140625 -1.0zm-0.109375 -2.5625q-0.40625 0.15625 -1.328125 0.34375q-0.90625 0.171875 -1.296875 0.40625q-0.375 0.234375 -0.375 0.6875q0 0.375 0.296875 0.671875q0.3125 0.296875 0.875 0.296875q0.578125 0 1.078125 -0.3125q0.515625 -0.328125 0.625 -0.765625q0.125 -0.453125 0.125 -1.328125zm8.228683 -2.4375l0 -0.25q0 -0.484375 0.234375 -0.71875q0.25 -0.25 0.609375 -0.25q0.40625 0 0.625 0.28125q0.21875 0.28125 0.21875 1.21875l0 4.78125q0 2.109375 -0.90625 2.84375q-0.890625 0.734375 -2.578125 0.734375q-1.515625 0 -2.375 -0.5625q-0.84375 -0.5625 -0.84375 -1.1875q0 -0.328125 0.21875 -0.53125q0.21875 -0.203125 0.53125 -0.203125q0.28125 0 0.4375 0.125q0.171875 0.140625 0.5625 0.640625q0.40625 0.5 1.34375 0.5q0.53125 0 0.96875 -0.171875q0.453125 -0.15625 0.65625 -0.578125q0.21875 -0.40625 0.203125 -2.0q-0.8125 1.171875 -2.21875 1.171875q-1.359375 0 -2.15625 -1.015625q-0.796875 -1.015625 -0.796875 -2.609375q0 -1.578125 0.8125 -2.5q0.8125 -0.9375 2.125 -0.9375q1.421875 0 2.328125 1.21875zm-3.46875 2.359375q0 1.03125 0.453125 1.578125q0.453125 0.546875 1.25 0.546875q0.671875 0 1.171875 -0.53125q0.5 -0.53125 0.5 -1.578125q0 -1.03125 -0.46875 -1.625q-0.453125 -0.609375 -1.234375 -0.609375q-0.75 0 -1.21875 0.5625q-0.453125 0.5625 -0.453125 1.65625z" fill-rule="nonzero"/><path fill="#000000" d="m98.50943 101.43558l0 2.28125q0 1.0625 -0.28125 1.328125q-0.265625 0.265625 -0.6875 0.265625q-0.328125 0 -0.578125 -0.171875q-0.25 -0.1875 -0.3125 -0.453125q-0.0625 -0.265625 -0.0625 -0.96875l0 -6.484375q0 -0.8125 0.109375 -1.109375q0.125 -0.296875 0.40625 -0.40625q0.296875 -0.109375 0.859375 -0.109375l2.328125 0q2.09375 0 2.828125 0.8125q0.734375 0.8125 0.734375 2.0q0 3.015625 -3.5625 3.015625l-1.78125 0zm1.3125 -4.328125l-1.3125 0l0 2.828125l1.3125 0q1.203125 0 1.640625 -0.375q0.4375 -0.390625 0.4375 -1.046875q0 -0.46875 -0.25 -0.828125q-0.234375 -0.359375 -0.65625 -0.46875q-0.40625 -0.109375 -1.171875 -0.109375zm7.2960052 -0.1875l0 6.921875q0 0.65625 -0.0625 0.890625q-0.046875 0.21875 -0.296875 0.40625q-0.234375 0.171875 -0.515625 0.171875q-0.28125 0 -0.53125 -0.171875q-0.25 -0.171875 -0.3125 -0.40625q-0.046875 -0.25 -0.046875 -0.890625l0 -6.921875q0 -0.65625 0.0625 -0.890625q0.0625 -0.234375 0.296875 -0.40625q0.234375 -0.171875 0.515625 -0.171875q0.328125 0 0.5625 0.1875q0.234375 0.1875 0.28125 0.4375q0.046875 0.25 0.046875 0.84375zm6.7993774 5.21875l-3.484375 0q0.03125 0.984375 0.546875 1.5q0.515625 0.5 1.234375 0.5q0.890625 0 1.671875 -0.78125q0.328125 -0.328125 0.46875 -0.40625q0.15625 -0.078125 0.359375 -0.078125q0.234375 0 0.40625 0.15625q0.171875 0.140625 0.171875 0.375q0 0.59375 -0.828125 1.25q-0.8125 0.65625 -2.21875 0.65625q-1.78125 0 -2.703125 -1.0q-0.921875 -1.0 -0.921875 -2.609375q0 -1.609375 0.921875 -2.609375q0.921875 -1.0 2.5625 -1.0q1.578125 0 2.421875 0.953125q0.859375 0.9375 0.859375 2.046875q0 0.484375 -0.28125 0.765625q-0.28125 0.28125 -1.1875 0.28125zm-3.484375 -1.0l3.234375 0q-0.03125 -0.890625 -0.5 -1.359375q-0.453125 -0.46875 -1.109375 -0.46875q-1.421875 0 -1.625 1.828125zm10.935715 3.171875q-1.265625 1.0 -2.484375 1.0q-1.15625 0 -1.78125 -0.578125q-0.609375 -0.59375 -0.609375 -1.4375q0 -0.71875 0.421875 -1.15625q0.421875 -0.453125 0.90625 -0.625q0.5 -0.171875 1.609375 -0.40625q1.125 -0.234375 1.8125 -0.4375q-0.015625 -0.796875 -0.328125 -1.078125q-0.3125 -0.28125 -0.9375 -0.28125q-1.21875 0 -1.59375 0.671875q-0.203125 0.375 -0.375 0.546875q-0.15625 0.15625 -0.453125 0.15625q-0.28125 0 -0.515625 -0.171875q-0.21875 -0.1875 -0.21875 -0.484375q0 -0.6875 0.734375 -1.3125q0.75 -0.625 2.359375 -0.625q1.625 0 2.375 0.5625q0.765625 0.5625 0.71875 2.28125l-0.03125 1.65625q-0.03125 0.78125 0.15625 1.265625q0.1875 0.484375 0.1875 0.75q0 0.28125 -0.25 0.5q-0.25 0.203125 -0.5625 0.203125q-0.546875 0 -1.140625 -1.0zm-0.109375 -2.5625q-0.40625 0.15625 -1.328125 0.34375q-0.90625 0.171875 -1.296875 0.40625q-0.375 0.234375 -0.375 0.6875q0 0.375 0.296875 0.671875q0.3125 0.296875 0.875 0.296875q0.578125 0 1.078125 -0.3125q0.515625 -0.328125 0.625 -0.765625q0.125 -0.453125 0.125 -1.328125zm4.8888397 -1.8125q0 0.34375 0.359375 0.546875q0.359375 0.1875 1.59375 0.5q2.421875 0.59375 2.421875 2.015625q0 1.125 -0.8125 1.71875q-0.8125 0.59375 -2.28125 0.59375q-1.484375 0 -2.234375 -0.609375q-0.75 -0.609375 -0.75 -1.296875q0 -0.28125 0.203125 -0.484375q0.203125 -0.21875 0.515625 -0.21875q0.421875 0 0.734375 0.515625q0.34375 0.578125 0.765625 0.765625q0.421875 0.1875 0.90625 0.1875q0.53125 0 0.859375 -0.234375q0.34375 -0.25 0.34375 -0.609375q0 -0.328125 -0.28125 -0.578125q-0.28125 -0.25 -1.546875 -0.53125q-1.265625 -0.296875 -1.84375 -0.8125q-0.578125 -0.53125 -0.578125 -1.25q0 -0.8125 0.703125 -1.4375q0.703125 -0.625 2.125 -0.625q1.28125 0 2.046875 0.53125q0.78125 0.53125 0.78125 1.09375q0 0.296875 -0.203125 0.5q-0.1875 0.203125 -0.53125 0.203125q-0.515625 0 -0.9375 -0.59375q-0.40625 -0.59375 -1.234375 -0.59375q-0.453125 0 -0.796875 0.1875q-0.328125 0.1875 -0.328125 0.515625zm10.833115 2.203125l-3.484375 0q0.03125 0.984375 0.546875 1.5q0.515625 0.5 1.234375 0.5q0.890625 0 1.671875 -0.78125q0.328125 -0.328125 0.46875 -0.40625q0.15625 -0.078125 0.359375 -0.078125q0.234375 0 0.40625 0.15625q0.171875 0.140625 0.171875 0.375q0 0.59375 -0.828125 1.25q-0.8125 0.65625 -2.21875 0.65625q-1.78125 0 -2.703125 -1.0q-0.921875 -1.0 -0.921875 -2.609375q0 -1.609375 0.921875 -2.609375q0.921875 -1.0 2.5625 -1.0q1.578125 0 2.421875 0.953125q0.859375 0.9375 0.859375 2.046875q0 0.484375 -0.28125 0.765625q-0.28125 0.28125 -1.1875 0.28125zm-3.484375 -1.0l3.234375 0q-0.03125 -0.890625 -0.5 -1.359375q-0.453125 -0.46875 -1.109375 -0.46875q-1.421875 0 -1.625 1.828125zm11.986252 -1.859375q0.953125 -1.1875 2.328125 -1.1875q1.359375 0 2.15625 1.03125q0.8125 1.03125 0.8125 2.65625q0 1.546875 -0.796875 2.546875q-0.78125 0.984375 -2.171875 0.984375q-1.328125 0 -2.328125 -1.09375l0 2.3125q0 0.953125 -0.234375 1.1875q-0.234375 0.234375 -0.640625 0.234375q-0.484375 0 -0.6875 -0.328125q-0.203125 -0.3125 -0.203125 -1.140625l0 -7.015625q0 -0.546875 0.046875 -0.796875q0.046875 -0.265625 0.28125 -0.421875q0.234375 -0.15625 0.5625 -0.15625q0.875 0 0.875 1.0l0 0.1875zm3.5 2.46875q0 -1.171875 -0.5 -1.734375q-0.484375 -0.5625 -1.140625 -0.5625q-0.765625 0 -1.265625 0.578125q-0.484375 0.5625 -0.484375 1.59375q0 1.078125 0.46875 1.703125q0.484375 0.625 1.296875 0.625q0.71875 0 1.171875 -0.578125q0.453125 -0.59375 0.453125 -1.625zm5.017578 -4.828125l0 6.921875q0 0.65625 -0.0625 0.890625q-0.046875 0.21875 -0.296875 0.40625q-0.234375 0.171875 -0.515625 0.171875q-0.28125 0 -0.53125 -0.171875q-0.25 -0.171875 -0.3125 -0.40625q-0.046875 -0.25 -0.046875 -0.890625l0 -6.921875q0 -0.65625 0.0625 -0.890625q0.0625 -0.234375 0.296875 -0.40625q0.234375 -0.171875 0.515625 -0.171875q0.328125 0 0.5625 0.1875q0.234375 0.1875 0.28125 0.4375q0.046875 0.25 0.046875 0.84375zm6.3306274 7.390625q-1.265625 1.0 -2.484375 1.0q-1.15625 0 -1.78125 -0.578125q-0.609375 -0.59375 -0.609375 -1.4375q0 -0.71875 0.421875 -1.15625q0.421875 -0.453125 0.90625 -0.625q0.5 -0.171875 1.609375 -0.40625q1.125 -0.234375 1.8125 -0.4375q-0.015625 -0.796875 -0.328125 -1.078125q-0.3125 -0.28125 -0.9375 -0.28125q-1.21875 0 -1.59375 0.671875q-0.203125 0.375 -0.375 0.546875q-0.15625 0.15625 -0.453125 0.15625q-0.28125 0 -0.515625 -0.171875q-0.21875 -0.1875 -0.21875 -0.484375q0 -0.6875 0.734375 -1.3125q0.75 -0.625 2.359375 -0.625q1.625 0 2.375 0.5625q0.765625 0.5625 0.71875 2.28125l-0.03125 1.65625q-0.03125 0.78125 0.15625 1.265625q0.1875 0.484375 0.1875 0.75q0 0.28125 -0.25 0.5q-0.25 0.203125 -0.5625 0.203125q-0.546875 0 -1.140625 -1.0zm-0.109375 -2.5625q-0.40625 0.15625 -1.328125 0.34375q-0.90625 0.171875 -1.296875 0.40625q-0.375 0.234375 -0.375 0.6875q0 0.375 0.296875 0.671875q0.3125 0.296875 0.875 0.296875q0.578125 0 1.078125 -0.3125q0.515625 -0.328125 0.625 -0.765625q0.125 -0.453125 0.125 -1.328125zm5.1661835 3.390625l-2.171875 -5.5q-0.203125 -0.53125 -0.203125 -0.734375q0 -0.3125 0.25 -0.5625q0.265625 -0.25 0.609375 -0.25q0.296875 0 0.5 0.1875q0.21875 0.1875 0.421875 0.75l1.5 4.375l1.421875 -4.046875q0.28125 -0.796875 0.4375 -1.03125q0.171875 -0.234375 0.578125 -0.234375q0.375 0 0.578125 0.25q0.21875 0.234375 0.21875 0.5q0 0.296875 -0.21875 0.84375l-2.3125 6.0625q-0.46875 1.21875 -0.96875 1.703125q-0.484375 0.5 -1.6875 0.5q-1.546875 0 -1.546875 -0.78125q0 -0.265625 0.171875 -0.4375q0.1875 -0.171875 0.484375 -0.171875q0.03125 0 0.28125 0.015625q0.265625 0.015625 0.3125 0.015625q0.5 0 0.71875 -0.234375q0.234375 -0.234375 0.46875 -0.8125l0.15625 -0.40625zm12.477402 -7.046875q1.65625 0 2.59375 1.015625q0.953125 1.015625 0.953125 2.59375q0 1.578125 -0.953125 2.59375q-0.953125 1.015625 -2.546875 1.015625q-1.71875 0 -2.65625 -1.015625q-0.921875 -1.03125 -0.921875 -2.59375q0 -1.578125 0.9375 -2.59375q0.953125 -1.015625 2.59375 -1.015625zm0 5.90625q0.8125 0 1.28125 -0.609375q0.46875 -0.609375 0.46875 -1.6875q0 -1.078125 -0.46875 -1.6875q-0.46875 -0.609375 -1.28125 -0.609375q-0.78125 0 -1.265625 0.625q-0.46875 0.609375 -0.46875 1.671875q0 1.078125 0.46875 1.6875q0.46875 0.609375 1.265625 0.609375zm11.222122 -3.0625l0 2.90625q0 0.578125 -0.046875 0.828125q-0.046875 0.25 -0.28125 0.453125q-0.234375 0.1875 -0.546875 0.1875q-0.296875 0 -0.546875 -0.171875q-0.234375 -0.171875 -0.296875 -0.4375q-0.0625 -0.28125 -0.0625 -0.859375l0 -2.546875q0 -1.078125 -0.328125 -1.4375q-0.3125 -0.375 -0.875 -0.375q-0.5 0 -0.890625 0.296875q-0.375 0.28125 -0.53125 0.734375q-0.15625 0.4375 -0.15625 1.5l0 1.828125q0 0.5625 -0.046875 0.828125q-0.046875 0.25 -0.28125 0.453125q-0.234375 0.1875 -0.546875 0.1875q-0.296875 0 -0.546875 -0.171875q-0.25 -0.171875 -0.296875 -0.4375q-0.046875 -0.28125 -0.046875 -0.859375l0 -4.375q0 -0.59375 0.046875 -0.828125q0.0625 -0.234375 0.28125 -0.390625q0.21875 -0.15625 0.5 -0.15625q0.265625 0 0.546875 0.203125q0.28125 0.203125 0.28125 1.0q0.890625 -1.203125 2.296875 -1.203125q0.53125 0 1.046875 0.203125q0.53125 0.203125 0.859375 0.65625q0.328125 0.453125 0.390625 0.9375q0.078125 0.484375 0.078125 1.046875zm6.0226593 -2.6875l0 -1.0625q0 -0.65625 0.0625 -0.890625q0.0625 -0.25 0.28125 -0.421875q0.234375 -0.1875 0.546875 -0.1875q0.28125 0 0.515625 0.171875q0.234375 0.15625 0.296875 0.40625q0.078125 0.234375 0.078125 0.78125l0 1.203125l0.34375 0q0.65625 0 0.859375 0.15625q0.21875 0.15625 0.21875 0.46875q0 0.65625 -1.09375 0.65625l-0.328125 0l0 3.28125q0 0.671875 0.09375 0.90625q0.09375 0.234375 0.5 0.234375q0.203125 0 0.4375 -0.046875q0.25 -0.0625 0.375 -0.0625q0.265625 0 0.421875 0.1875q0.171875 0.171875 0.171875 0.421875q0 0.859375 -1.84375 0.859375q-0.890625 0 -1.3125 -0.328125q-0.421875 -0.328125 -0.53125 -0.796875q-0.09375 -0.484375 -0.09375 -1.25l0 -3.40625l-0.234375 0q-0.78125 0 -0.78125 -0.640625q0 -0.640625 0.828125 -0.640625l0.1875 0zm4.374466 4.421875l0 -3.109375q0 -0.578125 0.046875 -0.828125q0.046875 -0.265625 0.28125 -0.453125q0.234375 -0.1875 0.5625 -0.1875q0.3125 0 0.546875 0.1875q0.234375 0.171875 0.28125 0.453125q0.0625 0.28125 0.0625 0.859375l0 2.4375q0 1.21875 0.375 1.5625q0.375 0.328125 0.828125 0.328125q0.515625 0 0.890625 -0.28125q0.390625 -0.296875 0.53125 -0.703125q0.140625 -0.40625 0.140625 -1.609375l0 -1.765625q0 -0.5625 0.046875 -0.828125q0.0625 -0.28125 0.296875 -0.453125q0.234375 -0.1875 0.5625 -0.1875q0.296875 0 0.53125 0.1875q0.25 0.171875 0.296875 0.4375q0.046875 0.25 0.046875 0.84375l0 4.390625q0 0.53125 -0.0625 0.78125q-0.046875 0.234375 -0.25 0.40625q-0.203125 0.171875 -0.515625 0.171875q-0.859375 0 -0.828125 -1.21875q-0.890625 1.21875 -2.34375 1.21875q-0.96875 0 -1.65625 -0.5625q-0.671875 -0.578125 -0.671875 -2.078125zm8.097122 1.171875l0 -4.546875q0 -1.203125 0.875 -1.203125q0.84375 0 0.859375 1.109375q0.5625 -1.109375 1.53125 -1.109375q0.515625 0 1.0625 0.28125q0.546875 0.265625 0.546875 0.734375q0 0.3125 -0.21875 0.53125q-0.21875 0.21875 -0.46875 0.21875q-0.140625 0 -0.515625 -0.109375q-0.375 -0.125 -0.640625 -0.125q-0.625 0 -0.9375 0.640625q-0.3125 0.640625 -0.3125 2.484375l0 1.03125q0 0.671875 -0.0625 0.921875q-0.046875 0.234375 -0.28125 0.421875q-0.234375 0.1875 -0.546875 0.1875q-0.296875 0 -0.53125 -0.171875q-0.234375 -0.171875 -0.296875 -0.40625q-0.0625 -0.234375 -0.0625 -0.890625zm7.46257 0.28125l0 0.171875q0 1.015625 -0.875 1.015625q-0.34375 0 -0.578125 -0.171875q-0.21875 -0.171875 -0.265625 -0.421875q-0.046875 -0.25 -0.046875 -0.78125l0 -7.0q0 -0.609375 0.046875 -0.890625q0.0625 -0.28125 0.296875 -0.4375q0.25 -0.15625 0.53125 -0.15625q0.40625 0 0.640625 0.234375q0.25 0.234375 0.25 1.1875l0 2.3125q1.0 -1.09375 2.34375 -1.09375q1.375 0 2.15625 0.984375q0.796875 0.984375 0.796875 2.53125q0 1.640625 -0.8125 2.671875q-0.796875 1.03125 -2.171875 1.03125q-1.390625 0 -2.3125 -1.1875zm0.09375 -2.34375q0 1.03125 0.5 1.609375q0.5 0.5625 1.25 0.5625q0.640625 0 1.140625 -0.546875q0.515625 -0.546875 0.515625 -1.75q0 -1.03125 -0.46875 -1.609375q-0.453125 -0.59375 -1.171875 -0.59375q-0.8125 0 -1.296875 0.640625q-0.46875 0.625 -0.46875 1.6875zm9.720703 -3.6875q1.65625 0 2.59375 1.015625q0.953125 1.015625 0.953125 2.59375q0 1.578125 -0.953125 2.59375q-0.953125 1.015625 -2.546875 1.015625q-1.71875 0 -2.65625 -1.015625q-0.921875 -1.03125 -0.921875 -2.59375q0 -1.578125 0.9375 -2.59375q0.953125 -1.015625 2.59375 -1.015625zm0 5.90625q0.8125 0 1.28125 -0.609375q0.46875 -0.609375 0.46875 -1.6875q0 -1.078125 -0.46875 -1.6875q-0.46875 -0.609375 -1.28125 -0.609375q-0.78125 0 -1.265625 0.625q-0.46875 0.609375 -0.46875 1.671875q0 1.078125 0.46875 1.6875q0.46875 0.609375 1.265625 0.609375zm7.222122 -0.828125l1.046875 -3.671875q0.203125 -0.6875 0.296875 -0.890625q0.109375 -0.21875 0.34375 -0.359375q0.234375 -0.15625 0.53125 -0.15625q0.46875 0 0.6875 0.25q0.21875 0.25 0.5 1.15625l1.0625 3.671875l1.15625 -3.96875q0.1875 -0.625 0.34375 -0.859375q0.171875 -0.25 0.59375 -0.25q0.296875 0 0.53125 0.234375q0.25 0.21875 0.25 0.515625q0 0.234375 -0.203125 0.8125l-1.453125 4.265625q-0.234375 0.671875 -0.359375 0.890625q-0.125 0.21875 -0.359375 0.359375q-0.21875 0.140625 -0.5 0.140625q-0.5625 0 -0.796875 -0.328125q-0.21875 -0.328125 -0.453125 -1.125l-1.0 -3.453125l-0.984375 3.453125q-0.1875 0.671875 -0.3125 0.90625q-0.109375 0.234375 -0.359375 0.390625q-0.25 0.15625 -0.546875 0.15625q-0.28125 0 -0.53125 -0.140625q-0.25 -0.125 -0.375 -0.34375q-0.109375 -0.234375 -0.34375 -0.90625l-1.453125 -4.265625q-0.1875 -0.5625 -0.1875 -0.8125q0 -0.296875 0.21875 -0.515625q0.234375 -0.234375 0.5625 -0.234375q0.40625 0 0.5625 0.234375q0.171875 0.234375 0.359375 0.875l1.171875 3.96875zm12.878586 1.140625q-1.265625 1.0 -2.484375 1.0q-1.15625 0 -1.78125 -0.578125q-0.609375 -0.59375 -0.609375 -1.4375q0 -0.71875 0.421875 -1.15625q0.421875 -0.453125 0.90625 -0.625q0.5 -0.171875 1.609375 -0.40625q1.125 -0.234375 1.8125 -0.4375q-0.015625 -0.796875 -0.328125 -1.078125q-0.3125 -0.28125 -0.9375 -0.28125q-1.21875 0 -1.59375 0.671875q-0.203125 0.375 -0.375 0.546875q-0.15625 0.15625 -0.453125 0.15625q-0.28125 0 -0.515625 -0.171875q-0.21875 -0.1875 -0.21875 -0.484375q0 -0.6875 0.734375 -1.3125q0.75 -0.625 2.359375 -0.625q1.625 0 2.375 0.5625q0.765625 0.5625 0.71875 2.28125l-0.03125 1.65625q-0.03125 0.78125 0.15625 1.265625q0.1875 0.484375 0.1875 0.75q0 0.28125 -0.25 0.5q-0.25 0.203125 -0.5625 0.203125q-0.546875 0 -1.140625 -1.0zm-0.109375 -2.5625q-0.40625 0.15625 -1.328125 0.34375q-0.90625 0.171875 -1.296875 0.40625q-0.375 0.234375 -0.375 0.6875q0 0.375 0.296875 0.671875q0.3125 0.296875 0.875 0.296875q0.578125 0 1.078125 -0.3125q0.515625 -0.328125 0.625 -0.765625q0.125 -0.453125 0.125 -1.328125zm3.5294647 2.09375l0 -4.546875q0 -1.203125 0.875 -1.203125q0.84375 0 0.859375 1.109375q0.5625 -1.109375 1.53125 -1.109375q0.515625 0 1.0625 0.28125q0.546875 0.265625 0.546875 0.734375q0 0.3125 -0.21875 0.53125q-0.21875 0.21875 -0.46875 0.21875q-0.140625 0 -0.515625 -0.109375q-0.375 -0.125 -0.640625 -0.125q-0.625 0 -0.9375 0.640625q-0.3125 0.640625 -0.3125 2.484375l0 1.03125q0 0.671875 -0.0625 0.921875q-0.046875 0.234375 -0.28125 0.421875q-0.234375 0.1875 -0.546875 0.1875q-0.296875 0 -0.53125 -0.171875q-0.234375 -0.171875 -0.296875 -0.40625q-0.0625 -0.234375 -0.0625 -0.890625zm7.255539 -4.5625q0.953125 -1.1875 2.328125 -1.1875q1.359375 0 2.15625 1.03125q0.8125 1.03125 0.8125 2.65625q0 1.546875 -0.796875 2.546875q-0.78125 0.984375 -2.171875 0.984375q-1.328125 0 -2.328125 -1.09375l0 2.3125q0 0.953125 -0.234375 1.1875q-0.234375 0.234375 -0.640625 0.234375q-0.484375 0 -0.6875 -0.328125q-0.203125 -0.3125 -0.203125 -1.140625l0 -7.015625q0 -0.546875 0.046875 -0.796875q0.046875 -0.265625 0.28125 -0.421875q0.234375 -0.15625 0.5625 -0.15625q0.875 0 0.875 1.0l0 0.1875zm3.5 2.46875q0 -1.171875 -0.5 -1.734375q-0.484375 -0.5625 -1.140625 -0.5625q-0.765625 0 -1.265625 0.578125q-0.484375 0.5625 -0.484375 1.59375q0 1.078125 0.46875 1.703125q0.484375 0.625 1.296875 0.625q0.71875 0 1.171875 -0.578125q0.453125 -0.59375 0.453125 -1.625zm7.48999 -3.5l0 -1.0625q0 -0.65625 0.0625 -0.890625q0.0625 -0.25 0.28125 -0.421875q0.234375 -0.1875 0.546875 -0.1875q0.28125 0 0.515625 0.171875q0.234375 0.15625 0.296875 0.40625q0.078125 0.234375 0.078125 0.78125l0 1.203125l0.34375 0q0.65625 0 0.859375 0.15625q0.21875 0.15625 0.21875 0.46875q0 0.65625 -1.09375 0.65625l-0.328125 0l0 3.28125q0 0.671875 0.09375 0.90625q0.09375 0.234375 0.5 0.234375q0.203125 0 0.4375 -0.046875q0.25 -0.0625 0.375 -0.0625q0.265625 0 0.421875 0.1875q0.171875 0.171875 0.171875 0.421875q0 0.859375 -1.84375 0.859375q-0.890625 0 -1.3125 -0.328125q-0.421875 -0.328125 -0.53125 -0.796875q-0.09375 -0.484375 -0.09375 -1.25l0 -3.40625l-0.234375 0q-0.78125 0 -0.78125 -0.640625q0 -0.640625 0.828125 -0.640625l0.1875 0zm7.530731 -0.15625q1.65625 0 2.59375 1.015625q0.953125 1.015625 0.953125 2.59375q0 1.578125 -0.953125 2.59375q-0.953125 1.015625 -2.546875 1.015625q-1.71875 0 -2.65625 -1.015625q-0.921875 -1.03125 -0.921875 -2.59375q0 -1.578125 0.9375 -2.59375q0.953125 -1.015625 2.59375 -1.015625zm0 5.90625q0.8125 0 1.28125 -0.609375q0.46875 -0.609375 0.46875 -1.6875q0 -1.078125 -0.46875 -1.6875q-0.46875 -0.609375 -1.28125 -0.609375q-0.78125 0 -1.265625 0.625q-0.46875 0.609375 -0.46875 1.671875q0 1.078125 0.46875 1.6875q0.46875 0.609375 1.265625 0.609375z" fill-rule="nonzero"/><path fill="#000000" d="m96.44693 119.841835l0 -4.546875q0 -1.203125 0.875 -1.203125q0.84375 0 0.859375 1.109375q0.5625 -1.109375 1.53125 -1.109375q0.515625 0 1.0625 0.28125q0.546875 0.265625 0.546875 0.734375q0 0.3125 -0.21875 0.53125q-0.21875 0.21875 -0.46875 0.21875q-0.140625 0 -0.515625 -0.109375q-0.375 -0.125 -0.640625 -0.125q-0.625 0 -0.9375 0.640625q-0.3125 0.640625 -0.3125 2.484375l0 1.03125q0 0.671875 -0.0625 0.921875q-0.046875 0.234375 -0.28125 0.421875q-0.234375 0.1875 -0.546875 0.1875q-0.296875 0 -0.53125 -0.171875q-0.234375 -0.171875 -0.296875 -0.40625q-0.0625 -0.234375 -0.0625 -0.890625zm10.474289 -1.703125l-3.484375 0q0.03125 0.984375 0.546875 1.5q0.515625 0.5 1.234375 0.5q0.890625 0 1.671875 -0.78125q0.328125 -0.328125 0.46875 -0.40625q0.15625 -0.078125 0.359375 -0.078125q0.234375 0 0.40625 0.15625q0.171875 0.140625 0.171875 0.375q0 0.59375 -0.828125 1.25q-0.8125 0.65625 -2.21875 0.65625q-1.78125 0 -2.703125 -1.0q-0.921875 -1.0 -0.921875 -2.609375q0 -1.609375 0.921875 -2.609375q0.921875 -1.0 2.5625 -1.0q1.578125 0 2.421875 0.953125q0.859375 0.9375 0.859375 2.046875q0 0.484375 -0.28125 0.765625q-0.28125 0.28125 -1.1875 0.28125zm-3.484375 -1.0l3.234375 0q-0.03125 -0.890625 -0.5 -1.359375q-0.453125 -0.46875 -1.109375 -0.46875q-1.421875 0 -1.625 1.828125zm11.29509 3.15625l0 -0.171875q-0.90625 1.1875 -2.3125 1.1875q-1.359375 0 -2.171875 -1.03125q-0.796875 -1.03125 -0.796875 -2.671875q0 -1.546875 0.78125 -2.53125q0.78125 -0.984375 2.171875 -0.984375q1.34375 0 2.328125 1.09375l0 -2.3125q0 -0.953125 0.234375 -1.1875q0.25 -0.234375 0.671875 -0.234375q0.28125 0 0.515625 0.171875q0.25 0.15625 0.296875 0.421875q0.0625 0.265625 0.0625 0.890625l0 7.0q0 0.59375 -0.0625 0.84375q-0.0625 0.25 -0.3125 0.390625q-0.234375 0.140625 -0.515625 0.140625q-0.890625 0 -0.890625 -1.015625zm-3.484375 -2.640625q0 1.203125 0.5 1.75q0.5 0.546875 1.15625 0.546875q0.75 0 1.234375 -0.5625q0.5 -0.578125 0.5 -1.609375q0 -1.0625 -0.484375 -1.703125q-0.46875 -0.640625 -1.265625 -0.640625q-0.71875 0 -1.1875 0.59375q-0.453125 0.59375 -0.453125 1.625zm6.908203 1.015625l0 -3.109375q0 -0.578125 0.046875 -0.828125q0.046875 -0.265625 0.28125 -0.453125q0.234375 -0.1875 0.5625 -0.1875q0.3125 0 0.546875 0.1875q0.234375 0.171875 0.28125 0.453125q0.0625 0.28125 0.0625 0.859375l0 2.4375q0 1.21875 0.375 1.5625q0.375 0.328125 0.828125 0.328125q0.515625 0 0.890625 -0.28125q0.390625 -0.296875 0.53125 -0.703125q0.140625 -0.40625 0.140625 -1.609375l0 -1.765625q0 -0.5625 0.046875 -0.828125q0.0625 -0.28125 0.296875 -0.453125q0.234375 -0.1875 0.5625 -0.1875q0.296875 0 0.53125 0.1875q0.25 0.171875 0.296875 0.4375q0.046875 0.25 0.046875 0.84375l0 4.390625q0 0.53125 -0.0625 0.78125q-0.046875 0.234375 -0.25 0.40625q-0.203125 0.171875 -0.515625 0.171875q-0.859375 0 -0.828125 -1.21875q-0.890625 1.21875 -2.34375 1.21875q-0.96875 0 -1.65625 -0.5625q-0.671875 -0.578125 -0.671875 -2.078125zm13.722122 -0.328125q0.328125 0 0.53125 0.265625q0.21875 0.25 0.21875 0.515625q0 0.71875 -0.859375 1.453125q-0.859375 0.734375 -2.3125 0.734375q-1.75 0 -2.640625 -0.984375q-0.890625 -1.0 -0.890625 -2.578125q0 -1.609375 0.921875 -2.625q0.921875 -1.03125 2.625 -1.03125q1.328125 0 2.203125 0.703125q0.875 0.6875 0.875 1.359375q0 0.328125 -0.234375 0.546875q-0.234375 0.21875 -0.5625 0.21875q-0.390625 0 -0.609375 -0.328125q-0.484375 -0.75 -0.859375 -0.9375q-0.375 -0.203125 -0.8125 -0.203125q-0.859375 0 -1.328125 0.65625q-0.453125 0.640625 -0.453125 1.625q0 1.0 0.484375 1.640625q0.484375 0.625 1.296875 0.625q0.453125 0 0.84375 -0.21875q0.390625 -0.21875 0.671875 -0.65625q0.28125 -0.4375 0.453125 -0.609375q0.171875 -0.171875 0.4375 -0.171875zm7.2638397 -0.203125l-3.484375 0q0.03125 0.984375 0.546875 1.5q0.515625 0.5 1.234375 0.5q0.890625 0 1.671875 -0.78125q0.328125 -0.328125 0.46875 -0.40625q0.15625 -0.078125 0.359375 -0.078125q0.234375 0 0.40625 0.15625q0.171875 0.140625 0.171875 0.375q0 0.59375 -0.828125 1.25q-0.8125 0.65625 -2.21875 0.65625q-1.78125 0 -2.703125 -1.0q-0.921875 -1.0 -0.921875 -2.609375q0 -1.609375 0.921875 -2.609375q0.921875 -1.0 2.5625 -1.0q1.578125 0 2.421875 0.953125q0.859375 0.9375 0.859375 2.046875q0 0.484375 -0.28125 0.765625q-0.28125 0.28125 -1.1875 0.28125zm-3.484375 -1.0l3.234375 0q-0.03125 -0.890625 -0.5 -1.359375q-0.453125 -0.46875 -1.109375 -0.46875q-1.421875 0 -1.625 1.828125zm12.173752 -4.21875l0 6.921875q0 0.65625 -0.0625 0.890625q-0.046875 0.21875 -0.296875 0.40625q-0.234375 0.171875 -0.515625 0.171875q-0.28125 0 -0.53125 -0.171875q-0.25 -0.171875 -0.3125 -0.40625q-0.046875 -0.25 -0.046875 -0.890625l0 -6.921875q0 -0.65625 0.0625 -0.890625q0.0625 -0.234375 0.296875 -0.40625q0.234375 -0.171875 0.515625 -0.171875q0.328125 0 0.5625 0.1875q0.234375 0.1875 0.28125 0.4375q0.046875 0.25 0.046875 0.84375zm6.3306274 7.390625q-1.265625 1.0 -2.484375 1.0q-1.15625 0 -1.78125 -0.578125q-0.609375 -0.59375 -0.609375 -1.4375q0 -0.71875 0.421875 -1.15625q0.421875 -0.453125 0.90625 -0.625q0.5 -0.171875 1.609375 -0.40625q1.125 -0.234375 1.8125 -0.4375q-0.015625 -0.796875 -0.328125 -1.078125q-0.3125 -0.28125 -0.9375 -0.28125q-1.21875 0 -1.59375 0.671875q-0.203125 0.375 -0.375 0.546875q-0.15625 0.15625 -0.453125 0.15625q-0.28125 0 -0.515625 -0.171875q-0.21875 -0.1875 -0.21875 -0.484375q0 -0.6875 0.734375 -1.3125q0.75 -0.625 2.359375 -0.625q1.625 0 2.375 0.5625q0.765625 0.5625 0.71875 2.28125l-0.03125 1.65625q-0.03125 0.78125 0.15625 1.265625q0.1875 0.484375 0.1875 0.75q0 0.28125 -0.25 0.5q-0.25 0.203125 -0.5625 0.203125q-0.546875 0 -1.140625 -1.0zm-0.109375 -2.5625q-0.40625 0.15625 -1.328125 0.34375q-0.90625 0.171875 -1.296875 0.40625q-0.375 0.234375 -0.375 0.6875q0 0.375 0.296875 0.671875q0.3125 0.296875 0.875 0.296875q0.578125 0 1.078125 -0.3125q0.515625 -0.328125 0.625 -0.765625q0.125 -0.453125 0.125 -1.328125zm8.228683 -2.4375l0 -0.25q0 -0.484375 0.234375 -0.71875q0.25 -0.25 0.609375 -0.25q0.40625 0 0.625 0.28125q0.21875 0.28125 0.21875 1.21875l0 4.78125q0 2.109375 -0.90625 2.84375q-0.890625 0.734375 -2.578125 0.734375q-1.515625 0 -2.375 -0.5625q-0.84375 -0.5625 -0.84375 -1.1875q0 -0.328125 0.21875 -0.53125q0.21875 -0.203125 0.53125 -0.203125q0.28125 0 0.4375 0.125q0.171875 0.140625 0.5625 0.640625q0.40625 0.5 1.34375 0.5q0.53125 0 0.96875 -0.171875q0.453125 -0.15625 0.65625 -0.578125q0.21875 -0.40625 0.203125 -2.0q-0.8125 1.171875 -2.21875 1.171875q-1.359375 0 -2.15625 -1.015625q-0.796875 -1.015625 -0.796875 -2.609375q0 -1.578125 0.8125 -2.5q0.8125 -0.9375 2.125 -0.9375q1.421875 0 2.328125 1.21875zm-3.46875 2.359375q0 1.03125 0.453125 1.578125q0.453125 0.546875 1.25 0.546875q0.671875 0 1.171875 -0.53125q0.5 -0.53125 0.5 -1.578125q0 -1.03125 -0.46875 -1.625q-0.453125 -0.609375 -1.234375 -0.609375q-0.75 0 -1.21875 0.5625q-0.453125 0.5625 -0.453125 1.65625zm13.755615 6.28125q-0.484375 0 -0.734375 -0.1875q-0.25 -0.171875 -0.859375 -1.15625q-0.59375 -0.984375 -0.984375 -2.28125q-0.375 -1.296875 -0.375 -2.625q0 -1.421875 0.4375 -2.796875q0.4375 -1.390625 1.015625 -2.28125q0.59375 -0.90625 0.8125 -1.03125q0.21875 -0.140625 0.6875 -0.140625q0.28125 0 0.28125 0.15625q0 0.078125 -0.421875 0.984375q-0.421875 0.890625 -0.78125 2.375q-0.359375 1.46875 -0.359375 2.734375q0 1.296875 0.359375 2.78125q0.359375 1.484375 0.78125 2.328125q0.421875 0.859375 0.421875 0.984375q0 0.15625 -0.28125 0.15625zm3.624466 -11.03125l0 6.921875q0 0.65625 -0.0625 0.890625q-0.046875 0.21875 -0.296875 0.40625q-0.234375 0.171875 -0.515625 0.171875q-0.28125 0 -0.53125 -0.171875q-0.25 -0.171875 -0.3125 -0.40625q-0.046875 -0.25 -0.046875 -0.890625l0 -6.921875q0 -0.65625 0.0625 -0.890625q0.0625 -0.234375 0.296875 -0.40625q0.234375 -0.171875 0.515625 -0.171875q0.328125 0 0.5625 0.1875q0.234375 0.1875 0.28125 0.4375q0.046875 0.25 0.046875 0.84375zm2.7368774 -1.390625q0.34375 0 0.59375 0.265625q0.265625 0.25 0.265625 0.59375q0 0.359375 -0.265625 0.625q-0.25 0.25 -0.59375 0.25q-0.359375 0 -0.625 -0.25q-0.25 -0.265625 -0.25 -0.625q0 -0.34375 0.25 -0.59375q0.265625 -0.265625 0.625 -0.265625zm0.875 4.015625l0 4.296875q0 0.640625 -0.0625 0.875q-0.046875 0.234375 -0.296875 0.421875q-0.234375 0.171875 -0.515625 0.171875q-0.28125 0 -0.53125 -0.171875q-0.25 -0.171875 -0.3125 -0.40625q-0.046875 -0.25 -0.046875 -0.890625l0 -4.28125q0 -0.59375 0.046875 -0.828125q0.046875 -0.25 0.28125 -0.4375q0.234375 -0.203125 0.546875 -0.203125q0.3125 0 0.546875 0.171875q0.234375 0.171875 0.28125 0.4375q0.0625 0.265625 0.0625 0.84375zm8.111877 1.390625l0 2.90625q0 0.578125 -0.046875 0.828125q-0.046875 0.25 -0.28125 0.453125q-0.234375 0.1875 -0.546875 0.1875q-0.296875 0 -0.546875 -0.171875q-0.234375 -0.171875 -0.296875 -0.4375q-0.0625 -0.28125 -0.0625 -0.859375l0 -2.546875q0 -1.078125 -0.328125 -1.4375q-0.3125 -0.375 -0.875 -0.375q-0.5 0 -0.890625 0.296875q-0.375 0.28125 -0.53125 0.734375q-0.15625 0.4375 -0.15625 1.5l0 1.828125q0 0.5625 -0.046875 0.828125q-0.046875 0.25 -0.28125 0.453125q-0.234375 0.1875 -0.546875 0.1875q-0.296875 0 -0.546875 -0.171875q-0.25 -0.171875 -0.296875 -0.4375q-0.046875 -0.28125 -0.046875 -0.859375l0 -4.375q0 -0.59375 0.046875 -0.828125q0.0625 -0.234375 0.28125 -0.390625q0.21875 -0.15625 0.5 -0.15625q0.265625 0 0.546875 0.203125q0.28125 0.203125 0.28125 1.0q0.890625 -1.203125 2.296875 -1.203125q0.53125 0 1.046875 0.203125q0.53125 0.203125 0.859375 0.65625q0.328125 0.453125 0.390625 0.9375q0.078125 0.484375 0.078125 1.046875zm4.643997 0.984375l-0.984375 0.921875l0 0.859375q0 0.65625 -0.046875 0.9375q-0.03125 0.265625 -0.28125 0.46875q-0.234375 0.203125 -0.5625 0.203125q-0.296875 0 -0.546875 -0.171875q-0.234375 -0.171875 -0.28125 -0.421875q-0.046875 -0.25 -0.046875 -0.921875l0 -6.796875q0 -0.96875 0.234375 -1.25q0.234375 -0.296875 0.6875 -0.296875q0.34375 0 0.546875 0.1875q0.203125 0.1875 0.25 0.453125q0.046875 0.265625 0.046875 0.859375l0 3.921875l2.015625 -2.09375q0.453125 -0.484375 0.625 -0.578125q0.171875 -0.109375 0.40625 -0.109375q0.34375 0 0.5625 0.21875q0.21875 0.21875 0.21875 0.484375q0 0.390625 -0.734375 1.078125l-0.9375 0.875l1.8125 2.859375q0.390625 0.609375 0.390625 0.890625q0 0.3125 -0.234375 0.5625q-0.21875 0.25 -0.609375 0.25q-0.3125 0 -0.515625 -0.1875q-0.203125 -0.1875 -0.46875 -0.625l-1.546875 -2.578125zm10.347031 2.203125l0 0.171875q0 1.015625 -0.875 1.015625q-0.34375 0 -0.578125 -0.171875q-0.21875 -0.171875 -0.265625 -0.421875q-0.046875 -0.25 -0.046875 -0.78125l0 -7.0q0 -0.609375 0.046875 -0.890625q0.0625 -0.28125 0.296875 -0.4375q0.25 -0.15625 0.53125 -0.15625q0.40625 0 0.640625 0.234375q0.25 0.234375 0.25 1.1875l0 2.3125q1.0 -1.09375 2.34375 -1.09375q1.375 0 2.15625 0.984375q0.796875 0.984375 0.796875 2.53125q0 1.640625 -0.8125 2.671875q-0.796875 1.03125 -2.171875 1.03125q-1.390625 0 -2.3125 -1.1875zm0.09375 -2.34375q0 1.03125 0.5 1.609375q0.5 0.5625 1.25 0.5625q0.640625 0 1.140625 -0.546875q0.515625 -0.546875 0.515625 -1.75q0 -1.03125 -0.46875 -1.609375q-0.453125 -0.59375 -1.171875 -0.59375q-0.8125 0 -1.296875 0.640625q-0.46875 0.625 -0.46875 1.6875zm11.580078 0.359375l-3.484375 0q0.03125 0.984375 0.546875 1.5q0.515625 0.5 1.234375 0.5q0.890625 0 1.671875 -0.78125q0.328125 -0.328125 0.46875 -0.40625q0.15625 -0.078125 0.359375 -0.078125q0.234375 0 0.40625 0.15625q0.171875 0.140625 0.171875 0.375q0 0.59375 -0.828125 1.25q-0.8125 0.65625 -2.21875 0.65625q-1.78125 0 -2.703125 -1.0q-0.921875 -1.0 -0.921875 -2.609375q0 -1.609375 0.921875 -2.609375q0.921875 -1.0 2.5625 -1.0q1.578125 0 2.421875 0.953125q0.859375 0.9375 0.859375 2.046875q0 0.484375 -0.28125 0.765625q-0.28125 0.28125 -1.1875 0.28125zm-3.484375 -1.0l3.234375 0q-0.03125 -0.890625 -0.5 -1.359375q-0.453125 -0.46875 -1.109375 -0.46875q-1.421875 0 -1.625 1.828125zm8.216965 -4.21875l0 6.921875q0 0.65625 -0.0625 0.890625q-0.046875 0.21875 -0.296875 0.40625q-0.234375 0.171875 -0.515625 0.171875q-0.28125 0 -0.53125 -0.171875q-0.25 -0.171875 -0.3125 -0.40625q-0.046875 -0.25 -0.046875 -0.890625l0 -6.921875q0 -0.65625 0.0625 -0.890625q0.0625 -0.234375 0.296875 -0.40625q0.234375 -0.171875 0.515625 -0.171875q0.328125 0 0.5625 0.1875q0.234375 0.1875 0.28125 0.4375q0.046875 0.25 0.046875 0.84375zm4.9400024 1.171875q1.65625 0 2.59375 1.015625q0.953125 1.015625 0.953125 2.59375q0 1.578125 -0.953125 2.59375q-0.953125 1.015625 -2.546875 1.015625q-1.71875 0 -2.65625 -1.015625q-0.921875 -1.03125 -0.921875 -2.59375q0 -1.578125 0.9375 -2.59375q0.953125 -1.015625 2.59375 -1.015625zm0 5.90625q0.8125 0 1.28125 -0.609375q0.46875 -0.609375 0.46875 -1.6875q0 -1.078125 -0.46875 -1.6875q-0.46875 -0.609375 -1.28125 -0.609375q-0.78125 0 -1.265625 0.625q-0.46875 0.609375 -0.46875 1.671875q0 1.078125 0.46875 1.6875q0.46875 0.609375 1.265625 0.609375zm7.222122 -0.828125l1.046875 -3.671875q0.203125 -0.6875 0.296875 -0.890625q0.109375 -0.21875 0.34375 -0.359375q0.234375 -0.15625 0.53125 -0.15625q0.46875 0 0.6875 0.25q0.21875 0.25 0.5 1.15625l1.0625 3.671875l1.15625 -3.96875q0.1875 -0.625 0.34375 -0.859375q0.171875 -0.25 0.59375 -0.25q0.296875 0 0.53125 0.234375q0.25 0.21875 0.25 0.515625q0 0.234375 -0.203125 0.8125l-1.453125 4.265625q-0.234375 0.671875 -0.359375 0.890625q-0.125 0.21875 -0.359375 0.359375q-0.21875 0.140625 -0.5 0.140625q-0.5625 0 -0.796875 -0.328125q-0.21875 -0.328125 -0.453125 -1.125l-1.0 -3.453125l-0.984375 3.453125q-0.1875 0.671875 -0.3125 0.90625q-0.109375 0.234375 -0.359375 0.390625q-0.25 0.15625 -0.546875 0.15625q-0.28125 0 -0.53125 -0.140625q-0.25 -0.125 -0.375 -0.34375q-0.109375 -0.234375 -0.34375 -0.90625l-1.453125 -4.265625q-0.1875 -0.5625 -0.1875 -0.8125q0 -0.296875 0.21875 -0.515625q0.234375 -0.234375 0.5625 -0.234375q0.40625 0 0.5625 0.234375q0.171875 0.234375 0.359375 0.875l1.171875 3.96875zm10.804367 -5.34375l-0.28125 3.203125q-0.0625 0.703125 -0.25 0.953125q-0.171875 0.234375 -0.4375 0.234375q-0.28125 0 -0.453125 -0.234375q-0.171875 -0.25 -0.21875 -0.953125l-0.21875 -3.125q-0.046875 -0.40625 -0.046875 -1.140625q0 -1.3125 1.0 -1.3125q0.4375 0 0.6875 0.296875q0.25 0.296875 0.25 1.109375q0 0.65625 -0.03125 0.96875zm-0.9375 5.53125q0.40625 0 0.6875 0.296875q0.296875 0.28125 0.296875 0.671875q0 0.40625 -0.296875 0.703125q-0.28125 0.28125 -0.6875 0.28125q-0.40625 0 -0.703125 -0.28125q-0.28125 -0.296875 -0.28125 -0.703125q0 -0.390625 0.296875 -0.671875q0.296875 -0.296875 0.6875 -0.296875zm3.1571198 -7.90625q0.484375 0 0.734375 0.1875q0.25 0.171875 0.84375 1.15625q0.609375 0.984375 0.984375 2.28125q0.390625 1.296875 0.390625 2.625q0 1.421875 -0.4375 2.8125q-0.4375 1.375 -1.03125 2.265625q-0.578125 0.90625 -0.796875 1.03125q-0.21875 0.140625 -0.6875 0.140625q-0.28125 0 -0.28125 -0.15625q0 -0.0625 0.421875 -0.96875q0.421875 -0.90625 0.78125 -2.375q0.359375 -1.484375 0.359375 -2.75q0 -1.296875 -0.359375 -2.78125q-0.359375 -1.484375 -0.78125 -2.328125q-0.421875 -0.859375 -0.421875 -0.984375q0 -0.15625 0.28125 -0.15625z" fill-rule="nonzero"/></g></svg>