<svg version="1.1" xmlns="http://www.w3.org/2000/svg" xmlns:xlink="http://www.w3.org/1999/xlink" width="496" height="368" viewBox="0,0,496,368"><g transform="translate(10.75099,4.1744)"><g data-paper-data="{&quot;isPaintingLayer&quot;:true}" fill-rule="nonzero" stroke-linejoin="miter" stroke-miterlimit="10" stroke-dasharray="" stroke-dashoffset="0" style="mix-blend-mode: normal"><path d="M-9.75098,362.8256v-366h494v366z" fill="#000000" stroke="#000000" stroke-width="2" stroke-linecap="butt"/><path d="M94.92992,167.81861v17.46045c0,1.16403 -0.04547,1.98248 -0.13641,2.45538c-0.07275,0.4547 -0.32738,0.86393 -0.76389,1.22769c-0.43651,0.34557 -0.96397,0.51836 -1.58236,0.51836c-0.6002,0 -1.13674,-0.18188 -1.60963,-0.54564c-0.45469,-0.36376 -0.72751,-0.78208 -0.81846,-1.25497c-0.07275,-0.47289 -0.10913,-1.27316 -0.10913,-2.40081v-17.46045c0,-1.14584 0.03638,-1.94612 0.10913,-2.40081c0.09095,-0.45469 0.35467,-0.86393 0.79118,-1.22769c0.45469,-0.38195 0.98215,-0.57292 1.58235,-0.57292c0.6002,0 1.12766,0.17278 1.58235,0.51835c0.45469,0.34557 0.72751,0.76389 0.81846,1.25497c0.09095,0.47289 0.13641,1.28225 0.13641,2.42809zM116.71797,177.96749v7.63895c0,1.00034 -0.04547,1.72786 -0.13641,2.18256c-0.07275,0.43651 -0.31829,0.82755 -0.73662,1.17312c-0.40013,0.34557 -0.87302,0.51836 -1.41866,0.51836c-0.50926,0 -0.98216,-0.15459 -1.41867,-0.46379c-0.41833,-0.3092 -0.68205,-0.70024 -0.79118,-1.17313c-0.10913,-0.49107 -0.16369,-1.23678 -0.16369,-2.23712v-6.68408c0,-1.87336 -0.28191,-3.12833 -0.84574,-3.76491c-0.54564,-0.65476 -1.30954,-0.98215 -2.29169,-0.98215c-0.87302,0 -1.64602,0.25464 -2.31897,0.76389c-0.67295,0.50926 -1.14585,1.15494 -1.41867,1.93702c-0.27282,0.76389 -0.40923,2.07342 -0.40923,3.9286v4.80163c0,0.98215 -0.03637,1.70058 -0.10913,2.15527c-0.07275,0.43651 -0.31829,0.83665 -0.73662,1.2004c-0.41833,0.34557 -0.9003,0.51836 -1.44594,0.51836c-0.52746,0 -1.00943,-0.15459 -1.44594,-0.46379c-0.41833,-0.32738 -0.67295,-0.71843 -0.76389,-1.17313c-0.09095,-0.47289 -0.13641,-1.21859 -0.13641,-2.23712v-11.45842c0,-1.03671 0.04547,-1.75514 0.13641,-2.15527c0.10913,-0.41833 0.35467,-0.7639 0.73662,-1.03671c0.40013,-0.27282 0.84574,-0.40923 1.33682,-0.40923c0.45469,0 0.92758,0.18188 1.41866,0.54564c0.49107,0.34557 0.73662,1.2095 0.73662,2.59178c1.56417,-2.09161 3.56484,-3.13742 6.00203,-3.13742c0.92758,0 1.84608,0.18188 2.75548,0.54564c0.9094,0.34557 1.64601,0.9094 2.20984,1.69148c0.58202,0.78208 0.93668,1.60054 1.064,2.45537c0.12732,0.85484 0.19098,1.76423 0.19098,2.7282zM133.14511,186.83413c-2.20074,1.76423 -4.36512,2.64635 -6.49311,2.64635c-2.01887,0 -3.57393,-0.50926 -4.66521,-1.52779c-1.07309,-1.03671 -1.60963,-2.29168 -1.60963,-3.76491c0,-1.27316 0.36376,-2.29168 1.09127,-3.05558c0.74571,-0.78208 1.54598,-1.32772 2.40082,-1.63692c0.87302,-0.3092 2.28259,-0.66386 4.2287,-1.06399c1.94611,-0.40013 3.51937,-0.77299 4.71978,-1.11856c-0.01818,-1.41866 -0.3001,-2.37353 -0.84574,-2.86461c-0.54564,-0.49107 -1.37319,-0.73662 -2.48266,-0.73662c-2.1098,0 -3.49209,0.59111 -4.14686,1.77333c-0.36376,0.67295 -0.69114,1.15494 -0.98215,1.44594c-0.27282,0.27282 -0.67296,0.40923 -1.20041,0.40923c-0.49107,0 -0.93669,-0.15459 -1.33682,-0.46379c-0.40013,-0.32739 -0.6002,-0.7548 -0.6002,-1.28226c0,-1.2004 0.65476,-2.33714 1.9643,-3.41024c1.30954,-1.09128 3.36477,-1.63692 6.16572,-1.63692c2.83732,0 4.91075,0.49107 6.22028,1.47322c1.32772,0.98215 1.95521,2.96464 1.88246,5.94747l-0.10913,4.36512c-0.03638,1.3641 0.10003,2.47357 0.40923,3.3284c0.32738,0.83665 0.49107,1.48232 0.49107,1.93702c0,0.49107 -0.21825,0.92759 -0.65476,1.30954c-0.41833,0.38194 -0.90031,0.57292 -1.44594,0.57292c-0.94577,0 -1.94611,-0.88212 -3.00101,-2.64635zM132.84501,180.09549c-0.69115,0.27282 -1.83698,0.57292 -3.43752,0.90031c-1.60054,0.3092 -2.7373,0.67295 -3.41025,1.09127c-0.65476,0.40013 -0.98215,1.00034 -0.98215,1.80061c0,0.65476 0.26372,1.24587 0.79118,1.77333c0.52746,0.50926 1.28225,0.76389 2.2644,0.76389c1.01853,0 1.9643,-0.28192 2.83732,-0.84574c0.89121,-0.56382 1.43685,-1.22768 1.63692,-1.99158c0.20007,-0.78208 0.3001,-1.94611 0.3001,-3.49209zM156.87018,181.67784c0.56383,0 1.02762,0.22735 1.39138,0.68204c0.38195,0.43651 0.57292,0.88212 0.57292,1.33682c0,1.27316 -0.7548,2.55541 -2.26441,3.84676c-1.5096,1.29135 -3.53755,1.93702 -6.08387,1.93702c-3.05558,0 -5.36545,-0.86392 -6.92962,-2.59178c-1.54597,-1.74605 -2.31896,-4.01045 -2.31896,-6.7932c0,-2.80095 0.80936,-5.09263 2.42809,-6.87506c1.61873,-1.78243 3.9195,-2.67363 6.90233,-2.67363c2.30987,0 4.21961,0.6093 5.72921,1.82789c1.52779,1.2004 2.29169,2.39172 2.29169,3.57394c0,0.56383 -0.20916,1.03672 -0.62749,1.41866c-0.40013,0.38195 -0.87302,0.57292 -1.41866,0.57292c-0.69115,0 -1.22769,-0.291 -1.60963,-0.87302c-0.85484,-1.29135 -1.60963,-2.10981 -2.2644,-2.45538c-0.65476,-0.34557 -1.3641,-0.51835 -2.12799,-0.51835c-1.49141,0 -2.64635,0.57292 -3.46481,1.71876c-0.80027,1.12766 -1.20041,2.54632 -1.20041,4.25598c0,1.74604 0.41833,3.17381 1.25497,4.28327c0.85484,1.10947 1.99159,1.6642 3.41025,1.6642c0.80027,0 1.53689,-0.19098 2.20984,-0.57292c0.69115,-0.38195 1.28225,-0.95487 1.77332,-1.71876c0.49107,-0.78208 0.88212,-1.31863 1.17312,-1.60963c0.29101,-0.29101 0.68205,-0.43651 1.17312,-0.43651zM163.65316,170.95603v-2.81004c0,-1.14584 0.04546,-1.91884 0.13641,-2.31896c0.10913,-0.41832 0.36377,-0.79118 0.76389,-1.11856c0.40013,-0.32738 0.87303,-0.49107 1.41867,-0.49107c0.50926,0 0.96397,0.1455 1.36409,0.43651c0.40013,0.29101 0.66386,0.65476 0.79118,1.09127c0.12732,0.41833 0.19097,1.10038 0.19097,2.04615v3.16471h0.90031c1.14584,0 1.90064,0.13641 2.26441,0.40923c0.38195,0.27282 0.57292,0.68205 0.57292,1.22769c0,1.14584 -0.95487,1.71877 -2.8646,1.71877h-0.87303v8.59381c0,1.16403 0.08185,1.95521 0.24554,2.37353c0.16369,0.41833 0.60021,0.62749 1.30954,0.62749c0.34557,0 0.72751,-0.04547 1.14584,-0.13641c0.43651,-0.10913 0.7548,-0.16369 0.95487,-0.16369c0.47289,0 0.85484,0.15459 1.14584,0.46379c0.291,0.3092 0.43651,0.68205 0.43651,1.11856c0,1.52779 -1.60964,2.29169 -4.82891,2.29169c-1.56417,0 -2.71001,-0.291 -3.43752,-0.87302c-0.72752,-0.58202 -1.18223,-1.28225 -1.3641,-2.10071c-0.18187,-0.83665 -0.27282,-1.92792 -0.27282,-3.27383v-8.9212h-0.6002c-1.38228,0 -2.07343,-0.56383 -2.07343,-1.69148c0,-1.10947 0.72752,-1.6642 2.18256,-1.6642zM177.59765,163.83544c0.61839,0 1.14584,0.22735 1.58235,0.68205c0.43651,0.45469 0.65477,0.98215 0.65477,1.58235c0,0.61839 -0.21826,1.15494 -0.65477,1.60963c-0.43651,0.43651 -0.96396,0.65476 -1.58235,0.65476c-0.61839,0 -1.15494,-0.21825 -1.60963,-0.65476c-0.43651,-0.4547 -0.65477,-0.99124 -0.65477,-1.60963c0,-0.61839 0.21826,-1.14584 0.65477,-1.58235c0.4547,-0.4547 0.99124,-0.68205 1.60963,-0.68205zM179.91661,174.33899v11.26745c0,1.12766 -0.05456,1.90064 -0.16369,2.31896c-0.09094,0.40013 -0.35467,0.7639 -0.79118,1.09128c-0.41832,0.3092 -0.87302,0.46379 -1.3641,0.46379c-0.49108,0 -0.95487,-0.15459 -1.39138,-0.46379c-0.43651,-0.32738 -0.70933,-0.70024 -0.81846,-1.11856c-0.09094,-0.41832 -0.13641,-1.18222 -0.13641,-2.29169v-11.24017c0,-1.01853 0.03638,-1.73695 0.10913,-2.15527c0.09094,-0.43651 0.34557,-0.81846 0.76389,-1.14584c0.41832,-0.34557 0.9003,-0.51836 1.44594,-0.51836c0.54564,0 1.01854,0.1546 1.41867,0.4638c0.40013,0.29101 0.65476,0.67295 0.76389,1.14584c0.10913,0.4547 0.16369,1.18222 0.16369,2.18256zM191.78085,184.05137l4.06501,-11.07647c0.40013,-1.09128 0.77299,-1.76423 1.11856,-2.01887c0.34557,-0.27282 0.73661,-0.40923 1.17312,-0.40923c0.61839,0 1.12766,0.20916 1.52779,0.62749c0.41832,0.41832 0.62748,0.85484 0.62748,1.30953c0,0.41833 -0.22735,1.2004 -0.68205,2.34625l-4.50152,11.07648c-0.61839,1.58236 -1.15494,2.5736 -1.60963,2.97373c-0.43651,0.40013 -1.00943,0.6002 -1.71877,0.6002c-0.89121,0 -1.54597,-0.24553 -1.9643,-0.73661c-0.40013,-0.50926 -0.87302,-1.45504 -1.41866,-2.83732l-4.44696,-10.96735c-0.47289,-1.10947 -0.70933,-1.90064 -0.70933,-2.37353c0,-0.49107 0.20916,-0.94577 0.62748,-1.36409c0.43651,-0.43651 0.97306,-0.65477 1.60964,-0.65477c0.70933,0 1.2004,0.20007 1.47323,0.6002c0.291,0.40013 0.64567,1.16403 1.06399,2.29169zM205.98793,163.83544c0.61839,0 1.14585,0.22735 1.58236,0.68205c0.43651,0.45469 0.65476,0.98215 0.65476,1.58235c0,0.61839 -0.21825,1.15494 -0.65476,1.60963c-0.43651,0.43651 -0.96397,0.65476 -1.58236,0.65476c-0.61839,0 -1.15494,-0.21825 -1.60964,-0.65476c-0.43651,-0.4547 -0.65476,-0.99124 -0.65476,-1.60963c0,-0.61839 0.21825,-1.14584 0.65476,-1.58235c0.4547,-0.4547 0.99125,-0.68205 1.60964,-0.68205zM208.30689,174.33899v11.26745c0,1.12766 -0.05456,1.90064 -0.16369,2.31896c-0.09094,0.40013 -0.35467,0.7639 -0.79118,1.09128c-0.41832,0.3092 -0.87302,0.46379 -1.3641,0.46379c-0.49108,0 -0.95487,-0.15459 -1.39138,-0.46379c-0.43651,-0.32738 -0.70933,-0.70024 -0.81846,-1.11856c-0.09094,-0.41832 -0.13641,-1.18222 -0.13641,-2.29169v-11.24017c0,-1.01853 0.03638,-1.73695 0.10913,-2.15527c0.09094,-0.43651 0.34557,-0.81846 0.76389,-1.14584c0.41832,-0.34557 0.90031,-0.51836 1.44594,-0.51836c0.54564,0 1.01853,0.1546 1.41866,0.4638c0.40013,0.29101 0.65477,0.67295 0.7639,1.14584c0.10913,0.4547 0.16369,1.18222 0.16369,2.18256zM213.869,170.95603v-2.81004c0,-1.14584 0.04547,-1.91884 0.13641,-2.31896c0.10913,-0.41832 0.36377,-0.79118 0.76389,-1.11856c0.40013,-0.32738 0.87302,-0.49107 1.41866,-0.49107c0.50926,0 0.96397,0.1455 1.3641,0.43651c0.40013,0.29101 0.66386,0.65476 0.79117,1.09127c0.12732,0.41833 0.19098,1.10038 0.19098,2.04615v3.16471h0.90031c1.14584,0 1.90064,0.13641 2.2644,0.40923c0.38194,0.27282 0.57292,0.68205 0.57292,1.22769c0,1.14584 -0.95487,1.71877 -2.8646,1.71877h-0.87302v8.59381c0,1.16403 0.08184,1.95521 0.24553,2.37353c0.16369,0.41833 0.60021,0.62749 1.30954,0.62749c0.34557,0 0.72752,-0.04547 1.14585,-0.13641c0.43651,-0.10913 0.7548,-0.16369 0.95486,-0.16369c0.47289,0 0.85484,0.15459 1.14585,0.46379c0.291,0.3092 0.43651,0.68205 0.43651,1.11856c0,1.52779 -1.60964,2.29169 -4.82891,2.29169c-1.56417,0 -2.71001,-0.291 -3.43752,-0.87302c-0.72751,-0.58202 -1.18223,-1.28225 -1.3641,-2.10071c-0.18187,-0.83665 -0.27282,-1.92792 -0.27282,-3.27383v-8.9212h-0.6002c-1.38229,0 -2.07343,-0.56383 -2.07343,-1.69148c0,-1.10947 0.72751,-1.6642 2.18255,-1.6642zM230.18702,189.01669l-5.67464,-14.43216c-0.36376,-0.92758 -0.54564,-1.57326 -0.54564,-1.93702c0,-0.52746 0.21826,-1.00943 0.65477,-1.44594c0.4547,-0.43651 0.98214,-0.65477 1.58235,-0.65477c0.52745,0 0.97305,0.16369 1.33682,0.49107c0.36376,0.3092 0.72752,0.96397 1.09128,1.9643l3.9286,11.45842l3.73763,-10.61268c0.49108,-1.38229 0.88212,-2.2735 1.17312,-2.67363c0.291,-0.41833 0.79118,-0.62749 1.50051,-0.62749c0.63658,0 1.13675,0.21826 1.50051,0.65477c0.36376,0.41832 0.54563,0.84574 0.54563,1.28225c0,0.52746 -0.18187,1.27316 -0.54563,2.23712l-6.08388,15.90538c-0.80027,2.1098 -1.63691,3.59212 -2.50993,4.44696c-0.85483,0.87302 -2.32807,1.30953 -4.41968,1.30953c-2.69182,0 -4.03773,-0.69115 -4.03773,-2.07343c0,-0.45469 0.14551,-0.83664 0.43652,-1.14584c0.3092,-0.3092 0.71842,-0.4638 1.22768,-0.4638c0.09094,0 0.35467,0.01818 0.79118,0.05456c0.4547,0.03638 0.71843,0.05457 0.79118,0.05457c0.85483,0 1.48233,-0.20916 1.88245,-0.62749c0.41832,-0.40013 0.82756,-1.10947 1.22769,-2.12799zM265.81044,167.95502v17.32404c0,1.09128 -0.04547,1.88246 -0.13641,2.37353c-0.09094,0.47289 -0.36376,0.90031 -0.81846,1.28225c-0.4547,0.36376 -0.97305,0.54564 -1.55507,0.54564c-0.6002,0 -1.12766,-0.17279 -1.58236,-0.51836c-0.4547,-0.34557 -0.72752,-0.76389 -0.81846,-1.25497c-0.07275,-0.50926 -0.10913,-1.31863 -0.10913,-2.4281v-17.32404h-4.63793c-1.00033,0 -1.69148,-0.03638 -2.07342,-0.10913c-0.36376,-0.09095 -0.69115,-0.3092 -0.98215,-0.65477c-0.29101,-0.34557 -0.43651,-0.74571 -0.43651,-1.2004c0,-0.34557 0.09095,-0.68204 0.27282,-1.00943c0.20007,-0.34557 0.4638,-0.58202 0.79118,-0.70933c0.32739,-0.14551 1.13674,-0.21825 2.42809,-0.21825h14.24118c1.16403,0 1.90974,0.04546 2.23712,0.13641c0.32739,0.09095 0.61839,0.3092 0.87302,0.65477c0.25464,0.34557 0.38195,0.72751 0.38195,1.14584c0,0.34557 -0.10003,0.69115 -0.3001,1.03671c-0.18187,0.32739 -0.44561,0.56383 -0.79117,0.70933c-0.32739,0.1455 -1.12766,0.21825 -2.40082,0.21825zM278.47267,163.83544c0.61839,0 1.14584,0.22735 1.58235,0.68205c0.43651,0.45469 0.65477,0.98215 0.65477,1.58235c0,0.61839 -0.21826,1.15494 -0.65477,1.60963c-0.43651,0.43651 -0.96396,0.65476 -1.58235,0.65476c-0.61839,0 -1.15494,-0.21825 -1.60964,-0.65476c-0.43651,-0.4547 -0.65477,-0.99124 -0.65477,-1.60963c0,-0.61839 0.21826,-1.14584 0.65477,-1.58235c0.4547,-0.4547 0.99125,-0.68205 1.60964,-0.68205zM280.79163,174.33899v11.26745c0,1.12766 -0.05456,1.90064 -0.16369,2.31896c-0.09094,0.40013 -0.35467,0.7639 -0.79118,1.09128c-0.41832,0.3092 -0.87302,0.46379 -1.3641,0.46379c-0.49108,0 -0.95487,-0.15459 -1.39138,-0.46379c-0.43651,-0.32738 -0.70933,-0.70024 -0.81846,-1.11856c-0.09095,-0.41832 -0.13641,-1.18222 -0.13641,-2.29169v-11.24017c0,-1.01853 0.03638,-1.73695 0.10913,-2.15527c0.09094,-0.43651 0.34557,-0.81846 0.76389,-1.14584c0.41832,-0.34557 0.9003,-0.51836 1.44594,-0.51836c0.54564,0 1.01853,0.1546 1.41866,0.4638c0.40013,0.29101 0.65477,0.67295 0.7639,1.14584c0.10913,0.4547 0.16369,1.18222 0.16369,2.18256zM311.9715,177.44914v8.0209c0,1.10947 -0.04547,1.89155 -0.13641,2.34624c-0.09094,0.43651 -0.33648,0.82755 -0.73661,1.17312c-0.40013,0.32738 -0.88212,0.49107 -1.44595,0.49107c-0.54564,0 -1.01853,-0.16369 -1.41866,-0.49107c-0.40013,-0.32738 -0.65477,-0.72751 -0.7639,-1.2004c-0.10913,-0.49108 -0.16369,-1.26407 -0.16369,-2.31896v-6.7932c0,-1.98248 -0.23645,-3.22837 -0.70934,-3.73763c-0.4547,-0.50926 -1.09127,-0.76389 -1.90974,-0.76389c-0.85483,0 -1.58235,0.23644 -2.18255,0.70933c-0.58202,0.47289 -0.98215,1.09128 -1.2004,1.85518c-0.20007,0.76389 -0.30011,1.95521 -0.30011,3.57394v5.15629c0,1.10947 -0.04547,1.90064 -0.13641,2.37353c-0.09095,0.4547 -0.34557,0.84574 -0.76389,1.17313c-0.40013,0.3092 -0.88212,0.46379 -1.44595,0.46379c-0.70933,0 -1.27315,-0.24553 -1.69148,-0.73661c-0.40013,-0.49107 -0.6002,-1.58235 -0.6002,-3.27383v-6.38398c0,-1.8188 -0.13641,-3.09196 -0.40923,-3.81947c-0.27282,-0.72751 -0.99125,-1.09128 -2.15528,-1.09128c-1.18222,0 -2.11889,0.38195 -2.81004,1.14585c-0.69115,0.76389 -1.03672,2.39171 -1.03672,4.88347v5.26542c0,1.09128 -0.03637,1.85517 -0.10912,2.29168c-0.07275,0.41833 -0.31829,0.80936 -0.73662,1.17312c-0.40013,0.36376 -0.87302,0.54564 -1.41866,0.54564c-0.52746,0 -1.00944,-0.15459 -1.44595,-0.46379c-0.41832,-0.32738 -0.68205,-0.71843 -0.79117,-1.17313c-0.09095,-0.45469 -0.13641,-1.24587 -0.13641,-2.37353v-11.26745c0,-1.0731 0.04547,-1.80061 0.13641,-2.18256c0.10913,-0.40013 0.36376,-0.74571 0.76389,-1.03671c0.40013,-0.29101 0.83664,-0.43651 1.30953,-0.43651c1.49141,0 2.23712,0.94577 2.23712,2.83732c1.54597,-1.89155 3.41934,-2.83732 5.62008,-2.83732c2.34625,0 4.05591,0.94577 5.12901,2.83732c1.58236,-1.89155 3.42844,-2.83732 5.53824,-2.83732c1.63692,0 3.0283,0.4547 4.17414,1.3641c1.16402,0.89121 1.74604,2.73729 1.74604,5.53824zM329.47286,181.15948h-9.13945c0.05457,1.72786 0.52746,3.0283 1.41867,3.90132c0.9094,0.87302 2.00068,1.30954 3.27383,1.30954c1.54597,0 3.01011,-0.68205 4.39239,-2.04615c0.56383,-0.56383 0.97306,-0.9094 1.22769,-1.03671c0.27282,-0.1455 0.57292,-0.21826 0.90031,-0.21826c0.41832,0 0.77299,0.13641 1.06399,0.40923c0.3092,0.25463 0.4638,0.57292 0.4638,0.95487c0,1.0549 -0.71843,2.16438 -2.15527,3.3284c-1.41866,1.14584 -3.35568,1.71876 -5.81106,1.71876c-3.11014,0 -5.47458,-0.88212 -7.09331,-2.64635c-1.60054,-1.76423 -2.40081,-4.03772 -2.40081,-6.82048c0,-2.81914 0.80027,-5.10173 2.40081,-6.84777c1.61873,-1.74604 3.86494,-2.61907 6.73864,-2.61907c2.7282,0 4.83801,0.82756 6.32942,2.48266c1.49141,1.63692 2.23712,3.41934 2.23712,5.34726c0,0.85484 -0.24554,1.53689 -0.73661,2.04615c-0.49108,0.49107 -1.52779,0.73661 -3.11014,0.73661zM320.33341,178.51313h8.48469c-0.05457,-1.54597 -0.48198,-2.72819 -1.28225,-3.54665c-0.80028,-0.81846 -1.78242,-1.22769 -2.94645,-1.22769c-2.47356,0 -3.89222,1.59145 -4.25599,4.77434zM345.36801,170.5468c2.89189,0 5.16539,0.8912 6.82049,2.67363c1.6551,1.76423 2.48266,4.02864 2.48266,6.79321c0,2.76457 -0.83664,5.03806 -2.50994,6.82048c-1.67329,1.76423 -3.89223,2.64635 -6.6568,2.64635c-3.00102,0 -5.31998,-0.9003 -6.9569,-2.70091c-1.63691,-1.80061 -2.45538,-4.05591 -2.45538,-6.76592c0,-2.76458 0.82756,-5.02898 2.48266,-6.79321c1.6551,-1.78243 3.91951,-2.67363 6.79321,-2.67363zM345.36801,186.01567c1.41866,0 2.53722,-0.52746 3.35568,-1.58236c0.81846,-1.07309 1.22769,-2.54631 1.22769,-4.41967c0,-1.89155 -0.40923,-3.36478 -1.22769,-4.41968c-0.81846,-1.07309 -1.93702,-1.60963 -3.35568,-1.60963c-1.38229,0 -2.49175,0.53654 -3.3284,1.60963c-0.81846,1.0731 -1.22769,2.54632 -1.22769,4.41968c0,1.87336 0.40923,3.34658 1.22769,4.41967c0.81846,1.0549 1.92792,1.58236 3.3284,1.58236zM358.19395,182.55086v-8.18459c0,-1.00034 0.03638,-1.72786 0.10912,-2.18255c0.09095,-0.4547 0.33649,-0.83665 0.73662,-1.14585c0.40013,-0.32738 0.89121,-0.49107 1.47322,-0.49107c0.54564,0 1.01853,0.1546 1.41866,0.4638c0.41832,0.3092 0.67295,0.71842 0.7639,1.22768c0.10913,0.49108 0.16369,1.23678 0.16369,2.23712v6.41126c0,2.09161 0.32738,3.43752 0.98215,4.03773c0.65476,0.58202 1.3732,0.87302 2.15528,0.87302c0.89121,0 1.6733,-0.24553 2.34625,-0.73661c0.69115,-0.50926 1.15494,-1.11856 1.39138,-1.82789c0.23644,-0.72752 0.35466,-2.13709 0.35466,-4.22871v-4.63793c0,-0.98215 0.04547,-1.70966 0.13641,-2.18255c0.10913,-0.47289 0.36376,-0.86392 0.76389,-1.17312c0.41832,-0.3092 0.9094,-0.4638 1.47323,-0.4638c0.52745,0 1.00033,0.1546 1.41866,0.4638c0.41832,0.3092 0.66387,0.69114 0.73662,1.14584c0.09095,0.4547 0.13641,1.19131 0.13641,2.20984v11.51299c0,0.94577 -0.04547,1.62782 -0.13641,2.04614c-0.09094,0.41833 -0.31829,0.78208 -0.68205,1.09128c-0.34557,0.3092 -0.79117,0.46379 -1.33682,0.46379c-1.5096,0 -2.23712,-1.08218 -2.18255,-3.24655c-1.54597,2.16437 -3.59212,3.24655 -6.13844,3.24655c-1.69148,0 -3.12833,-0.50017 -4.31055,-1.50051c-1.18222,-1.01853 -1.77332,-2.82823 -1.77332,-5.42911zM380.18661,170.95603v-2.81004c0,-1.14584 0.04547,-1.91884 0.13641,-2.31896c0.10913,-0.41832 0.36377,-0.79118 0.7639,-1.11856c0.40013,-0.32738 0.87302,-0.49107 1.41866,-0.49107c0.50926,0 0.96397,0.1455 1.3641,0.43651c0.40013,0.29101 0.66386,0.65476 0.79118,1.09127c0.12731,0.41833 0.19097,1.10038 0.19097,2.04615v3.16471h0.90031c1.14584,0 1.90064,0.13641 2.2644,0.40923c0.38194,0.27282 0.57292,0.68205 0.57292,1.22769c0,1.14584 -0.95487,1.71877 -2.8646,1.71877h-0.87302v8.59381c0,1.16403 0.08185,1.95521 0.24554,2.37353c0.16369,0.41833 0.6002,0.62749 1.30953,0.62749c0.34557,0 0.72752,-0.04547 1.14584,-0.13641c0.43651,-0.10913 0.7548,-0.16369 0.95487,-0.16369c0.47289,0 0.85484,0.15459 1.14585,0.46379c0.291,0.3092 0.43651,0.68205 0.43651,1.11856c0,1.52779 -1.60964,2.29169 -4.82891,2.29169c-1.56417,0 -2.71001,-0.291 -3.43753,-0.87302c-0.72752,-0.58202 -1.18222,-1.28225 -1.3641,-2.10071c-0.18187,-0.83665 -0.27282,-1.92792 -0.27282,-3.27383v-8.9212h-0.6002c-1.38229,0 -2.07343,-0.56383 -2.07343,-1.69148c0,-1.10947 0.72752,-1.6642 2.18255,-1.6642z" fill="#c1c1c1" stroke="none" stroke-width="1" stroke-linecap="square"/></g></g></svg>