<svg version="1.1" xmlns="http://www.w3.org/2000/svg" xmlns:xlink="http://www.w3.org/1999/xlink" width="375.75269" height="144.60846" viewBox="0,0,375.75269,144.60846"><g transform="translate(-42.35707,-117.07188)"><g data-paper-data="{&quot;isPaintingLayer&quot;:true}" fill-rule="nonzero" stroke-linejoin="miter" stroke-miterlimit="10" stroke-dasharray="" stroke-dashoffset="0" style="mix-blend-mode: normal"><path d="M200.15788,257.69227c-0.31088,0.21271 -0.7772,0.4745 -1.39896,0.78538c-0.60539,0.31088 -1.33352,0.58085 -2.18434,0.80992c-0.85082,0.22907 -1.79164,0.33542 -2.82245,0.31906c-1.66893,-0.03273 -3.16607,-0.33542 -4.49139,-0.9081c-1.32532,-0.57268 -2.44612,-1.34987 -3.3624,-2.33159c-0.91628,-0.99808 -1.62803,-2.13524 -2.13525,-3.41149c-0.49086,-1.27624 -0.73629,-2.6343 -0.73629,-4.07416c0,-1.6362 0.25362,-3.12516 0.76084,-4.46684c0.50722,-1.34169 1.22716,-2.50339 2.1598,-3.48512c0.93264,-0.99808 2.04525,-1.76711 3.33786,-2.30705c1.29261,-0.55631 2.69974,-0.83446 4.22142,-0.83446c1.35805,0 2.56884,0.17999 3.63237,0.53995c1.06354,0.35996 1.95527,0.76901 2.6752,1.22715l-1.34987,3.1906c-0.55631,-0.37633 -1.24352,-0.74447 -2.06162,-1.10444c-0.81811,-0.37633 -1.74256,-0.56449 -2.77337,-0.56449c-0.93264,0 -1.83255,0.19635 -2.69974,0.58903c-0.85082,0.37633 -1.60349,0.90809 -2.25797,1.5953c-0.63812,0.68721 -1.15352,1.49713 -1.54621,2.42977c-0.37633,0.91628 -0.56449,1.90618 -0.56449,2.96972c0,1.11262 0.1718,2.14343 0.51541,3.09243c0.3436,0.93264 0.83446,1.73437 1.47258,2.40522c0.63812,0.67085 1.39896,1.20261 2.28251,1.5953c0.88355,0.37633 1.88164,0.56449 2.99426,0.56449c1.09626,0 2.06162,-0.1718 2.89608,-0.51541c0.83446,-0.3436 1.50531,-0.7281 2.01253,-1.15353zM204.03151,236.51158h3.28877v22.84963h-3.28877zM217.00512,259.68026c-1.14534,0 -2.19252,-0.24543 -3.14152,-0.73629c-0.949,-0.49086 -1.70165,-1.21897 -2.25796,-2.18433c-0.53994,-0.96536 -0.80992,-2.1598 -0.80992,-3.5833c0,-1.40714 0.28634,-2.60976 0.85901,-3.60783c0.58903,-1.01444 1.34987,-1.79164 2.2825,-2.33159c0.949,-0.55631 1.9798,-0.83446 3.09243,-0.83446c1.19443,0 2.1598,0.24543 2.89608,0.73629c0.73629,0.4745 1.54621,2.1107 1.54621,2.1107l0.31906,-2.28251h3.0188v12.39426c0,0 -5.28495,-0.2127 -5.84126,0.00001c-0.55631,0.21271 -1.2108,0.31906 -1.96345,0.31906zM220.78476,255.75337c0.3436,-0.39269 0.58903,-0.85901 0.73629,-1.39896v-2.69974c-0.14726,-0.50722 -0.40087,-0.949 -0.76083,-1.32533c-0.3436,-0.39269 -0.76902,-0.69539 -1.27624,-0.9081c-0.49086,-0.2127 -1.039,-0.31906 -1.64439,-0.31906c-0.68721,0 -1.30897,0.17181 -1.86527,0.51541c-0.55631,0.32725 -1.00626,0.78538 -1.34987,1.37441c-0.3436,0.57268 -0.51541,1.24351 -0.51541,2.01254c0,0.73629 0.17181,1.40714 0.51541,2.01253c0.35996,0.60539 0.83446,1.08808 1.4235,1.44805c0.58903,0.34361 1.21079,0.51541 1.86527,0.51541c0,0 2.5443,-0.83448 2.87155,-1.22717zM233.05185,259.63118c-0.949,0 -1.84891,-0.16361 -2.69974,-0.49086c-0.85082,-0.34361 -1.5544,-0.83446 -2.11071,-1.47258l1.37441,-1.84073c0.53994,0.52359 1.0799,0.9081 1.61984,1.15353c0.53994,0.24543 1.05535,0.36815 1.54621,0.36815c0.37633,0 0.71175,-0.04091 1.00627,-0.12272c0.31088,-0.09818 0.55631,-0.24543 0.73629,-0.44178c0.17999,-0.19635 0.26998,-0.45814 0.26998,-0.78538c0,-0.39269 -0.13908,-0.70357 -0.41724,-0.93264c-0.26179,-0.22907 -0.61358,-0.41724 -1.05535,-0.56449c-0.42542,-0.14726 -0.88355,-0.28633 -1.37441,-0.41723c-1.04717,-0.3436 -1.84073,-0.83447 -2.38068,-1.47259c-0.52358,-0.63812 -0.78538,-1.37441 -0.78538,-2.20888c0,-0.65448 0.16361,-1.27624 0.49086,-1.86527c0.3436,-0.60539 0.85901,-1.09626 1.54621,-1.47259c0.68721,-0.39269 1.54621,-0.58903 2.57703,-0.58903c0.93264,0 1.74255,0.10635 2.42976,0.31906c0.70357,0.2127 1.35806,0.55631 1.96345,1.03082l-1.2517,1.98799c-0.35996,-0.35996 -0.7772,-0.62994 -1.2517,-0.80992c-0.4745,-0.17999 -0.90809,-0.28634 -1.30078,-0.31906c-0.35996,-0.01636 -0.67902,0.03272 -0.95718,0.14726c-0.26179,0.09817 -0.48268,0.24544 -0.66267,0.44178c-0.17999,0.19635 -0.26998,0.42541 -0.26998,0.6872c0,0.39269 0.13908,0.70357 0.41724,0.93264c0.29451,0.22907 0.66266,0.41723 1.10444,0.56449c0.45813,0.1309 0.9081,0.27816 1.34987,0.44178c0.60539,0.16361 1.13717,0.40087 1.5953,0.71174c0.4745,0.31088 0.84266,0.68721 1.10444,1.12898c0.27815,0.44178 0.41723,0.98991 0.41723,1.64439c0,0.73629 -0.18816,1.43168 -0.56449,2.08616c-0.35996,0.65448 -0.91628,1.17807 -1.66893,1.57076c-0.73629,0.39269 -1.66894,0.58903 -2.79792,0.58903zM245.44766,259.63118c-0.949,0 -1.84892,-0.16361 -2.69974,-0.49086c-0.85082,-0.34361 -1.5544,-0.83446 -2.11071,-1.47258l1.37441,-1.84073c0.53994,0.52359 1.0799,0.9081 1.61984,1.15353c0.53994,0.24543 1.05535,0.36815 1.54621,0.36815c0.37633,0 0.71175,-0.04091 1.00627,-0.12272c0.31088,-0.09818 0.55631,-0.24543 0.73629,-0.44178c0.17999,-0.19635 0.26998,-0.45814 0.26998,-0.78538c0,-0.39269 -0.13908,-0.70357 -0.41724,-0.93264c-0.26179,-0.22907 -0.61358,-0.41724 -1.05535,-0.56449c-0.42542,-0.14726 -0.88355,-0.28633 -1.37441,-0.41723c-1.04717,-0.3436 -1.84073,-0.83447 -2.38068,-1.47259c-0.52358,-0.63812 -0.78538,-1.37441 -0.78538,-2.20888c0,-0.65448 0.16362,-1.27624 0.49086,-1.86527c0.3436,-0.60539 0.85901,-1.09626 1.54621,-1.47259c0.68721,-0.39269 1.54621,-0.58903 2.57702,-0.58903c0.93264,0 1.74256,0.10635 2.42977,0.31906c0.70357,0.2127 1.35805,0.55631 1.96344,1.03082l-1.25169,1.98799c-0.35996,-0.35996 -0.7772,-0.62994 -1.2517,-0.80992c-0.4745,-0.17999 -0.9081,-0.28634 -1.30079,-0.31906c-0.35996,-0.01636 -0.67902,0.03272 -0.95717,0.14726c-0.26179,0.09817 -0.48268,0.24544 -0.66267,0.44178c-0.17999,0.19635 -0.26998,0.42541 -0.26998,0.6872c0,0.39269 0.13908,0.70357 0.41724,0.93264c0.29451,0.22907 0.66266,0.41723 1.10444,0.56449c0.45813,0.1309 0.90809,0.27816 1.34987,0.44178c0.60539,0.16361 1.13717,0.40087 1.5953,0.71174c0.4745,0.31088 0.84265,0.68721 1.10444,1.12898c0.27815,0.44178 0.41724,0.98991 0.41724,1.64439c0,0.73629 -0.18816,1.43168 -0.56449,2.08616c-0.35996,0.65448 -0.91628,1.17807 -1.66893,1.57076c-0.73629,0.39269 -1.66893,0.58903 -2.79791,0.58903zM254.1129,246.96694h3.28878v12.39426h-3.28878zM253.96565,242.5001c0,-0.50722 0.19635,-0.92445 0.58903,-1.2517c0.40904,-0.3436 0.85082,-0.5154 1.32533,-0.5154c0.4745,0 0.89174,0.1718 1.2517,0.5154c0.37633,0.32725 0.56449,0.74448 0.56449,1.2517c0,0.50722 -0.18816,0.92445 -0.56449,1.2517c-0.35996,0.32725 -0.7772,0.49087 -1.2517,0.49087c-0.4745,0 -0.91628,-0.16362 -1.32533,-0.49087c-0.39269,-0.3436 -0.58903,-0.76084 -0.58903,-1.2517zM272.16694,258.20768c-0.55631,0.45814 -1.22716,0.81811 -2.01254,1.0799c-0.78538,0.26179 -1.57894,0.39269 -2.38067,0.39269c-1.37441,0 -2.57703,-0.26998 -3.60784,-0.80992c-1.03082,-0.53994 -1.84073,-1.2926 -2.42977,-2.25797c-0.57268,-0.96536 -0.85901,-2.11889 -0.85901,-3.46058c0,-1.35805 0.3027,-2.51976 0.9081,-3.48512c0.62176,-0.98173 1.43168,-1.7262 2.42977,-2.23342c1.01445,-0.52358 2.07798,-0.78538 3.1906,-0.78538c1.06354,0 1.99617,0.13908 2.79791,0.41723c0.80174,0.27815 1.48077,0.66267 2.03707,1.15353l-1.5953,2.13524c-0.31088,-0.24543 -0.71993,-0.48267 -1.22715,-0.71174c-0.49086,-0.22907 -1.06354,-0.3436 -1.71801,-0.3436c-0.63812,0 -1.23534,0.1718 -1.79165,0.5154c-0.53994,0.32725 -0.96536,0.7772 -1.27624,1.34987c-0.31088,0.57268 -0.46632,1.23534 -0.46632,1.98799c0,0.70357 0.16361,1.34988 0.49086,1.93891c0.32725,0.57268 0.7772,1.03081 1.34987,1.37441c0.58904,0.34361 1.25988,0.5154 2.01254,0.5154c0.52359,0 0.98991,-0.07363 1.39896,-0.22089c0.40904,-0.14725 0.77719,-0.34361 1.10444,-0.58904zM290.21321,259.68026l-7.1175,-12.71332h3.90236l4.46684,9.32638l-2.01254,-0.09817l4.04961,-9.22821h3.65692l-6.79844,12.71332zM305.42024,259.68026c-1.45623,0 -2.70792,-0.27816 -3.75509,-0.83447c-1.03082,-0.57268 -1.82437,-1.35805 -2.38068,-2.35614c-0.53994,-0.99808 -0.80992,-2.14343 -0.80992,-3.43603c0,-1.22716 0.31088,-2.33978 0.93264,-3.33786c0.63812,-1.01444 1.48894,-1.81619 2.55248,-2.40522c1.06354,-0.60539 2.24161,-0.9081 3.53421,-0.9081c1.68529,0 3.07608,0.49905 4.17233,1.49713c1.11262,0.98173 1.85709,2.3725 2.23342,4.17233l-9.98904,3.3624l-0.76084,-1.84073l7.82925,-2.79791l-0.71175,0.39269c-0.19635,-0.58903 -0.53995,-1.10444 -1.03082,-1.54621c-0.49086,-0.44178 -1.16171,-0.66267 -2.01253,-0.66267c-0.68721,0 -1.2926,0.1718 -1.81619,0.51541c-0.52359,0.32725 -0.94082,0.7772 -1.2517,1.34987c-0.31088,0.57268 -0.46632,1.2517 -0.46632,2.03707c0,0.81811 0.16362,1.52985 0.49087,2.13524c0.34361,0.58903 0.79356,1.04717 1.34987,1.37441c0.57268,0.32725 1.22716,0.49086 1.96345,0.49086c0.50722,0 0.98991,-0.08999 1.44804,-0.26998c0.45814,-0.17999 0.89991,-0.41723 1.32533,-0.71174l1.49713,2.42977c-0.65448,0.40904 -1.36623,0.73629 -2.13525,0.98172c-0.76902,0.24543 -1.50531,0.36815 -2.20887,0.36815zM318.09436,246.96694l0.26997,3.50966l-0.09817,-0.49086c0.32725,-0.73629 0.79356,-1.36623 1.39896,-1.88981c0.62176,-0.53994 1.25988,-0.95718 1.91436,-1.2517c0.65448,-0.29451 1.18624,-0.44178 1.5953,-0.44178l-0.14726,3.28877c-0.93264,-0.08182 -1.75074,0.08182 -2.4543,0.49086c-0.68721,0.40904 -1.22715,0.96536 -1.61984,1.66893c-0.39269,0.68721 -0.58904,1.41531 -0.58904,2.18434v5.32585h-3.23969v-12.39426zM330.28394,259.63118c-0.949,0 -1.84891,-0.16361 -2.69973,-0.49086c-0.85082,-0.34361 -1.5544,-0.83446 -2.11071,-1.47258l1.37441,-1.84073c0.53994,0.52359 1.0799,0.9081 1.61984,1.15353c0.53994,0.24543 1.05536,0.36815 1.54622,0.36815c0.37633,0 0.71175,-0.04091 1.00626,-0.12272c0.31088,-0.09818 0.55631,-0.24543 0.73629,-0.44178c0.17999,-0.19635 0.26998,-0.45814 0.26998,-0.78538c0,-0.39269 -0.13908,-0.70357 -0.41724,-0.93264c-0.26179,-0.22907 -0.61358,-0.41724 -1.05535,-0.56449c-0.42542,-0.14726 -0.88355,-0.28633 -1.37441,-0.41723c-1.04717,-0.3436 -1.84073,-0.83447 -2.38068,-1.47259c-0.52359,-0.63812 -0.78538,-1.37441 -0.78538,-2.20888c0,-0.65448 0.16361,-1.27624 0.49086,-1.86527c0.34361,-0.60539 0.85901,-1.09626 1.54621,-1.47259c0.68721,-0.39269 1.54621,-0.58903 2.57703,-0.58903c0.93264,0 1.74256,0.10635 2.42977,0.31906c0.70357,0.2127 1.35805,0.55631 1.96345,1.03082l-1.2517,1.98799c-0.35996,-0.35996 -0.77719,-0.62994 -1.2517,-0.80992c-0.47451,-0.17999 -0.90809,-0.28634 -1.30078,-0.31906c-0.35996,-0.01636 -0.67902,0.03272 -0.95718,0.14726c-0.26179,0.09817 -0.48267,0.24544 -0.66266,0.44178c-0.17999,0.19635 -0.26998,0.42541 -0.26998,0.6872c0,0.39269 0.13908,0.70357 0.41724,0.93264c0.29451,0.22907 0.66266,0.41723 1.10444,0.56449c0.45814,0.1309 0.9081,0.27816 1.34987,0.44178c0.60539,0.16361 1.13716,0.40087 1.5953,0.71174c0.47451,0.31088 0.84265,0.68721 1.10444,1.12898c0.27816,0.44178 0.41723,0.98991 0.41723,1.64439c0,0.73629 -0.18816,1.43168 -0.56449,2.08616c-0.35996,0.65448 -0.91628,1.17807 -1.66893,1.57076c-0.73629,0.39269 -1.66893,0.58903 -2.79791,0.58903zM338.94918,246.96694h3.28877v12.39426h-3.28877zM338.80193,242.5001c0,-0.50722 0.19635,-0.92445 0.58904,-1.2517c0.40904,-0.3436 0.85082,-0.5154 1.32533,-0.5154c0.47451,0 0.89173,0.1718 1.2517,0.5154c0.37633,0.32725 0.56449,0.74448 0.56449,1.2517c0,0.50722 -0.18816,0.92445 -0.56449,1.2517c-0.35996,0.32725 -0.77719,0.49087 -1.2517,0.49087c-0.47451,0 -0.91628,-0.16362 -1.32533,-0.49087c-0.39269,-0.3436 -0.58904,-0.76084 -0.58904,-1.2517zM345.71335,253.02908c0,-1.24352 0.29451,-2.36432 0.88355,-3.3624c0.60539,-1.01444 1.43169,-1.808 2.47886,-2.38068c1.06354,-0.58903 2.26614,-0.88355 3.60783,-0.88355c1.39077,0 2.59339,0.29452 3.60783,0.88355c1.03082,0.57268 1.82438,1.36623 2.38068,2.38068c0.57268,0.99808 0.85901,2.11889 0.85901,3.3624c0,1.25988 -0.28634,2.38887 -0.85901,3.38695c-0.55631,0.99808 -1.34988,1.79164 -2.38068,2.38067c-1.03082,0.58904 -2.24161,0.88355 -3.63238,0.88355c-1.34168,0 -2.53612,-0.26997 -3.58329,-0.80992c-1.04717,-0.53994 -1.87346,-1.30078 -2.47886,-2.28251c-0.58904,-0.99808 -0.88355,-2.18434 -0.88355,-3.55875zM349.02667,253.05362c0,0.71993 0.15544,1.3826 0.46632,1.98799c0.31088,0.58903 0.73629,1.06354 1.27624,1.42351c0.55631,0.34361 1.16989,0.5154 1.84073,0.5154c0.71994,0 1.34987,-0.1718 1.88982,-0.5154c0.53994,-0.35996 0.95718,-0.83447 1.2517,-1.42351c0.31088,-0.60539 0.46632,-1.26806 0.46632,-1.98799c0,-0.73629 -0.15544,-1.39896 -0.46632,-1.98799c-0.29451,-0.60539 -0.71175,-1.07989 -1.2517,-1.4235c-0.53994,-0.35996 -1.16988,-0.53995 -1.88982,-0.53995c-0.68721,0 -1.30079,0.17999 -1.84073,0.53995c-0.53994,0.35996 -0.96536,0.83446 -1.27624,1.4235c-0.31088,0.58903 -0.46632,1.2517 -0.46632,1.98799zM365.97785,246.96694l0.24543,2.6752l-0.07362,-0.36815c0.40904,-0.85082 1.03899,-1.53804 1.88981,-2.06162c0.86719,-0.52358 1.88164,-0.78538 3.04334,-0.78538c1.17807,0 2.14344,0.3436 2.89609,1.03081c0.76902,0.68721 1.16171,1.58712 1.17807,2.69974v9.20367h-3.26424v-8.0256c-0.01636,-0.62176 -0.19635,-1.1208 -0.53994,-1.49713c-0.32725,-0.39269 -0.85082,-0.59722 -1.57076,-0.61358c-0.67085,0 -1.26806,0.20452 -1.79164,0.61358c-0.52359,0.39269 -0.94082,0.94082 -1.2517,1.64439c-0.29451,0.68721 -0.44178,1.48076 -0.44178,2.38067v5.49766h-3.28877v-12.39426z" fill="#cdcdcd" stroke="#000000" stroke-width="4" stroke-linecap="square"/><path d="M378.44587,149.35488c0,0 -15.9713,-12.49168 -20.17019,10.00838c-4.45351,21.64781 24.78105,19.073 24.06541,39.5597c-0.94901,7.63465 -5.64951,18.01205 -17.44074,15.55035c-11.53255,-2.40769 -7.21682,-23.59375 -7.21682,-23.59375" fill="none" stroke="#000000" stroke-width="10" stroke-linecap="round"/><path d="M349.27347,146.2011c0,0 2.47749,68.1543 -11.82519,68.70577c-17.29295,-0.36168 -15.50751,-68.96858 -15.50751,-68.96858" fill="none" stroke="#000000" stroke-width="10" stroke-linecap="round"/><path d="M285.96988,187.38841c0,0 -4.80284,-0.03887 -6.30957,-0.05346c-1.04425,-0.01011 -1.83393,0.58378 -1.81378,1.61966c0.0964,4.95522 -0.02323,19.66824 -4.63167,24.10502c-2.14199,2.0622 -10.07508,2.12381 -12.67826,-5.80721c-4.46657,-13.60814 -2.9492,-41.03932 0.29369,-52.12689c3.92583,-13.42256 13.83857,-7.6849 13.83857,-7.6849" fill="none" stroke="#000000" stroke-width="10" stroke-linecap="round"/><path d="M285.96988,187.38842c0,0 -4.80284,-0.03887 -6.30957,-0.05346c-1.04425,-0.01011 -1.83393,0.58376 -1.81378,1.61965c0.09641,4.95522 -0.02321,19.66824 -4.63166,24.10502c-5.81723,5.60054 -12.85864,-3.08621 -13.71026,-6.09659c-0.82372,-2.91172 -3.8072,-34.28794 1.32569,-51.83752c3.92582,-13.42255 13.83857,-7.6849 13.83857,-7.6849" fill="none" stroke="#000000" stroke-width="10" stroke-linecap="round"/><path d="M249.17587,145.60094c0,0 0.99737,27.87016 0.85726,40.19944c-0.09355,8.23215 -1.05109,23.58609 -1.46106,28.93491c-0.11319,1.4768 -0.36388,-0.36556 -0.61173,-1.21483c-0.60477,-2.07233 -3.6454,-11.10169 -6.47517,-22.30773c-1.97219,-7.80996 -3.43649,-16.94751 -5.60761,-24.38724c-2.42404,-8.30639 -4.99567,-14.52893 -5.9062,-17.649c-0.32612,-1.11748 -1.30211,-3.1832 -1.31133,-1.98863c-0.05154,6.67479 -0.50931,68.32173 -0.50931,68.32173" fill="none" stroke="#000000" stroke-width="10" stroke-linecap="round"/><path d="M218.6894,178.84699c0,18.36127 -3.78893,35.87417 -7.49021,35.87417c-5.27817,0 -10.38117,-1.48122 -10.9068,-41.65609c-0.24021,-18.3597 3.52612,-27.4641 7.2274,-27.4641c7.11787,0 11.16961,14.88475 11.16961,33.24602z" fill="none" stroke="#000000" stroke-width="10" stroke-linecap="butt"/><path d="M147.97895,215.97525c0,0 9.9522,-61.41699 11.3055,-69.21837c0.26349,-1.51892 12.58071,68.50535 12.58071,68.50535" fill="none" stroke="#000000" stroke-width="10" stroke-linecap="round"/><path d="M171.84524,214.99941c0,0 11.26596,-69.76145 11.52945,-68.24253c1.3533,7.80138 9.72861,68.69274 9.72861,68.69274" data-paper-data="{&quot;index&quot;:null}" fill="none" stroke="#000000" stroke-width="10" stroke-linecap="round"/><path d="M134.13189,159.27018c0,0 4.22196,-0.13374 7.45121,8.27733c2.04199,4.89708 2.68937,18.01058 2.86155,20.05213c0.30436,3.60887 -5.94228,6.21813 -5.94228,6.21813" fill="none" stroke="#000000" stroke-width="10" stroke-linecap="round"/><path d="M106.2337,171.69696c-0.57704,-1.89178 -0.40584,-4.81895 -0.40584,-6.39135c0,-0.63267 1.1038,-5.94307 4.524,-6.86281c2.5605,-0.68855 8.62574,-0.4333 12.87398,0.75646c2.4026,0.67288 4.34844,6.37122 3.53532,10.8779c-0.63753,3.53352 -2.46236,4.59375 -4.28385,4.59375c-2.1202,0 -7.27273,0.10722 -10.81298,-0.13426c-2.27048,-0.15488 -4.98396,-1.37535 -5.43062,-2.8397z" fill="none" stroke="#000000" stroke-width="10" stroke-linecap="butt"/><path d="M97.94222,214.25656c-0.37959,-5.6952 -1.65202,-29.6093 2.28136,-47.75995c1.01526,-4.68495 3.83009,-18.38649 12.82256,-20.38236c5.43133,-1.20548 15.85842,1.08626 20.00775,12.05479c3.4118,9.0189 4.12402,21.33936 4.81345,31.98429c0.69612,10.74821 1.35221,19.79493 1.22779,23.41519c-0.03521,1.02462 -0.51532,1.5909 -1.32192,1.59792c-1.7363,0.0151 -8.85489,0.07426 -11.88713,0.09942c-0.84938,0.00705 -1.47436,-0.62368 -1.6373,-1.65031c-0.45136,-2.84384 -0.50812,-8.74165 -0.49466,-12.41688c0.00289,-0.78988 -0.3529,-1.53741 -0.76772,-2.13975c-0.57655,-0.83718 -1.69336,-1.38217 -2.78419,-1.363c-2.02949,0.03567 -5.51141,0.09724 -6.85416,0.15759c-1.29677,0.05828 -2.66984,1.99102 -2.68721,3.16897c-0.0413,2.80163 -0.20931,14.19744 -0.20931,14.19744c0,0 -9.92966,0.27045 -10.74478,0.27753c-0.92526,0.00805 -1.71027,-0.42723 -1.7645,-1.24088z" fill="none" stroke="#000000" stroke-width="10" stroke-linecap="butt"/><path d="M97.94223,214.25656c-0.37959,-5.6952 -1.65202,-29.6093 2.28136,-47.75995c1.01526,-4.68495 3.83009,-18.38649 12.82256,-20.38236c5.43133,-1.20548 15.85842,1.08626 20.00775,12.05479c3.4118,9.0189 4.12402,21.33936 4.81345,31.98429c0.69612,10.74821 1.35221,19.79493 1.22779,23.41519c-0.03521,1.02462 -0.51532,1.5909 -1.32192,1.59792c-1.7363,0.0151 -8.85489,0.07426 -11.88713,0.09942c-0.84938,0.00705 -1.47436,-0.62368 -1.6373,-1.65031c-0.45136,-2.84384 -0.50812,-8.74165 -0.49466,-12.41688c0.00289,-0.78988 -0.35291,-1.53742 -0.76773,-2.13976c-0.57655,-0.83718 -1.69336,-1.38217 -2.78419,-1.36299c-2.02949,0.03567 -5.51141,0.09724 -6.85416,0.15759c-1.29678,0.05828 -2.66984,1.99102 -2.6872,3.16897c-0.04131,2.80163 -0.20932,14.19744 -0.20932,14.19744c0,0 -9.92966,0.27045 -10.74478,0.27753c-0.92526,0.00805 -1.71027,-0.42723 -1.7645,-1.24088z" fill="none" stroke="#000000" stroke-width="10" stroke-linecap="butt"/><path d="M134.13189,159.27018c0,0 4.22196,-0.13374 7.45121,8.27733c2.04199,4.89708 2.68937,18.01058 2.86155,20.05213c0.30436,3.60887 -5.94228,6.21813 -5.94228,6.21813" fill="none" stroke="#000000" stroke-width="10" stroke-linecap="round"/><path d="M147.97895,215.97525c0,0 9.9522,-61.41699 11.3055,-69.21837c0.26349,-1.51892 12.58071,68.50535 12.58071,68.50535" fill="none" stroke="#000000" stroke-width="10" stroke-linecap="round"/><path d="M171.84524,215.26222c0,0 11.26596,-70.02427 11.52944,-68.50535c1.3533,7.80138 9.72861,68.69274 9.72861,68.69274" data-paper-data="{&quot;index&quot;:null}" fill="none" stroke="#000000" stroke-width="10" stroke-linecap="round"/><path d="M218.6894,178.84699c0,15.77214 -2.40786,30.91831 -5.76602,34.87622c-0.55127,0.64972 -2.83527,0.98148 -3.38273,0.90493c-4.64483,-0.64949 -8.77805,-5.62412 -9.24826,-41.56307c-0.24021,-18.3597 3.52611,-27.4641 7.2274,-27.4641c7.11787,0 11.16961,14.88475 11.16961,33.24602z" fill="none" stroke="#000000" stroke-width="10" stroke-linecap="butt"/><path d="M249.17588,145.60095c0,0 0.99737,27.87016 0.85726,40.19944c-0.09355,8.23215 -1.31391,23.58609 -1.72387,28.93491c-0.11319,1.4768 -0.10107,-0.36556 -0.34892,-1.21483c-0.60477,-2.07234 -3.6454,-11.1017 -6.47517,-22.30774c-1.97219,-7.80996 -3.43648,-16.94751 -5.60761,-24.38724c-2.42405,-8.30638 -6.04693,-16.36862 -6.95746,-19.48869c-0.32612,-1.11748 -0.25086,1.02183 -0.26008,2.2164c-0.05154,6.67479 -0.50931,65.9564 -0.50931,65.9564" fill="none" stroke="#000000" stroke-width="10" stroke-linecap="round"/><path d="M285.96988,187.38841c0,0 -4.80284,-0.03887 -6.30957,-0.05346c-1.04425,-0.01011 -1.83393,0.58378 -1.81378,1.61966c0.0964,4.95522 -0.02323,19.66824 -4.63167,24.10502c-2.14199,2.0622 -10.07508,2.12381 -12.67826,-5.80721c-4.46657,-13.60814 -2.9492,-41.03932 0.29369,-52.12689c3.92583,-13.42256 13.83857,-7.6849 13.83857,-7.6849" fill="none" stroke="#000000" stroke-width="10" stroke-linecap="round"/><path d="M349.27347,146.2011c0,0 2.47749,68.1543 -11.82519,68.70577c-17.29295,-0.36167 -15.50751,-68.96858 -15.50751,-68.96858" fill="none" stroke="#000000" stroke-width="10" stroke-linecap="round"/><path d="M378.44587,149.35488c0,0 -15.9713,-12.49168 -20.17019,10.00838c-4.45351,21.64781 24.78105,19.07301 24.06541,39.5597c-0.94901,7.63465 -5.64951,18.01205 -17.44074,15.55035c-11.53255,-2.4077 -7.21682,-23.59374 -7.21682,-23.59374" fill="none" stroke="#000000" stroke-width="10" stroke-linecap="round"/><path d="M378.44587,149.35488c0,0 -15.9713,-12.49168 -20.17019,10.00838c-4.45351,21.64781 24.78105,19.073 24.06541,39.5597c-0.94901,7.63465 -5.64951,18.01205 -17.44074,15.55035c-11.53255,-2.40769 -7.21682,-23.59375 -7.21682,-23.59375" fill="none" stroke="#000000" stroke-width="6" stroke-linecap="round"/><path d="M349.27347,146.2011c0,0 2.47749,68.1543 -11.82519,68.70577c-17.29295,-0.36168 -15.50751,-68.96858 -15.50751,-68.96858" fill="none" stroke="#000000" stroke-width="6" stroke-linecap="round"/><path d="M285.96988,187.38841c0,0 -4.80284,-0.03887 -6.30957,-0.05346c-1.04425,-0.01011 -1.83393,0.58378 -1.81378,1.61966c0.0964,4.95522 -0.02323,19.66824 -4.63167,24.10502c-2.14199,2.0622 -10.07508,2.12381 -12.67826,-5.80721c-4.46657,-13.60814 -2.9492,-41.03932 0.29369,-52.12689c3.92583,-13.42256 13.83857,-7.6849 13.83857,-7.6849" fill="none" stroke="#000000" stroke-width="6" stroke-linecap="round"/><path d="M285.96988,187.38842c0,0 -4.80284,-0.03887 -6.30957,-0.05346c-1.04425,-0.01011 -1.83393,0.58376 -1.81378,1.61965c0.09641,4.95522 -0.02321,19.66824 -4.63166,24.10502c-5.81723,5.60054 -12.85864,-3.08621 -13.71026,-6.09659c-0.82372,-2.91172 -3.8072,-34.28794 1.32569,-51.83752c3.92582,-13.42255 13.83857,-7.6849 13.83857,-7.6849" fill="none" stroke="#ffffff" stroke-width="4" stroke-linecap="round"/><path d="M249.17587,145.60094c0,0 0.99737,27.87016 0.85726,40.19944c-0.09355,8.23215 -1.05109,23.58609 -1.46106,28.93491c-0.11319,1.4768 -0.36388,-0.36556 -0.61173,-1.21483c-0.60477,-2.07233 -3.6454,-11.10169 -6.47517,-22.30773c-1.97219,-7.80996 -3.43649,-16.94751 -5.60761,-24.38724c-2.42404,-8.30639 -4.99567,-14.52893 -5.9062,-17.649c-0.32612,-1.11748 -1.30211,-3.1832 -1.31133,-1.98863c-0.05154,6.67479 -0.50931,68.32173 -0.50931,68.32173" fill="none" stroke="#000000" stroke-width="6" stroke-linecap="round"/><path d="M218.6894,178.84699c0,18.36127 -3.78893,35.87417 -7.49021,35.87417c-5.27817,0 -10.38117,-1.48122 -10.9068,-41.65609c-0.24021,-18.3597 3.52612,-27.4641 7.2274,-27.4641c7.11787,0 11.16961,14.88475 11.16961,33.24602z" fill="none" stroke="#000000" stroke-width="6" stroke-linecap="butt"/><path d="M147.97895,215.97525c0,0 9.9522,-61.41699 11.3055,-69.21837c0.26349,-1.51892 12.58071,68.50535 12.58071,68.50535" fill="none" stroke="#000000" stroke-width="6" stroke-linecap="round"/><path d="M171.84524,214.99941c0,0 11.26596,-69.76145 11.52945,-68.24253c1.3533,7.80138 9.72861,68.69274 9.72861,68.69274" data-paper-data="{&quot;index&quot;:null}" fill="none" stroke="#000000" stroke-width="6" stroke-linecap="round"/><path d="M134.13189,159.27018c0,0 4.22196,-0.13374 7.45121,8.27733c2.04199,4.89708 2.68937,18.01058 2.86155,20.05213c0.30436,3.60887 -5.94228,6.21813 -5.94228,6.21813" fill="none" stroke="#000000" stroke-width="6" stroke-linecap="round"/><path d="" fill="none" stroke="#000000" stroke-width="6" stroke-linecap="butt"/><path d="M97.94223,214.25656c-0.37959,-5.6952 -1.65202,-29.6093 2.28136,-47.75995c1.01526,-4.68495 3.83009,-18.38649 12.82256,-20.38236c5.43133,-1.20548 15.85842,1.08626 20.00775,12.05479c3.4118,9.0189 4.12402,21.33936 4.81345,31.98429c0.69612,10.74821 1.35221,19.79493 1.22779,23.41519c-0.03521,1.02462 -0.51532,1.5909 -1.32192,1.59792c-1.7363,0.0151 -8.85489,0.07426 -11.88713,0.09942c-0.84938,0.00705 -1.47436,-0.62368 -1.6373,-1.65031c-0.45136,-2.84384 -0.50812,-8.74165 -0.49466,-12.41688c0.00289,-0.78988 -0.35291,-1.53742 -0.76773,-2.13976c-0.57655,-0.83718 -1.69336,-1.38217 -2.78419,-1.36299c-2.02949,0.03567 -5.51141,0.09724 -6.85416,0.15759c-1.29678,0.05828 -2.66984,1.99102 -2.6872,3.16897c-0.04131,2.80163 -0.20932,14.19744 -0.20932,14.19744c0,0 -9.92966,0.27045 -10.74478,0.27753c-0.92526,0.00805 -1.71027,-0.42723 -1.7645,-1.24088z" fill="#000000" stroke="#ffffff" stroke-width="4" stroke-linecap="butt"/><path d="M105.82786,165.30561c0,-0.63267 1.1038,-5.94308 4.524,-6.86281c2.56049,-0.68855 8.62574,-0.43331 12.87398,0.75646c2.40261,0.67287 4.34844,6.37121 3.53532,10.87791c-0.63754,3.53352 -2.46236,4.59376 -4.28385,4.59376c-2.1202,0 -7.27273,0.10722 -10.81298,-0.13426c-2.27047,-0.15487 -4.98396,-1.37535 -5.43062,-2.8397c0,0 -0.40585,-4.81896 -0.40585,-6.39136z" fill="none" stroke="#ffffff" stroke-width="4" stroke-linecap="butt"/><path d="M134.13189,159.27018c0,0 4.22196,-0.13374 7.45121,8.27733c2.04199,4.89708 2.68937,18.01058 2.86155,20.05213c0.30436,3.60887 -5.94228,6.21813 -5.94228,6.21813" fill="none" stroke="#ffffff" stroke-width="4" stroke-linecap="round"/><path d="M147.97895,215.97525c0,0 9.9522,-61.41699 11.3055,-69.21837c0.26349,-1.51892 12.58071,68.50535 12.58071,68.50535" fill="none" stroke="#ffffff" stroke-width="4" stroke-linecap="round"/><path d="M171.84524,215.26222c0,0 11.26596,-70.02427 11.52944,-68.50535c1.3533,7.80138 9.72861,68.69274 9.72861,68.69274" data-paper-data="{&quot;index&quot;:null}" fill="none" stroke="#ffffff" stroke-width="4" stroke-linecap="round"/><path d="M218.6894,178.84699c0,15.77214 -2.40786,30.91831 -5.76602,34.87622c-0.55127,0.64972 -2.83527,0.98148 -3.38273,0.90493c-4.64483,-0.64949 -8.77805,-5.62412 -9.24826,-41.56307c-0.24021,-18.3597 3.52611,-27.4641 7.2274,-27.4641c7.11787,0 11.16961,14.88475 11.16961,33.24602z" fill="none" stroke="#ffffff" stroke-width="4" stroke-linecap="butt"/><path d="M249.17588,145.60095c0,0 0.99737,27.87016 0.85726,40.19944c-0.09355,8.23215 -1.31391,23.58609 -1.72387,28.93491c-0.11319,1.4768 -0.10107,-0.36556 -0.34892,-1.21483c-0.60477,-2.07234 -3.6454,-11.1017 -6.47517,-22.30774c-1.97219,-7.80996 -3.43648,-16.94751 -5.60761,-24.38724c-2.42405,-8.30638 -6.04693,-16.36862 -6.95746,-19.48869c-0.32612,-1.11748 -0.25086,1.02183 -0.26008,2.2164c-0.05154,6.67479 -0.50931,65.9564 -0.50931,65.9564" fill="none" stroke="#ffffff" stroke-width="4" stroke-linecap="round"/><path d="M285.96988,187.38841c0,0 -4.80284,-0.03887 -6.30957,-0.05346c-1.04425,-0.01011 -1.83393,0.58378 -1.81378,1.61966c0.0964,4.95522 -0.02323,19.66824 -4.63167,24.10502c-2.14199,2.0622 -10.07508,2.12381 -12.67826,-5.80721c-4.46657,-13.60814 -2.9492,-41.03932 0.29369,-52.12689c3.92583,-13.42256 13.83857,-7.6849 13.83857,-7.6849" fill="none" stroke="#ffffff" stroke-width="4" stroke-linecap="round"/><path d="M349.27347,146.2011c0,0 2.47749,68.1543 -11.82519,68.70577c-17.29295,-0.36167 -15.50751,-68.96858 -15.50751,-68.96858" fill="none" stroke="#ffffff" stroke-width="4" stroke-linecap="round"/><path d="M378.44587,149.35488c0,0 -15.9713,-12.49168 -20.17019,10.00838c-4.45351,21.64781 24.78105,19.07301 24.06541,39.5597c-0.94901,7.63465 -5.64951,18.01205 -17.44074,15.55035c-11.53255,-2.4077 -7.21682,-23.59374 -7.21682,-23.59374" fill="none" stroke="#ffffff" stroke-width="4" stroke-linecap="round"/><path d="M418.10976,180.05042c0,34.78209 -84.11511,62.97854 -187.87635,62.97854c-103.76124,0 -187.87634,-28.19645 -187.87634,-62.97854c0,-34.78209 84.1151,-62.97854 187.87634,-62.97854c103.76124,0 187.87635,28.19645 187.87635,62.97854z" fill="none" stroke="none" stroke-width="NaN" stroke-linecap="butt"/><path d="M200.15787,257.69227c-0.31088,0.21271 -0.7772,0.4745 -1.39896,0.78538c-0.60539,0.31088 -1.33351,0.58085 -2.18434,0.80992c-0.85082,0.22907 -1.79164,0.33542 -2.82246,0.31906c-1.66893,-0.03272 -3.16606,-0.33542 -4.49139,-0.90809c-1.32533,-0.57268 -2.44613,-1.34987 -3.3624,-2.3316c-0.91628,-0.99808 -1.62803,-2.13525 -2.13525,-3.41149c-0.49086,-1.27624 -0.73629,-2.6343 -0.73629,-4.07416c0,-1.63621 0.25362,-3.12516 0.76084,-4.46684c0.50722,-1.34169 1.22715,-2.5034 2.15979,-3.48512c0.93264,-0.99808 2.04526,-1.76711 3.33786,-2.30705c1.2926,-0.55631 2.69974,-0.83447 4.22141,-0.83447c1.35805,0 2.56884,0.17999 3.63238,0.53994c1.06354,0.35996 1.95527,0.76902 2.6752,1.22715l-1.34987,3.1906c-0.55631,-0.37633 -1.24351,-0.74448 -2.06162,-1.10444c-0.81811,-0.37633 -1.74256,-0.56449 -2.77337,-0.56449c-0.93264,0 -1.83255,0.19635 -2.69974,0.58904c-0.85082,0.37633 -1.60348,0.90809 -2.25797,1.5953c-0.63812,0.68721 -1.15353,1.49713 -1.54621,2.42977c-0.37633,0.91628 -0.56449,1.90618 -0.56449,2.96971c0,1.11262 0.1718,2.14343 0.51541,3.09243c0.3436,0.93264 0.83447,1.73437 1.47258,2.40522c0.63812,0.67085 1.39896,1.20261 2.28251,1.5953c0.88355,0.37633 1.88164,0.56449 2.99426,0.56449c1.09626,0 2.06162,-0.1718 2.89609,-0.51541c0.83447,-0.3436 1.50532,-0.72811 2.01254,-1.15353zM204.03151,236.51158h3.28877v22.84962h-3.28877zM217.00512,259.68026c-1.14534,0 -2.19252,-0.24543 -3.14152,-0.73629c-0.949,-0.49086 -1.70166,-1.21897 -2.25797,-2.18434c-0.53994,-0.96536 -0.80992,-2.15979 -0.80992,-3.58329c0,-1.40714 0.28633,-2.60975 0.85901,-3.60783c0.58904,-1.01445 1.34987,-1.79164 2.28251,-2.3316c0.949,-0.55631 1.9798,-0.83447 3.09243,-0.83447c1.19443,0 2.15979,0.24543 2.89609,0.73629c0.73629,0.4745 1.30897,1.02263 1.71802,1.64439l-0.1718,0.46632l0.31906,-2.28251h3.0188v12.39426h-3.28877v-3.0188l0.31906,0.78538c-0.04908,0.11453 -0.19635,0.31088 -0.44178,0.58904c-0.24543,0.26179 -0.57268,0.54813 -0.98172,0.85901c-0.40905,0.31088 -0.89174,0.57268 -1.44805,0.78538c-0.55631,0.21271 -1.21079,0.31906 -1.96345,0.31906zM217.91321,256.98052c0.60539,0 1.15353,-0.10635 1.64439,-0.31906c0.49086,-0.21271 0.89991,-0.51541 1.22715,-0.90809c0.3436,-0.39269 0.58904,-0.85901 0.73629,-1.39896v-2.69974c-0.14726,-0.50722 -0.40087,-0.949 -0.76084,-1.32533c-0.3436,-0.39269 -0.76902,-0.69539 -1.27624,-0.90809c-0.49086,-0.21271 -1.03899,-0.31906 -1.64439,-0.31906c-0.68721,0 -1.30897,0.1718 -1.86527,0.51541c-0.55631,0.32725 -1.00627,0.78538 -1.34987,1.37441c-0.3436,0.57268 -0.51541,1.24351 -0.51541,2.01254c0,0.73629 0.1718,1.40714 0.51541,2.01254c0.35996,0.60539 0.83447,1.08808 1.4235,1.44805c0.58904,0.3436 1.21079,0.51541 1.86527,0.51541zM233.05185,259.63117c-0.949,0 -1.84891,-0.16362 -2.69974,-0.49086c-0.85082,-0.3436 -1.5544,-0.83447 -2.11071,-1.47258l1.37441,-1.84073c0.53994,0.52359 1.0799,0.90809 1.61984,1.15353c0.53994,0.24543 1.05535,0.36815 1.54621,0.36815c0.37633,0 0.71175,-0.0409 1.00627,-0.12272c0.31088,-0.09817 0.55631,-0.24543 0.73629,-0.44178c0.17999,-0.19635 0.26998,-0.45814 0.26998,-0.78538c0,-0.39269 -0.13908,-0.70357 -0.41723,-0.93264c-0.26179,-0.22907 -0.61358,-0.41723 -1.05535,-0.56449c-0.42542,-0.14726 -0.88355,-0.28633 -1.37441,-0.41723c-1.04717,-0.3436 -1.84073,-0.83447 -2.38068,-1.47258c-0.52359,-0.63812 -0.78538,-1.37441 -0.78538,-2.20888c0,-0.65448 0.16362,-1.27624 0.49086,-1.86527c0.3436,-0.60539 0.85901,-1.09626 1.54621,-1.47258c0.68721,-0.39269 1.54621,-0.58904 2.57703,-0.58904c0.93264,0 1.74256,0.10635 2.42977,0.31906c0.70357,0.21271 1.35805,0.55631 1.96345,1.03081l-1.2517,1.98799c-0.35996,-0.35996 -0.7772,-0.62994 -1.2517,-0.80992c-0.4745,-0.17999 -0.90809,-0.28633 -1.30078,-0.31906c-0.35996,-0.01636 -0.67902,0.03272 -0.95718,0.14726c-0.26179,0.09817 -0.48268,0.24543 -0.66266,0.44178c-0.17999,0.19635 -0.26998,0.42542 -0.26998,0.68721c0,0.39269 0.13908,0.70357 0.41723,0.93264c0.29451,0.22907 0.66266,0.41723 1.10444,0.56449c0.45814,0.1309 0.90809,0.27816 1.34987,0.44178c0.60539,0.16362 1.13717,0.40087 1.5953,0.71175c0.4745,0.31088 0.84265,0.68721 1.10444,1.12898c0.27816,0.44178 0.41723,0.98991 0.41723,1.64439c0,0.73629 -0.18816,1.43168 -0.56449,2.08616c-0.35996,0.65448 -0.91628,1.17807 -1.66893,1.57076c-0.73629,0.39269 -1.66893,0.58904 -2.79791,0.58904zM245.44765,259.63117c-0.949,0 -1.84891,-0.16362 -2.69974,-0.49086c-0.85082,-0.3436 -1.5544,-0.83447 -2.11071,-1.47258l1.37441,-1.84073c0.53994,0.52359 1.0799,0.90809 1.61984,1.15353c0.53994,0.24543 1.05535,0.36815 1.54621,0.36815c0.37633,0 0.71175,-0.0409 1.00627,-0.12272c0.31088,-0.09817 0.55631,-0.24543 0.73629,-0.44178c0.17999,-0.19635 0.26998,-0.45814 0.26998,-0.78538c0,-0.39269 -0.13908,-0.70357 -0.41723,-0.93264c-0.26179,-0.22907 -0.61358,-0.41723 -1.05535,-0.56449c-0.42542,-0.14726 -0.88355,-0.28633 -1.37441,-0.41723c-1.04717,-0.3436 -1.84073,-0.83447 -2.38068,-1.47258c-0.52359,-0.63812 -0.78538,-1.37441 -0.78538,-2.20888c0,-0.65448 0.16362,-1.27624 0.49086,-1.86527c0.3436,-0.60539 0.85901,-1.09626 1.54621,-1.47258c0.68721,-0.39269 1.54621,-0.58904 2.57703,-0.58904c0.93264,0 1.74256,0.10635 2.42977,0.31906c0.70357,0.21271 1.35805,0.55631 1.96345,1.03081l-1.2517,1.98799c-0.35996,-0.35996 -0.7772,-0.62994 -1.2517,-0.80992c-0.4745,-0.17999 -0.90809,-0.28633 -1.30078,-0.31906c-0.35996,-0.01636 -0.67902,0.03272 -0.95718,0.14726c-0.26179,0.09817 -0.48268,0.24543 -0.66266,0.44178c-0.17999,0.19635 -0.26998,0.42542 -0.26998,0.68721c0,0.39269 0.13908,0.70357 0.41723,0.93264c0.29451,0.22907 0.66266,0.41723 1.10444,0.56449c0.45814,0.1309 0.90809,0.27816 1.34987,0.44178c0.60539,0.16362 1.13717,0.40087 1.5953,0.71175c0.4745,0.31088 0.84265,0.68721 1.10444,1.12898c0.27816,0.44178 0.41723,0.98991 0.41723,1.64439c0,0.73629 -0.18816,1.43168 -0.56449,2.08616c-0.35996,0.65448 -0.91628,1.17807 -1.66893,1.57076c-0.73629,0.39269 -1.66893,0.58904 -2.79791,0.58904zM254.1129,246.96694h3.28877v12.39426h-3.28877zM253.96564,242.50009c0,-0.50722 0.19635,-0.92445 0.58904,-1.2517c0.40905,-0.3436 0.85082,-0.51541 1.32533,-0.51541c0.4745,0 0.89174,0.1718 1.2517,0.51541c0.37633,0.32725 0.56449,0.74448 0.56449,1.2517c0,0.50722 -0.18816,0.92445 -0.56449,1.2517c-0.35996,0.32725 -0.7772,0.49086 -1.2517,0.49086c-0.4745,0 -0.91628,-0.16362 -1.32533,-0.49086c-0.39269,-0.3436 -0.58904,-0.76084 -0.58904,-1.2517zM272.16693,258.20767c-0.55631,0.45814 -1.22715,0.81811 -2.01254,1.0799c-0.78538,0.26179 -1.57894,0.39269 -2.38068,0.39269c-1.37441,0 -2.57703,-0.26998 -3.60783,-0.80992c-1.03081,-0.53994 -1.84073,-1.2926 -2.42977,-2.25797c-0.57268,-0.96536 -0.85901,-2.11889 -0.85901,-3.46058c0,-1.35805 0.3027,-2.51976 0.90809,-3.48512c0.62176,-0.98172 1.43168,-1.7262 2.42977,-2.23342c1.01445,-0.52359 2.07798,-0.78538 3.1906,-0.78538c1.06354,0 1.99618,0.13908 2.79791,0.41723c0.80174,0.27816 1.48077,0.66266 2.03707,1.15353l-1.5953,2.13525c-0.31088,-0.24543 -0.71993,-0.48268 -1.22715,-0.71175c-0.49086,-0.22907 -1.06354,-0.3436 -1.71802,-0.3436c-0.63812,0 -1.23534,0.1718 -1.79164,0.51541c-0.53994,0.32725 -0.96536,0.7772 -1.27624,1.34987c-0.31088,0.57268 -0.46632,1.23534 -0.46632,1.98799c0,0.70357 0.16362,1.34987 0.49086,1.93891c0.32725,0.57268 0.7772,1.03081 1.34987,1.37441c0.58904,0.3436 1.25988,0.51541 2.01254,0.51541c0.52359,0 0.98991,-0.07363 1.39896,-0.22089c0.40905,-0.14726 0.7772,-0.3436 1.10444,-0.58904zM290.2132,259.68026l-7.1175,-12.71332h3.90235l4.46684,9.32637l-2.01254,-0.09817l4.04961,-9.22821h3.65692l-6.79844,12.71332zM305.42024,259.68026c-1.45623,0 -2.70792,-0.27816 -3.7551,-0.83447c-1.03081,-0.57268 -1.82437,-1.35805 -2.38068,-2.35614c-0.53994,-0.99808 -0.80992,-2.14343 -0.80992,-3.43604c0,-1.22715 0.31088,-2.33977 0.93264,-3.33786c0.63812,-1.01445 1.48894,-1.81619 2.55248,-2.40522c1.06354,-0.60539 2.24161,-0.90809 3.5342,-0.90809c1.68529,0 3.07607,0.49905 4.17233,1.49713c1.11262,0.98172 1.85709,2.3725 2.23342,4.17233l-9.98904,3.3624l-0.76084,-1.84073l7.82925,-2.79791l-0.71175,0.39269c-0.19635,-0.58904 -0.53994,-1.10444 -1.03081,-1.54621c-0.49086,-0.44178 -1.16171,-0.66266 -2.01254,-0.66266c-0.68721,0 -1.2926,0.1718 -1.81619,0.51541c-0.52359,0.32725 -0.94082,0.7772 -1.2517,1.34987c-0.31088,0.57268 -0.46632,1.2517 -0.46632,2.03707c0,0.81811 0.16362,1.52985 0.49086,2.13525c0.3436,0.58904 0.79356,1.04717 1.34987,1.37441c0.57268,0.32725 1.22715,0.49086 1.96345,0.49086c0.50722,0 0.98991,-0.08999 1.44805,-0.26998c0.45814,-0.17999 0.89991,-0.41723 1.32533,-0.71175l1.49713,2.42977c-0.65448,0.40905 -1.36623,0.73629 -2.13525,0.98172c-0.76902,0.24543 -1.50532,0.36815 -2.20888,0.36815zM318.09435,246.96694l0.26998,3.50967l-0.09817,-0.49086c0.32725,-0.73629 0.79356,-1.36623 1.39896,-1.88982c0.62176,-0.53994 1.25988,-0.95718 1.91436,-1.2517c0.65448,-0.29451 1.18625,-0.44178 1.5953,-0.44178l-0.14726,3.28877c-0.93264,-0.08181 -1.75075,0.08181 -2.45431,0.49086c-0.68721,0.40905 -1.22715,0.96536 -1.61984,1.66893c-0.39269,0.68721 -0.58904,1.41531 -0.58904,2.18434v5.32585h-3.23969v-12.39426zM330.28394,259.63117c-0.949,0 -1.84891,-0.16362 -2.69974,-0.49086c-0.85082,-0.3436 -1.5544,-0.83447 -2.11071,-1.47258l1.37441,-1.84073c0.53994,0.52359 1.0799,0.90809 1.61984,1.15353c0.53994,0.24543 1.05535,0.36815 1.54621,0.36815c0.37633,0 0.71175,-0.0409 1.00627,-0.12272c0.31088,-0.09817 0.55631,-0.24543 0.73629,-0.44178c0.17999,-0.19635 0.26998,-0.45814 0.26998,-0.78538c0,-0.39269 -0.13908,-0.70357 -0.41723,-0.93264c-0.26179,-0.22907 -0.61358,-0.41723 -1.05535,-0.56449c-0.42542,-0.14726 -0.88355,-0.28633 -1.37441,-0.41723c-1.04717,-0.3436 -1.84073,-0.83447 -2.38068,-1.47258c-0.52359,-0.63812 -0.78538,-1.37441 -0.78538,-2.20888c0,-0.65448 0.16362,-1.27624 0.49086,-1.86527c0.3436,-0.60539 0.85901,-1.09626 1.54621,-1.47258c0.68721,-0.39269 1.54621,-0.58904 2.57703,-0.58904c0.93264,0 1.74256,0.10635 2.42977,0.31906c0.70357,0.21271 1.35805,0.55631 1.96345,1.03081l-1.2517,1.98799c-0.35996,-0.35996 -0.7772,-0.62994 -1.2517,-0.80992c-0.4745,-0.17999 -0.90809,-0.28633 -1.30078,-0.31906c-0.35996,-0.01636 -0.67902,0.03272 -0.95718,0.14726c-0.26179,0.09817 -0.48268,0.24543 -0.66266,0.44178c-0.17999,0.19635 -0.26998,0.42542 -0.26998,0.68721c0,0.39269 0.13908,0.70357 0.41723,0.93264c0.29451,0.22907 0.66266,0.41723 1.10444,0.56449c0.45814,0.1309 0.90809,0.27816 1.34987,0.44178c0.60539,0.16362 1.13717,0.40087 1.5953,0.71175c0.4745,0.31088 0.84265,0.68721 1.10444,1.12898c0.27816,0.44178 0.41723,0.98991 0.41723,1.64439c0,0.73629 -0.18816,1.43168 -0.56449,2.08616c-0.35996,0.65448 -0.91628,1.17807 -1.66893,1.57076c-0.73629,0.39269 -1.66893,0.58904 -2.79791,0.58904zM338.94918,246.96694h3.28877v12.39426h-3.28877zM338.80193,242.50009c0,-0.50722 0.19635,-0.92445 0.58904,-1.2517c0.40905,-0.3436 0.85082,-0.51541 1.32533,-0.51541c0.4745,0 0.89174,0.1718 1.2517,0.51541c0.37633,0.32725 0.56449,0.74448 0.56449,1.2517c0,0.50722 -0.18816,0.92445 -0.56449,1.2517c-0.35996,0.32725 -0.7772,0.49086 -1.2517,0.49086c-0.4745,0 -0.91628,-0.16362 -1.32533,-0.49086c-0.39269,-0.3436 -0.58904,-0.76084 -0.58904,-1.2517zM345.71335,253.02908c0,-1.24351 0.29451,-2.36432 0.88355,-3.3624c0.60539,-1.01445 1.43168,-1.808 2.47885,-2.38068c1.06354,-0.58904 2.26615,-0.88355 3.60783,-0.88355c1.39077,0 2.59338,0.29451 3.60783,0.88355c1.03081,0.57268 1.82437,1.36623 2.38068,2.38068c0.57268,0.99808 0.85901,2.11889 0.85901,3.3624c0,1.25988 -0.28633,2.38886 -0.85901,3.38695c-0.55631,0.99808 -1.34987,1.79164 -2.38068,2.38068c-1.03081,0.58904 -2.24161,0.88355 -3.63238,0.88355c-1.34169,0 -2.53612,-0.26998 -3.58329,-0.80992c-1.04717,-0.53994 -1.87346,-1.30078 -2.47885,-2.28251c-0.58904,-0.99808 -0.88355,-2.18434 -0.88355,-3.55875zM349.02667,253.05362c0,0.71993 0.15544,1.3826 0.46632,1.98799c0.31088,0.58904 0.73629,1.06354 1.27624,1.4235c0.55631,0.3436 1.16988,0.51541 1.84073,0.51541c0.71993,0 1.34987,-0.1718 1.88982,-0.51541c0.53994,-0.35996 0.95718,-0.83447 1.2517,-1.4235c0.31088,-0.60539 0.46632,-1.26806 0.46632,-1.98799c0,-0.73629 -0.15544,-1.39896 -0.46632,-1.98799c-0.29451,-0.60539 -0.71175,-1.0799 -1.2517,-1.4235c-0.53994,-0.35996 -1.16988,-0.53994 -1.88982,-0.53994c-0.68721,0 -1.30078,0.17999 -1.84073,0.53994c-0.53994,0.35996 -0.96536,0.83447 -1.27624,1.4235c-0.31088,0.58904 -0.46632,1.2517 -0.46632,1.98799zM365.97785,246.96694l0.24543,2.6752l-0.07363,-0.36815c0.40905,-0.85082 1.03899,-1.53803 1.88982,-2.06162c0.86719,-0.52359 1.88164,-0.78538 3.04334,-0.78538c1.17807,0 2.14343,0.3436 2.89609,1.03081c0.76902,0.68721 1.16171,1.58712 1.17807,2.69974v9.20366h-3.26423v-8.02559c-0.01636,-0.62176 -0.19635,-1.1208 -0.53994,-1.49713c-0.32725,-0.39269 -0.85082,-0.59722 -1.57076,-0.61358c-0.67085,0 -1.26806,0.20453 -1.79164,0.61358c-0.52359,0.39269 -0.94082,0.94082 -1.2517,1.64439c-0.29451,0.68721 -0.44178,1.48077 -0.44178,2.38068v5.49766h-3.28877v-12.39426z" fill="#cdcdcd" stroke="none" stroke-width="1" stroke-linecap="square"/></g></g></svg>