<svg version="1.1" xmlns="http://www.w3.org/2000/svg" xmlns:xlink="http://www.w3.org/1999/xlink" width="720" height="540" viewBox="0,0,720,540"><defs><clipPath id="clip-1"><rect x="-240" y="-180" transform="scale(0.5,0.5)" width="1440" height="1080" fill="none" fill-rule="nonzero" stroke-width="0.5" stroke-linecap="butt"/></clipPath></defs><g transform="translate(120,90)"><g clip-path="url(#clip-1)" data-paper-data="{&quot;isPaintingLayer&quot;:true}" stroke="none" stroke-linejoin="miter" stroke-miterlimit="10" stroke-dasharray="" stroke-dashoffset="0" style="mix-blend-mode: normal"><path d="M-55.31532,70.75075h960v720h-960z" fill-opacity="0" fill="#000000" fill-rule="evenodd" stroke-width="1" stroke-linecap="square"/><path d="M-47.74051,104.5539h944.85034v140.59843h-944.85034z" fill-opacity="0" fill="#000000" fill-rule="evenodd" stroke-width="1" stroke-linecap="square"/><path d="M-25.91239,125.4289v16.53125c0,1.04167 -0.04167,1.79167 -0.125,2.25c-0.08333,0.45833 -0.34375,0.86458 -0.78125,1.21875c-0.42708,0.35417 -0.92187,0.53125 -1.48437,0.53125c-0.57292,0 -1.07812,-0.16146 -1.51562,-0.48437c-0.42708,-0.32292 -0.68229,-0.72396 -0.76562,-1.20312c-0.07292,-0.47917 -0.10937,-1.25 -0.10937,-2.3125v-16.53125h-4.42187c-0.95833,0 -1.61979,-0.03646 -1.98437,-0.10937c-0.35417,-0.08333 -0.66667,-0.28646 -0.9375,-0.60937c-0.27083,-0.33333 -0.40625,-0.71875 -0.40625,-1.15625c0,-0.32292 0.08854,-0.64583 0.26563,-0.96875c0.17708,-0.32292 0.42188,-0.55208 0.73438,-0.6875c0.32292,-0.13542 1.09896,-0.20312 2.32813,-0.20312h13.57813c1.11458,0 1.82812,0.04688 2.14062,0.14063c0.3125,0.08333 0.58854,0.29167 0.82813,0.625c0.23958,0.32292 0.35938,0.6875 0.35938,1.09375c0,0.32292 -0.09375,0.65104 -0.28125,0.98438c-0.17708,0.32292 -0.42187,0.55208 -0.73437,0.6875c-0.3125,0.13542 -1.08333,0.20313 -2.3125,0.20313zM-17.39872,139.35077v-7.79687c0,-0.95833 0.03646,-1.65104 0.10938,-2.07812c0.07292,-0.4375 0.30208,-0.80729 0.6875,-1.10937c0.38542,-0.3125 0.84896,-0.46875 1.39063,-0.46875c0.52083,0 0.97917,0.14583 1.375,0.4375c0.39583,0.29167 0.64063,0.67708 0.73438,1.15625c0.09375,0.47917 0.14063,1.20313 0.14063,2.17188v6.09375c0,2.01042 0.3125,3.29688 0.9375,3.85938c0.625,0.5625 1.30729,0.84375 2.04688,0.84375c0.86458,0 1.61979,-0.23958 2.26563,-0.71875c0.64583,-0.48958 1.08333,-1.07292 1.3125,-1.75c0.22917,-0.67708 0.34375,-2.01042 0.34375,-4v-4.4375c0,-0.9375 0.04688,-1.63021 0.14063,-2.07812c0.09375,-0.45833 0.33333,-0.83333 0.71875,-1.125c0.39583,-0.30208 0.85938,-0.45312 1.39063,-0.45312c0.51042,0 0.96354,0.14583 1.35938,0.4375c0.39583,0.29167 0.63542,0.66146 0.71875,1.10938c0.08333,0.4375 0.125,1.14063 0.125,2.10938v10.96875c0,0.90625 -0.04687,1.5625 -0.14062,1.96875c-0.08333,0.39583 -0.29687,0.73958 -0.64062,1.03125c-0.33333,0.29167 -0.76042,0.4375 -1.28125,0.4375c-1.4375,0 -2.13021,-1.02604 -2.07812,-3.07812c-1.47917,2.05208 -3.4375,3.07813 -5.875,3.07813c-1.60417,0 -2.96875,-0.47917 -4.09375,-1.4375c-1.125,-0.95833 -1.6875,-2.68229 -1.6875,-5.17187zM2.82536,142.28827v-11.39062c0,-2 0.72917,-3 2.1875,-3c1.40625,0 2.125,0.92188 2.15625,2.76563c0.91667,-1.84375 2.19271,-2.76563 3.82813,-2.76563c0.85417,0 1.73958,0.22396 2.65625,0.67188c0.91667,0.44792 1.375,1.0625 1.375,1.84375c0,0.54167 -0.1875,0.98958 -0.5625,1.34375c-0.36458,0.35417 -0.76042,0.53125 -1.1875,0.53125c-0.22917,0 -0.65625,-0.09375 -1.28125,-0.28125c-0.625,-0.1875 -1.15104,-0.28125 -1.57812,-0.28125c-1.0625,0 -1.85417,0.53646 -2.375,1.60938c-0.52083,1.07291 -0.78125,3.14583 -0.78125,6.21875v2.5625c0,1.13542 -0.04687,1.90104 -0.14062,2.29688c-0.09375,0.39583 -0.33854,0.75521 -0.73437,1.07813c-0.38542,0.3125 -0.83333,0.46875 -1.34375,0.46875c-0.47917,0 -0.91667,-0.14062 -1.3125,-0.42187c-0.38542,-0.29167 -0.63542,-0.63542 -0.75,-1.03125c-0.10417,-0.39583 -0.15625,-1.13542 -0.15625,-2.21875zM33.12582,134.9914v7.29688c0,0.9375 -0.04167,1.625 -0.125,2.0625c-0.07292,0.42708 -0.30729,0.80208 -0.70312,1.125c-0.38542,0.32292 -0.84375,0.48438 -1.375,0.48438c-0.47917,0 -0.92708,-0.14062 -1.34375,-0.42187c-0.40625,-0.29167 -0.66146,-0.66667 -0.76562,-1.125c-0.09375,-0.46875 -0.14062,-1.17708 -0.14062,-2.125v-6.40625c0,-1.77083 -0.26562,-2.96354 -0.79687,-3.57812c-0.53125,-0.625 -1.26042,-0.9375 -2.1875,-0.9375c-0.84375,0 -1.58854,0.24479 -2.23437,0.73438c-0.63542,0.48958 -1.08333,1.09896 -1.34375,1.82813c-0.26042,0.72916 -0.39062,1.98437 -0.39062,3.76562v4.59375c0,0.92708 -0.03646,1.60417 -0.10937,2.03125c-0.07292,0.41667 -0.3125,0.79688 -0.71875,1.14063c-0.39583,0.33333 -0.85417,0.5 -1.375,0.5c-0.48958,0 -0.94271,-0.14583 -1.35937,-0.4375c-0.40625,-0.30208 -0.65625,-0.67708 -0.75,-1.125c-0.08333,-0.44792 -0.125,-1.15104 -0.125,-2.10937v-10.95312c0,-0.98958 0.04688,-1.67708 0.14063,-2.0625c0.09375,-0.39583 0.32813,-0.72396 0.70313,-0.98437c0.375,-0.26042 0.79688,-0.39063 1.26563,-0.39063c0.42708,0 0.875,0.17188 1.34375,0.51563c0.47917,0.34375 0.71875,1.17188 0.71875,2.48438c1.48958,-2 3.40104,-3 5.73438,-3c0.88542,0 1.76042,0.17188 2.625,0.51563c0.875,0.33333 1.58333,0.875 2.125,1.625c0.55208,0.75 0.88542,1.53125 1,2.34375c0.125,0.80208 0.1875,1.67187 0.1875,2.60937zM55.24419,127.89765c2.75,0 4.91146,0.84896 6.48437,2.54688c1.58333,1.69792 2.375,3.85937 2.375,6.48437c0,2.63542 -0.80208,4.80208 -2.40625,6.5c-1.59375,1.6875 -3.70833,2.53125 -6.34375,2.53125c-2.86458,0 -5.07812,-0.85417 -6.64062,-2.5625c-1.55208,-1.71875 -2.32812,-3.875 -2.32812,-6.46875c0,-2.63541 0.78646,-4.79687 2.35938,-6.48437c1.58333,-1.69792 3.75,-2.54687 6.5,-2.54687zM55.24419,142.66327c1.34375,0 2.40625,-0.50521 3.1875,-1.51562c0.79167,-1.02083 1.1875,-2.42708 1.1875,-4.21875c0,-1.80208 -0.39583,-3.20833 -1.1875,-4.21875c-0.78125,-1.02083 -1.84375,-1.53125 -3.1875,-1.53125c-1.32292,0 -2.38021,0.51042 -3.17187,1.53125c-0.79167,1.02083 -1.1875,2.42708 -1.1875,4.21875c0,1.80208 0.39063,3.20833 1.17188,4.21875c0.79167,1.01042 1.85417,1.51563 3.1875,1.51563zM68.28076,128.28828v-1.29688c0,-2.27083 0.46875,-3.78646 1.40625,-4.54687c0.94792,-0.77083 2.29687,-1.15625 4.04687,-1.15625c2.82292,0 4.23438,0.63542 4.23438,1.90625c0,0.38542 -0.13542,0.73438 -0.40625,1.04688c-0.26042,0.30208 -0.60937,0.45313 -1.04687,0.45313c-0.09375,0 -0.38021,-0.03125 -0.85937,-0.09375c-0.47917,-0.07292 -0.76042,-0.10937 -0.84375,-0.10937c-0.625,0 -1.13021,0.16667 -1.51562,0.5c-0.38542,0.32292 -0.57812,1.06771 -0.57812,2.23438v1.0625h1.125c1.66667,0 2.5,0.52083 2.5,1.5625c0,0.51042 -0.16146,0.91146 -0.48437,1.20313c-0.3125,0.29167 -0.98437,0.4375 -2.01562,0.4375h-1.125v10.79687c0,0.83333 -0.03646,1.46354 -0.10937,1.89063c-0.07292,0.42708 -0.27083,0.83333 -0.59375,1.21875c-0.32292,0.375 -0.82812,0.5625 -1.51562,0.5625c-0.69792,0 -1.24479,-0.22917 -1.64062,-0.6875c-0.38542,-0.45833 -0.57812,-1.45312 -0.57812,-2.98437v-10.79687h-1.25c-1.34375,0 -2.01562,-0.54687 -2.01562,-1.64062c0,-1.04167 0.74479,-1.5625 2.23438,-1.5625h1.03125zM80.61626,128.28828v-1.29688c0,-2.27083 0.46875,-3.78646 1.40625,-4.54687c0.94792,-0.77083 2.29688,-1.15625 4.04688,-1.15625c2.82292,0 4.23438,0.63542 4.23438,1.90625c0,0.38542 -0.13542,0.73438 -0.40625,1.04688c-0.26042,0.30208 -0.60937,0.45313 -1.04687,0.45313c-0.09375,0 -0.38021,-0.03125 -0.85937,-0.09375c-0.47917,-0.07292 -0.76042,-0.10937 -0.84375,-0.10937c-0.625,0 -1.13021,0.16667 -1.51562,0.5c-0.38542,0.32292 -0.57812,1.06771 -0.57812,2.23438v1.0625h1.125c1.66667,0 2.5,0.52083 2.5,1.5625c0,0.51042 -0.16146,0.91146 -0.48437,1.20313c-0.3125,0.29167 -0.98437,0.4375 -2.01562,0.4375h-1.125v10.79687c0,0.83333 -0.03646,1.46354 -0.10937,1.89063c-0.07292,0.42708 -0.27083,0.83333 -0.59375,1.21875c-0.32292,0.375 -0.82812,0.5625 -1.51562,0.5625c-0.69792,0 -1.24479,-0.22917 -1.64062,-0.6875c-0.38542,-0.45833 -0.57812,-1.45312 -0.57812,-2.98437v-10.79687h-1.25c-1.34375,0 -2.01562,-0.54687 -2.01562,-1.64062c0,-1.04167 0.74479,-1.5625 2.23438,-1.5625zM115.19567,125.4289v16.53125c0,1.04167 -0.04167,1.79167 -0.125,2.25c-0.08333,0.45833 -0.34375,0.86458 -0.78125,1.21875c-0.42708,0.35417 -0.92187,0.53125 -1.48437,0.53125c-0.57292,0 -1.07812,-0.16146 -1.51562,-0.48437c-0.42708,-0.32292 -0.68229,-0.72396 -0.76562,-1.20312c-0.07292,-0.47917 -0.10937,-1.25 -0.10937,-2.3125v-16.53125h-4.42187c-0.95833,0 -1.61979,-0.03646 -1.98437,-0.10937c-0.35417,-0.08333 -0.66667,-0.28646 -0.9375,-0.60937c-0.27083,-0.33333 -0.40625,-0.71875 -0.40625,-1.15625c0,-0.32292 0.08854,-0.64583 0.26563,-0.96875c0.17708,-0.32292 0.42188,-0.55208 0.73438,-0.6875c0.32292,-0.13542 1.09896,-0.20312 2.32813,-0.20312h13.57813c1.11458,0 1.82813,0.04688 2.14063,0.14063c0.3125,0.08333 0.58854,0.29167 0.82813,0.625c0.23958,0.32292 0.35938,0.6875 0.35938,1.09375c0,0.32292 -0.09375,0.65104 -0.28125,0.98438c-0.17708,0.32292 -0.42187,0.55208 -0.73437,0.6875c-0.3125,0.13542 -1.08333,0.20313 -2.3125,0.20313zM123.70934,139.35077v-7.79687c0,-0.95833 0.03646,-1.65104 0.10938,-2.07812c0.07292,-0.4375 0.30208,-0.80729 0.6875,-1.10937c0.38542,-0.3125 0.84896,-0.46875 1.39063,-0.46875c0.52083,0 0.97917,0.14583 1.375,0.4375c0.39583,0.29167 0.64063,0.67708 0.73437,1.15625c0.09375,0.47917 0.14063,1.20313 0.14063,2.17188v6.09375c0,2.01042 0.3125,3.29688 0.9375,3.85938c0.625,0.5625 1.30729,0.84375 2.04688,0.84375c0.86458,0 1.61979,-0.23958 2.26563,-0.71875c0.64583,-0.48958 1.08333,-1.07292 1.3125,-1.75c0.22917,-0.67708 0.34375,-2.01042 0.34375,-4v-4.4375c0,-0.9375 0.04688,-1.63021 0.14063,-2.07812c0.09375,-0.45833 0.33333,-0.83333 0.71875,-1.125c0.39583,-0.30208 0.85938,-0.45312 1.39063,-0.45312c0.51042,0 0.96354,0.14583 1.35938,0.4375c0.39583,0.29167 0.63542,0.66146 0.71875,1.10938c0.08333,0.4375 0.125,1.14063 0.125,2.10938v10.96875c0,0.90625 -0.04687,1.5625 -0.14062,1.96875c-0.08333,0.39583 -0.29687,0.73958 -0.64062,1.03125c-0.33333,0.29167 -0.76042,0.4375 -1.28125,0.4375c-1.4375,0 -2.13021,-1.02604 -2.07812,-3.07812c-1.47917,2.05208 -3.4375,3.07813 -5.875,3.07813c-1.60417,0 -2.96875,-0.47917 -4.09375,-1.4375c-1.125,-0.95833 -1.6875,-2.68229 -1.6875,-5.17187zM143.93342,142.28827v-11.39062c0,-2 0.72917,-3 2.1875,-3c1.40625,0 2.125,0.92188 2.15625,2.76563c0.91667,-1.84375 2.19271,-2.76563 3.82813,-2.76563c0.85417,0 1.73958,0.22396 2.65625,0.67188c0.91667,0.44792 1.375,1.0625 1.375,1.84375c0,0.54167 -0.1875,0.98958 -0.5625,1.34375c-0.36458,0.35417 -0.76042,0.53125 -1.1875,0.53125c-0.22917,0 -0.65625,-0.09375 -1.28125,-0.28125c-0.625,-0.1875 -1.15104,-0.28125 -1.57812,-0.28125c-1.0625,0 -1.85417,0.53646 -2.375,1.60938c-0.52083,1.07291 -0.78125,3.14583 -0.78125,6.21875v2.5625c0,1.13542 -0.04687,1.90104 -0.14062,2.29688c-0.09375,0.39583 -0.33854,0.75521 -0.73437,1.07813c-0.38542,0.3125 -0.83333,0.46875 -1.34375,0.46875c-0.47917,0 -0.91667,-0.14062 -1.3125,-0.42187c-0.38542,-0.29167 -0.63542,-0.63542 -0.75,-1.03125c-0.10417,-0.39583 -0.15625,-1.13542 -0.15625,-2.21875zM162.59325,142.97577v0.45313c0,1.6875 -0.72917,2.53125 -2.1875,2.53125c-0.57292,0 -1.05208,-0.14062 -1.4375,-0.42187c-0.38542,-0.29167 -0.61458,-0.64583 -0.6875,-1.0625c-0.07292,-0.41667 -0.10937,-1.07812 -0.10937,-1.98437v-17.5c0,-1 0.04688,-1.73437 0.14063,-2.20312c0.10417,-0.46875 0.35417,-0.83333 0.75,-1.09375c0.40625,-0.27083 0.83854,-0.40625 1.29688,-0.40625c0.67708,0 1.21875,0.19792 1.625,0.59375c0.40625,0.38542 0.60938,1.375 0.60938,2.96875v5.76563c1.65625,-1.8125 3.60417,-2.71875 5.84375,-2.71875c2.3125,0 4.11979,0.82292 5.42188,2.46875c1.3125,1.63542 1.96875,3.73958 1.96875,6.3125c0,2.73958 -0.67187,4.97396 -2.01562,6.70313c-1.33333,1.71875 -3.14062,2.57813 -5.42187,2.57813c-2.32292,0 -4.25521,-0.99479 -5.79687,-2.98437zM162.82763,137.13202c0,1.70833 0.41146,3.04167 1.23438,4c0.83333,0.94792 1.88021,1.42188 3.14063,1.42188c1.07292,0 2.02604,-0.45833 2.85938,-1.375c0.84375,-0.91667 1.26563,-2.36979 1.26563,-4.35937c0,-1.72916 -0.38021,-3.08333 -1.14062,-4.0625c-0.76042,-0.97917 -1.74479,-1.46875 -2.95312,-1.46875c-1.33333,0 -2.40104,0.53125 -3.20312,1.59375c-0.80208,1.05208 -1.20312,2.46875 -1.20312,4.25zM187.15771,127.89765c2.75,0 4.91146,0.84896 6.48438,2.54688c1.58333,1.69792 2.375,3.85937 2.375,6.48437c0,2.63542 -0.80208,4.80208 -2.40625,6.5c-1.59375,1.6875 -3.70833,2.53125 -6.34375,2.53125c-2.86458,0 -5.07812,-0.85417 -6.64062,-2.5625c-1.55208,-1.71875 -2.32812,-3.875 -2.32812,-6.46875c0,-2.63541 0.78646,-4.79687 2.35938,-6.48437c1.58333,-1.69792 3.75,-2.54687 6.5,-2.54687zM187.15771,142.66327c1.34375,0 2.40625,-0.50521 3.1875,-1.51562c0.79167,-1.02083 1.1875,-2.42708 1.1875,-4.21875c0,-1.80208 -0.39583,-3.20833 -1.1875,-4.21875c-0.78125,-1.02083 -1.84375,-1.53125 -3.1875,-1.53125c-1.32292,0 -2.38021,0.51042 -3.17187,1.53125c-0.79167,1.02083 -1.1875,2.42708 -1.1875,4.21875c0,1.80208 0.39063,3.20833 1.17188,4.21875c0.79167,1.01042 1.85417,1.51563 3.1875,1.51563zM213.99483,126.75703v15.45312c0,1 -0.04687,1.70833 -0.14062,2.125c-0.09375,0.40625 -0.33854,0.78125 -0.73437,1.125c-0.38542,0.33333 -0.84896,0.5 -1.39062,0.5c-0.54167,0 -1.01042,-0.15104 -1.40625,-0.45312c-0.39583,-0.3125 -0.63542,-0.68229 -0.71875,-1.10937c-0.08333,-0.4375 -0.125,-1.16667 -0.125,-2.1875v-17.29687c0,-1.07292 0.1875,-1.875 0.5625,-2.40625c0.38542,-0.54167 1.21354,-0.8125 2.48438,-0.8125h1.46875c1.28125,0 2.09896,0.17708 2.45313,0.53125c0.35417,0.35417 0.72396,1.23958 1.10938,2.65625l3.45313,13.07812l3.4375,-13.07812c0.375,-1.40625 0.73958,-2.28646 1.09375,-2.64062c0.35417,-0.36458 1.17708,-0.54687 2.46875,-0.54687h1.46875c1.13542,0 1.92708,0.22396 2.375,0.67188c0.44792,0.4375 0.67188,1.28646 0.67188,2.54687v17.29687c0,1.02083 -0.04167,1.73958 -0.125,2.15625c-0.07292,0.40625 -0.30729,0.77604 -0.70312,1.10938c-0.39583,0.32292 -0.86979,0.48438 -1.42187,0.48438c-0.47917,0 -0.92187,-0.13542 -1.32812,-0.40625c-0.40625,-0.28125 -0.66667,-0.64062 -0.78125,-1.07812c-0.10417,-0.4375 -0.15625,-1.19271 -0.15625,-2.26562v-15.45312l-3.75,15.20312c-0.45833,1.82292 -0.92187,2.94792 -1.39062,3.375c-0.45833,0.41667 -1.07812,0.625 -1.85937,0.625c-0.90625,0 -1.57292,-0.26042 -2,-0.78125c-0.42708,-0.52083 -0.84896,-1.59375 -1.26562,-3.21875zM244.94491,127.89765c2.75,0 4.91146,0.84896 6.48438,2.54688c1.58333,1.69792 2.375,3.85937 2.375,6.48437c0,2.63542 -0.80208,4.80208 -2.40625,6.5c-1.59375,1.6875 -3.70833,2.53125 -6.34375,2.53125c-2.86458,0 -5.07812,-0.85417 -6.64062,-2.5625c-1.55208,-1.71875 -2.32812,-3.875 -2.32812,-6.46875c0,-2.63541 0.78646,-4.79687 2.35938,-6.48437c1.58333,-1.69792 3.75,-2.54687 6.5,-2.54687zM244.94491,142.66327c1.34375,0 2.40625,-0.50521 3.1875,-1.51562c0.79167,-1.02083 1.1875,-2.42708 1.1875,-4.21875c0,-1.80208 -0.39583,-3.20833 -1.1875,-4.21875c-0.78125,-1.02083 -1.84375,-1.53125 -3.1875,-1.53125c-1.32292,0 -2.38021,0.51042 -3.17187,1.53125c-0.79167,1.02083 -1.1875,2.42708 -1.1875,4.21875c0,1.80208 0.39063,3.20833 1.17188,4.21875c0.79167,1.01042 1.85417,1.51563 3.1875,1.51563zM269.45022,143.4289v-0.45312c-1.53125,1.98958 -3.46875,2.98438 -5.8125,2.98438c-2.27083,0 -4.07812,-0.85937 -5.42187,-2.57812c-1.33333,-1.72917 -2,-3.96354 -2,-6.70312c0,-2.57291 0.65104,-4.67708 1.95313,-6.3125c1.3125,-1.64583 3.125,-2.46875 5.4375,-2.46875c2.25,0 4.19792,0.90625 5.84375,2.71875v-5.76562c0,-1.59375 0.19792,-2.58333 0.59375,-2.96875c0.40625,-0.39583 0.95313,-0.59375 1.64063,-0.59375c0.46875,0 0.90104,0.14063 1.29688,0.42188c0.40625,0.27083 0.65625,0.63021 0.75,1.07813c0.09375,0.44792 0.14063,1.18229 0.14063,2.20313v17.5c0,0.98958 -0.05208,1.69792 -0.15625,2.125c-0.10417,0.41667 -0.35937,0.74479 -0.76562,0.98438c-0.39583,0.23958 -0.83333,0.35938 -1.3125,0.35938c-1.45833,0 -2.1875,-0.84375 -2.1875,-2.53125zM260.71584,136.81952c0,1.98958 0.41667,3.44271 1.25,4.35938c0.84375,0.91667 1.80208,1.375 2.875,1.375c1.26042,0 2.30208,-0.47396 3.125,-1.42187c0.82292,-0.95833 1.23438,-2.29167 1.23438,-4c0,-1.79166 -0.40104,-3.21875 -1.20312,-4.28125c-0.80208,-1.0625 -1.86458,-1.59375 -3.1875,-1.59375c-1.20833,0 -2.19271,0.49479 -2.95312,1.48438c-0.76042,0.97917 -1.14062,2.33854 -1.14062,4.07812zM290.5303,138.02265h-8.71875c0.04167,1.64583 0.49479,2.89063 1.35938,3.73438c0.86458,0.84375 1.90104,1.26563 3.10938,1.26563c1.47917,0 2.875,-0.65104 4.1875,-1.95312c0.53125,-0.55208 0.92188,-0.89062 1.17188,-1.01562c0.26042,-0.13542 0.55208,-0.20312 0.875,-0.20312c0.39583,0 0.73438,0.125 1.01563,0.375c0.29167,0.25 0.4375,0.5625 0.4375,0.9375c0,1 -0.68229,2.05208 -2.04687,3.15625c-1.36458,1.09375 -3.21354,1.64063 -5.54687,1.64063c-2.97917,0 -5.23437,-0.83854 -6.76562,-2.51562c-1.53125,-1.67708 -2.29687,-3.84896 -2.29687,-6.51562c0,-2.6875 0.76563,-4.86458 2.29688,-6.53125c1.53125,-1.66667 3.66667,-2.5 6.40625,-2.5c2.61458,0 4.63021,0.78646 6.04688,2.35938c1.42708,1.57292 2.14063,3.28125 2.14063,5.125c0,0.8125 -0.23958,1.45833 -0.71875,1.9375c-0.46875,0.46875 -1.45312,0.70313 -2.95312,0.70313zM281.81155,135.4914h8.09375c-0.05208,-1.46875 -0.45833,-2.58854 -1.21875,-3.35937c-0.76042,-0.78125 -1.69792,-1.17187 -2.8125,-1.17187c-2.35417,0 -3.70833,1.51042 -4.0625,4.53125zM307.0732,142.85077v-4.60937l11.4375,-4.48437l-11.4375,-4.42187v-4.57812l16.375,7.0625v3.90625l-16.375,7.125zM330.20687,127.89765c0.66667,0 1.23958,0.23958 1.71875,0.71875c0.47917,0.47917 0.71875,1.04688 0.71875,1.70313c0,0.6875 -0.23958,1.27083 -0.71875,1.75c-0.47917,0.47917 -1.05208,0.71875 -1.71875,0.71875c-0.67708,0 -1.26042,-0.23958 -1.75,-0.71875c-0.47917,-0.47917 -0.71875,-1.0625 -0.71875,-1.75c0,-0.65625 0.23958,-1.22396 0.71875,-1.70312c0.48958,-0.47917 1.07292,-0.71875 1.75,-0.71875zM330.20687,141.06952c0.66667,0 1.23958,0.23958 1.71875,0.71875c0.47917,0.46875 0.71875,1.03646 0.71875,1.70313c0,0.66667 -0.23958,1.24479 -0.71875,1.73438c-0.47917,0.48958 -1.05208,0.73438 -1.71875,0.73438c-0.67708,0 -1.26042,-0.23958 -1.75,-0.71875c-0.47917,-0.48958 -0.71875,-1.07292 -0.71875,-1.75c0,-0.66667 0.23958,-1.23437 0.71875,-1.70312c0.48958,-0.47917 1.07292,-0.71875 1.75,-0.71875z" fill="#000000" fill-rule="nonzero" stroke-width="1" stroke-linecap="square"/></g></g></svg>