<svg version="1.1" xmlns="http://www.w3.org/2000/svg" xmlns:xlink="http://www.w3.org/1999/xlink" width="32.97443" height="113.16666" viewBox="0,0,32.97443,113.16666"><g transform="translate(-80.05724,-100.99585)"><g data-paper-data="{&quot;isPaintingLayer&quot;:true}" fill="none" fill-rule="nonzero" stroke="#323245" stroke-width="5" stroke-linecap="butt" stroke-linejoin="miter" stroke-miterlimit="10" stroke-dasharray="" stroke-dashoffset="0" style="mix-blend-mode: normal"><path d="M110.53165,199.58266c0,5.27151 0,8.4743 0,8.4743c0,1.88702 -1.53824,3.60555 -3.04069,3.60555c-2.71574,0 -15.85844,0 -21.89302,0c-1.1472,0 -2.03752,-0.54354 -2.55048,-1.55257c-0.31731,-0.62417 -0.49022,-1.42645 -0.49022,-2.38838c0,-2.73235 0,-6.75272 0,-11.63751" data-paper-data="{&quot;index&quot;:null}"/><path d="M82.55724,175.89767c0,-9.96927 0,-20.84285 0,-30.96938" data-paper-data="{&quot;index&quot;:null}"/><path d="M82.55724,124.79256c0,-8.87672 0,-15.47504 0,-17.69116c0,-2.02725 1.29709,-3.60555 3.31099,-3.60555c6.09331,0 18.74858,0 21.89302,0c1.38707,0 2.77042,1.61797 2.77042,2.93475c0,2.00758 0,9.31104 0,19.14988" data-paper-data="{&quot;index&quot;:null}"/><path d="M110.53166,146.26296c0,9.89347 0,20.34766 -0.00001,29.78693" data-paper-data="{&quot;index&quot;:null}"/></g></g></svg>