<svg version="1.1" xmlns="http://www.w3.org/2000/svg" xmlns:xlink="http://www.w3.org/1999/xlink" width="499.85284" height="466.9421" viewBox="0,0,499.85284,466.9421"><g transform="translate(8.67863,73.10001)"><g data-paper-data="{&quot;isPaintingLayer&quot;:true}" fill-rule="nonzero" stroke-linecap="butt" stroke-linejoin="miter" stroke-miterlimit="10" stroke-dasharray="" stroke-dashoffset="0" style="mix-blend-mode: normal"><path d="M-4.5,3.89999v-76h494v76z" fill="#000000" stroke="#000000" stroke-width="2"/><path d="M0.2568,393.84209v-43.54354h484.98498v43.54354z" fill="#000000" stroke="none" stroke-width="0"/><path d="M4.71029,369.16748v-21.19912h474.19075v21.19912z" fill="#000000" stroke="none" stroke-width="0"/><path d="M468.85935,365.82025v-369.31091h18.96763v369.31091z" fill="#000000" stroke="none" stroke-width="0"/><path d="M-8.67863,6.55103v-11.15743h499.85284v11.15743z" fill="#000000" stroke="none" stroke-width="0"/><path d="M-6.44714,363.58877v-367.07943h27.89357v367.07943z" fill="#000000" stroke="none" stroke-width="NaN"/><path d="M476.5,358.9h-467.8102l23.39051,-15h428.14803z" data-paper-data="{&quot;index&quot;:null}" fill="#6e7979" stroke="none" stroke-width="0"/><path d="M470.82657,350.08257h-450.7899l12.04364,-6.29108h428.14803z" data-paper-data="{&quot;index&quot;:null}" fill="#859292" stroke="none" stroke-width="0"/><path d="M476.5,358.9h-467.8102l23.39051,-15c0,0 9.43319,0 20.68984,0c49.95426,0 407.45819,0 407.45819,0z" data-paper-data="{&quot;index&quot;:null}" fill="none" stroke="#000000" stroke-width="3"/><path d="M453.5,342.9v-327l23,-15v358z" fill="#3f5252" stroke="none" stroke-width="0"/><path d="M453.5,342.9v-327l5.58223,-3.64058l-0.5835,335.20491z" fill="#73797b" stroke="none" stroke-width="0"/><path d="M453.5,342.89999v-327l23,-15v358z" fill="none" stroke="#000000" stroke-width="3"/><path d="M8.6898,0.89999h467.8102l-23.39051,15h-428.14803z" fill="#6e7979" stroke="none" stroke-width="0"/><path d="M14.36323,9.71743h450.7899l-12.04364,6.29107h-428.14803z" fill="#859292" stroke="none" stroke-width="0"/><path d="M8.6898,0.89999h467.8102l-23.39051,15c0,0 -9.43319,0 -20.68984,0c-49.95426,0 -407.45819,0 -407.45819,0z" fill="none" stroke="#000000" stroke-width="3"/><path d="M31.6898,16.89999v327l-23,15v-358z" data-paper-data="{&quot;index&quot;:null}" fill="#3f5252" stroke="none" stroke-width="0"/><path d="M31.6898,16.89999v327l-5.58223,3.64058l0.5835,-335.20491z" data-paper-data="{&quot;index&quot;:null}" fill="#73797b" stroke="none" stroke-width="0"/><path d="M31.6898,16.9v327l-23,15v-358z" data-paper-data="{&quot;index&quot;:null}" fill="none" stroke="#000000" stroke-width="3"/></g></g></svg>